G04*
G04 #@! TF.GenerationSoftware,Altium Limited,Altium Designer,20.2.6 (244)*
G04*
G04 Layer_Color=8388736*
%FSLAX25Y25*%
%MOIN*%
G70*
G04*
G04 #@! TF.SameCoordinates,EFAE668D-727F-4ECC-B3F7-511A600DF1C5*
G04*
G04*
G04 #@! TF.FilePolarity,Negative*
G04*
G01*
G75*
%ADD16R,0.02756X0.05709*%
%ADD17R,0.01968X0.05709*%
%ADD18R,0.06378X0.04803*%
%ADD19R,0.05984X0.05197*%
%ADD20R,0.05197X0.05984*%
%ADD21R,0.04213X0.02244*%
%ADD22R,0.05197X0.05197*%
%ADD23R,0.05984X0.06772*%
%ADD24R,0.05394X0.06181*%
%ADD25R,0.06181X0.05394*%
%ADD26C,0.08150*%
%ADD27R,0.06496X0.06496*%
%ADD28C,0.06496*%
%ADD29C,0.05591*%
%ADD30C,0.04921*%
D16*
X192323Y165059D02*
D03*
X221260D02*
D03*
Y142028D02*
D03*
X192323D02*
D03*
X232874Y23917D02*
D03*
X203937D02*
D03*
Y46949D02*
D03*
X232874D02*
D03*
D17*
X195276Y165059D02*
D03*
X197835D02*
D03*
X200394D02*
D03*
X202953D02*
D03*
X205512D02*
D03*
X208071D02*
D03*
X210630D02*
D03*
X213189D02*
D03*
X215748D02*
D03*
X218307D02*
D03*
Y142028D02*
D03*
X215748D02*
D03*
X213189D02*
D03*
X210630D02*
D03*
X208071D02*
D03*
X205512D02*
D03*
X202953D02*
D03*
X200394D02*
D03*
X197835D02*
D03*
X195276D02*
D03*
X229921Y23917D02*
D03*
X227362D02*
D03*
X224803D02*
D03*
X222244D02*
D03*
X219685D02*
D03*
X217126D02*
D03*
X214567D02*
D03*
X212008D02*
D03*
X209449D02*
D03*
X206890D02*
D03*
Y46949D02*
D03*
X209449D02*
D03*
X212008D02*
D03*
X214567D02*
D03*
X217126D02*
D03*
X219685D02*
D03*
X222244D02*
D03*
X224803D02*
D03*
X227362D02*
D03*
X229921D02*
D03*
D18*
X45866Y41496D02*
D03*
Y21496D02*
D03*
Y11496D02*
D03*
X10827D02*
D03*
Y21496D02*
D03*
Y31496D02*
D03*
Y41496D02*
D03*
X45866Y31496D02*
D03*
D19*
X68898Y152756D02*
D03*
Y142520D02*
D03*
X23622Y134646D02*
D03*
Y144882D02*
D03*
X158465Y158268D02*
D03*
Y168504D02*
D03*
D20*
X300394Y85827D02*
D03*
X290158D02*
D03*
X77953Y171260D02*
D03*
X67716D02*
D03*
X300394Y97244D02*
D03*
X290158D02*
D03*
X268898Y27559D02*
D03*
X258661D02*
D03*
D21*
X289665Y114961D02*
D03*
X296949D02*
D03*
Y111811D02*
D03*
Y108661D02*
D03*
Y105512D02*
D03*
X289665Y111811D02*
D03*
Y108661D02*
D03*
Y105512D02*
D03*
X23327Y101575D02*
D03*
X16043D02*
D03*
Y104724D02*
D03*
Y107874D02*
D03*
Y111024D02*
D03*
X23327Y104724D02*
D03*
Y107874D02*
D03*
Y111024D02*
D03*
X289961Y77165D02*
D03*
X297244D02*
D03*
Y74016D02*
D03*
Y70866D02*
D03*
Y67716D02*
D03*
X289961Y74016D02*
D03*
Y70866D02*
D03*
Y67716D02*
D03*
X23327Y74016D02*
D03*
X16043D02*
D03*
Y77165D02*
D03*
Y80315D02*
D03*
Y83465D02*
D03*
X23327Y77165D02*
D03*
Y80315D02*
D03*
Y83465D02*
D03*
X75492Y15945D02*
D03*
X68209D02*
D03*
Y19094D02*
D03*
Y22244D02*
D03*
Y25394D02*
D03*
X75492Y19094D02*
D03*
Y22244D02*
D03*
Y25394D02*
D03*
D22*
X11811Y135433D02*
D03*
Y144095D02*
D03*
D23*
X38386Y167323D02*
D03*
X56102D02*
D03*
Y135827D02*
D03*
X38386D02*
D03*
D24*
X91142Y171260D02*
D03*
X97835D02*
D03*
D25*
X245079Y25197D02*
D03*
Y31890D02*
D03*
X147638Y167717D02*
D03*
Y161024D02*
D03*
D26*
X252284Y121024D02*
D03*
X242284D02*
D03*
X232283D02*
D03*
X222284D02*
D03*
X212283D02*
D03*
X202284D02*
D03*
X192283D02*
D03*
X182283D02*
D03*
X172283D02*
D03*
X162284D02*
D03*
X152284D02*
D03*
X142283D02*
D03*
Y61024D02*
D03*
X152284D02*
D03*
X162284D02*
D03*
X172283D02*
D03*
X182283D02*
D03*
X192283D02*
D03*
X202284D02*
D03*
X212283D02*
D03*
X222284D02*
D03*
X232283D02*
D03*
X242284D02*
D03*
X262283Y121024D02*
D03*
X252284Y61024D02*
D03*
X262283D02*
D03*
X272284Y121024D02*
D03*
Y61024D02*
D03*
X132283Y121024D02*
D03*
Y61024D02*
D03*
X122283Y121024D02*
D03*
X112284D02*
D03*
X102284D02*
D03*
X92283D02*
D03*
X82284D02*
D03*
X72284D02*
D03*
X62283D02*
D03*
X52284D02*
D03*
X42283D02*
D03*
Y61024D02*
D03*
X52284D02*
D03*
X62283D02*
D03*
X72284D02*
D03*
X82284D02*
D03*
X92283D02*
D03*
X102284D02*
D03*
X112284D02*
D03*
X122283D02*
D03*
D27*
X271654Y179134D02*
D03*
Y8858D02*
D03*
D28*
X261653Y179134D02*
D03*
X251654D02*
D03*
X241653D02*
D03*
X231653D02*
D03*
X221654D02*
D03*
X211653D02*
D03*
X201654D02*
D03*
X191654D02*
D03*
X181653D02*
D03*
X171653D02*
D03*
X261653Y8858D02*
D03*
X251654D02*
D03*
X241653D02*
D03*
X231653D02*
D03*
X221654D02*
D03*
X211653D02*
D03*
X201654D02*
D03*
X191654D02*
D03*
X181653D02*
D03*
X171653D02*
D03*
D29*
X184055Y165354D02*
D03*
X185039Y141795D02*
D03*
X213583Y149606D02*
D03*
X137795Y161417D02*
D03*
X167323Y157480D02*
D03*
X166339Y169291D02*
D03*
X235236Y32480D02*
D03*
X84646Y25591D02*
D03*
X102362Y11811D02*
D03*
X112205Y25591D02*
D03*
X38386Y41339D02*
D03*
Y31496D02*
D03*
X92520Y51181D02*
D03*
Y31496D02*
D03*
X108268Y171260D02*
D03*
X82677Y53150D02*
D03*
X242609Y46763D02*
D03*
X82677Y37402D02*
D03*
X124016Y143701D02*
D03*
Y159449D02*
D03*
D30*
X122047Y96457D02*
D03*
X11811Y125984D02*
D03*
X41339Y145669D02*
D03*
X263779Y49213D02*
D03*
X287402Y59055D02*
D03*
M02*
