G04*
G04 #@! TF.GenerationSoftware,Altium Limited,Altium Designer,20.2.6 (244)*
G04*
G04 Layer_Color=16711935*
%FSLAX25Y25*%
%MOIN*%
G70*
G04*
G04 #@! TF.SameCoordinates,EFAE668D-727F-4ECC-B3F7-511A600DF1C5*
G04*
G04*
G04 #@! TF.FilePolarity,Negative*
G04*
G01*
G75*
%ADD27R,0.06496X0.06496*%
%ADD28C,0.06496*%
%ADD29C,0.05591*%
%ADD30C,0.04921*%
%ADD49C,0.06272*%
D27*
X271654Y179134D02*
D03*
Y8858D02*
D03*
D28*
X261653Y179134D02*
D03*
X251654D02*
D03*
X241653D02*
D03*
X231653D02*
D03*
X221654D02*
D03*
X211653D02*
D03*
X201654D02*
D03*
X191654D02*
D03*
X181653D02*
D03*
X171653D02*
D03*
X261653Y8858D02*
D03*
X251654D02*
D03*
X241653D02*
D03*
X231653D02*
D03*
X221654D02*
D03*
X211653D02*
D03*
X201654D02*
D03*
X191654D02*
D03*
X181653D02*
D03*
X171653D02*
D03*
D29*
X184055Y165354D02*
D03*
X185039Y141795D02*
D03*
X213583Y149606D02*
D03*
X137795Y161417D02*
D03*
X167323Y157480D02*
D03*
X166339Y169291D02*
D03*
X235236Y32480D02*
D03*
X84646Y25591D02*
D03*
X102362Y11811D02*
D03*
X112205Y25591D02*
D03*
X38386Y41339D02*
D03*
Y31496D02*
D03*
X92520Y51181D02*
D03*
Y31496D02*
D03*
X108268Y171260D02*
D03*
X82677Y53150D02*
D03*
X242609Y46763D02*
D03*
X82677Y37402D02*
D03*
X124016Y143701D02*
D03*
Y159449D02*
D03*
D30*
X122047Y96457D02*
D03*
X11811Y125984D02*
D03*
X41339Y145669D02*
D03*
X263779Y49213D02*
D03*
X287402Y59055D02*
D03*
D49*
X252284Y121024D02*
D03*
X242284D02*
D03*
X232283D02*
D03*
X222284D02*
D03*
X212283D02*
D03*
X202284D02*
D03*
X192283D02*
D03*
X182283D02*
D03*
X172283D02*
D03*
X162284D02*
D03*
X152284D02*
D03*
X142283D02*
D03*
Y61024D02*
D03*
X152284D02*
D03*
X162284D02*
D03*
X172283D02*
D03*
X182283D02*
D03*
X192283D02*
D03*
X202284D02*
D03*
X212283D02*
D03*
X222284D02*
D03*
X232283D02*
D03*
X242284D02*
D03*
X262283Y121024D02*
D03*
X252284Y61024D02*
D03*
X262283D02*
D03*
X272284Y121024D02*
D03*
Y61024D02*
D03*
X132283Y121024D02*
D03*
Y61024D02*
D03*
X122283Y121024D02*
D03*
X112284D02*
D03*
X102284D02*
D03*
X92283D02*
D03*
X82284D02*
D03*
X72284D02*
D03*
X62283D02*
D03*
X52284D02*
D03*
X42283D02*
D03*
Y61024D02*
D03*
X52284D02*
D03*
X62283D02*
D03*
X72284D02*
D03*
X82284D02*
D03*
X92283D02*
D03*
X102284D02*
D03*
X112284D02*
D03*
X122283D02*
D03*
M02*
