G04*
G04 #@! TF.GenerationSoftware,Altium Limited,Altium Designer,20.2.6 (244)*
G04*
G04 Layer_Color=65535*
%FSLAX25Y25*%
%MOIN*%
G70*
G04*
G04 #@! TF.SameCoordinates,EFAE668D-727F-4ECC-B3F7-511A600DF1C5*
G04*
G04*
G04 #@! TF.FilePolarity,Positive*
G04*
G01*
G75*
%ADD10C,0.00394*%
%ADD11C,0.00500*%
%ADD12C,0.01200*%
%ADD13C,0.00984*%
%ADD14C,0.01000*%
%ADD15C,0.00787*%
G36*
X149982Y95529D02*
X150112Y95509D01*
X150263Y95489D01*
X150444Y95449D01*
X150634Y95399D01*
X150835Y95328D01*
X150845D01*
X150855Y95318D01*
X150885Y95308D01*
X150926Y95288D01*
X151016Y95248D01*
X151136Y95198D01*
X151257Y95127D01*
X151387Y95057D01*
X151498Y94967D01*
X151598Y94887D01*
X151608Y94876D01*
X151628Y94836D01*
X151648Y94786D01*
X151658Y94726D01*
Y94716D01*
X151648Y94686D01*
X151638Y94646D01*
X151608Y94595D01*
X151598Y94585D01*
X151568Y94565D01*
X151528Y94545D01*
X151478Y94535D01*
X151468D01*
X151427Y94545D01*
X151377Y94565D01*
X151317Y94616D01*
X151307Y94626D01*
X151287Y94636D01*
X151247Y94666D01*
X151187Y94696D01*
X151126Y94736D01*
X151046Y94786D01*
X150956Y94836D01*
X150845Y94876D01*
X150624Y94977D01*
X150363Y95067D01*
X150082Y95127D01*
X149932Y95138D01*
X149781Y95148D01*
X149711D01*
X149671Y95138D01*
X149610D01*
X149540Y95127D01*
X149379Y95097D01*
X149199Y95047D01*
X149008Y94967D01*
X148817Y94867D01*
X148636Y94726D01*
X148626Y94716D01*
X148616Y94706D01*
X148566Y94646D01*
X148486Y94565D01*
X148406Y94445D01*
X148325Y94304D01*
X148245Y94144D01*
X148195Y93963D01*
X148175Y93872D01*
Y93772D01*
Y93752D01*
Y93712D01*
X148185Y93642D01*
X148205Y93551D01*
X148235Y93451D01*
X148275Y93340D01*
X148325Y93210D01*
X148406Y93089D01*
X148416Y93069D01*
X148446Y93029D01*
X148496Y92969D01*
X148576Y92899D01*
X148667Y92808D01*
X148777Y92718D01*
X148907Y92638D01*
X149058Y92557D01*
X149078Y92547D01*
X149128Y92527D01*
X149219Y92497D01*
X149319Y92457D01*
X149450Y92417D01*
X149600Y92387D01*
X149751Y92366D01*
X149911Y92356D01*
X149932D01*
X149992Y92347D01*
X150052Y92336D01*
X150112Y92306D01*
X150122Y92296D01*
X150142Y92266D01*
X150162Y92226D01*
X150173Y92166D01*
Y92146D01*
X150162Y92115D01*
X150153Y92065D01*
X150122Y92025D01*
X150112Y92015D01*
X150072Y91995D01*
X150022Y91975D01*
X149942Y91965D01*
X149560D01*
X149520Y91955D01*
X149420Y91945D01*
X149299Y91925D01*
X149159Y91885D01*
X149018Y91824D01*
X148867Y91754D01*
X148737Y91644D01*
X148717Y91634D01*
X148677Y91583D01*
X148626Y91523D01*
X148556Y91433D01*
X148496Y91322D01*
X148436Y91192D01*
X148396Y91051D01*
X148385Y90901D01*
Y90891D01*
Y90881D01*
X148396Y90830D01*
X148406Y90740D01*
X148426Y90640D01*
X148476Y90519D01*
X148536Y90389D01*
X148626Y90258D01*
X148747Y90128D01*
X148767Y90118D01*
X148807Y90077D01*
X148887Y90017D01*
X148998Y89957D01*
X149138Y89897D01*
X149299Y89837D01*
X149480Y89796D01*
X149691Y89786D01*
X149761D01*
X149831Y89796D01*
X149932Y89806D01*
X150052Y89826D01*
X150173Y89846D01*
X150303Y89887D01*
X150434Y89937D01*
X150444Y89947D01*
X150494Y89967D01*
X150554Y89997D01*
X150634Y90037D01*
X150715Y90087D01*
X150815Y90158D01*
X150906Y90228D01*
X150986Y90318D01*
X150996Y90328D01*
X151026Y90369D01*
X151066Y90399D01*
X151096Y90429D01*
X151106D01*
X151126Y90439D01*
X151187Y90449D01*
X151197D01*
X151237Y90439D01*
X151277Y90429D01*
X151327Y90399D01*
X151337Y90389D01*
X151347Y90359D01*
X151367Y90318D01*
X151377Y90268D01*
Y90258D01*
X151367Y90238D01*
X151357Y90198D01*
X151327Y90138D01*
X151277Y90077D01*
X151207Y89997D01*
X151106Y89897D01*
X150976Y89796D01*
X150966D01*
X150946Y89776D01*
X150916Y89756D01*
X150875Y89736D01*
X150825Y89706D01*
X150755Y89666D01*
X150604Y89596D01*
X150414Y89525D01*
X150193Y89455D01*
X149952Y89415D01*
X149691Y89395D01*
X149620D01*
X149570Y89405D01*
X149500D01*
X149430Y89415D01*
X149259Y89455D01*
X149068Y89505D01*
X148867Y89586D01*
X148667Y89696D01*
X148566Y89766D01*
X148476Y89846D01*
X148466D01*
X148456Y89867D01*
X148396Y89927D01*
X148325Y90017D01*
X148235Y90148D01*
X148144Y90298D01*
X148064Y90479D01*
X148014Y90690D01*
X148004Y90800D01*
X147994Y90911D01*
Y90931D01*
Y90981D01*
X148004Y91051D01*
X148024Y91152D01*
X148054Y91262D01*
X148094Y91393D01*
X148144Y91523D01*
X148225Y91654D01*
X148235Y91674D01*
X148265Y91714D01*
X148325Y91774D01*
X148396Y91855D01*
X148486Y91945D01*
X148606Y92035D01*
X148737Y92136D01*
X148898Y92216D01*
X148887D01*
X148877Y92226D01*
X148847Y92236D01*
X148807Y92256D01*
X148707Y92316D01*
X148586Y92387D01*
X148456Y92487D01*
X148325Y92598D01*
X148195Y92728D01*
X148074Y92879D01*
X148064Y92899D01*
X148024Y92949D01*
X147984Y93039D01*
X147924Y93150D01*
X147873Y93280D01*
X147823Y93431D01*
X147793Y93591D01*
X147783Y93762D01*
Y93772D01*
Y93792D01*
Y93832D01*
X147793Y93883D01*
X147803Y93943D01*
X147813Y94013D01*
X147853Y94184D01*
X147924Y94375D01*
X147964Y94475D01*
X148024Y94585D01*
X148094Y94686D01*
X148165Y94796D01*
X148255Y94907D01*
X148355Y95007D01*
X148365Y95017D01*
X148385Y95027D01*
X148416Y95057D01*
X148456Y95087D01*
X148516Y95127D01*
X148586Y95178D01*
X148656Y95228D01*
X148747Y95268D01*
X148847Y95318D01*
X148958Y95368D01*
X149199Y95459D01*
X149480Y95519D01*
X149630Y95529D01*
X149791Y95539D01*
X149881D01*
X149982Y95529D01*
D02*
G37*
G36*
X144129Y95539D02*
X144189Y95529D01*
X144259Y95509D01*
X144339Y95469D01*
X144420Y95429D01*
X144490Y95368D01*
X144500Y95359D01*
X144520Y95338D01*
X144550Y95298D01*
X144580Y95248D01*
X144610Y95178D01*
X144641Y95108D01*
X144661Y95017D01*
X144671Y94927D01*
Y94917D01*
Y94876D01*
X144661Y94826D01*
X144650Y94766D01*
X144631Y94696D01*
X144590Y94626D01*
X144550Y94545D01*
X144490Y94475D01*
X144480Y94465D01*
X144460Y94445D01*
X144420Y94415D01*
X144359Y94375D01*
X144299Y94344D01*
X144219Y94314D01*
X144129Y94294D01*
X144038Y94284D01*
X143837D01*
X143787Y94294D01*
X143727Y94304D01*
X143657Y94334D01*
X143576Y94365D01*
X143496Y94415D01*
X143426Y94475D01*
X143416Y94485D01*
X143396Y94505D01*
X143365Y94545D01*
X143325Y94595D01*
X143295Y94666D01*
X143265Y94736D01*
X143245Y94826D01*
X143235Y94917D01*
Y94927D01*
Y94957D01*
X143245Y95007D01*
X143255Y95077D01*
X143285Y95148D01*
X143315Y95218D01*
X143365Y95298D01*
X143426Y95368D01*
X143436Y95379D01*
X143456Y95399D01*
X143496Y95429D01*
X143556Y95459D01*
X143616Y95489D01*
X143697Y95519D01*
X143787Y95539D01*
X143877Y95549D01*
X144078D01*
X144129Y95539D01*
D02*
G37*
G36*
X137934Y95529D02*
X138034Y95519D01*
X138155Y95499D01*
X138305Y95459D01*
X138466Y95409D01*
X138627Y95328D01*
X138797Y95228D01*
X138817Y95218D01*
X138867Y95168D01*
X138948Y95097D01*
X139048Y94987D01*
X139159Y94857D01*
X139279Y94686D01*
X139390Y94495D01*
X139490Y94264D01*
Y94254D01*
X139500Y94224D01*
X139520Y94184D01*
X139540Y94124D01*
X139560Y94043D01*
X139590Y93953D01*
X139620Y93853D01*
X139651Y93742D01*
X139681Y93612D01*
X139711Y93471D01*
X139761Y93170D01*
X139791Y92838D01*
X139801Y92477D01*
Y92467D01*
Y92447D01*
Y92407D01*
Y92356D01*
X139791Y92286D01*
X139781Y92206D01*
X139761Y92025D01*
X139731Y91814D01*
X139681Y91583D01*
X139611Y91343D01*
X139510Y91101D01*
Y91092D01*
X139500Y91081D01*
X139470Y91021D01*
X139420Y90931D01*
X139349Y90810D01*
X139269Y90670D01*
X139169Y90529D01*
X139048Y90379D01*
X138918Y90238D01*
X138898Y90218D01*
X138847Y90178D01*
X138767Y90108D01*
X138667Y90027D01*
X138536Y89927D01*
X138386Y89826D01*
X138225Y89726D01*
X138044Y89636D01*
X138034D01*
X138024Y89626D01*
X137994Y89616D01*
X137954Y89596D01*
X137854Y89555D01*
X137723Y89515D01*
X137562Y89475D01*
X137382Y89435D01*
X137181Y89405D01*
X136970Y89395D01*
X136900D01*
X136829Y89405D01*
X136739Y89415D01*
X136639Y89435D01*
X136528Y89465D01*
X136418Y89505D01*
X136317Y89555D01*
X136307D01*
X136297Y89565D01*
X136257Y89605D01*
X136217Y89666D01*
X136197Y89706D01*
Y89746D01*
Y89756D01*
X136207Y89796D01*
X136217Y89846D01*
X136257Y89887D01*
X136267Y89897D01*
X136287Y89907D01*
X136337Y89927D01*
X136388Y89937D01*
X136398D01*
X136428Y89927D01*
X136468Y89917D01*
X136528Y89887D01*
X136538D01*
X136558Y89867D01*
X136599Y89856D01*
X136659Y89837D01*
X136729Y89816D01*
X136809Y89806D01*
X136900Y89786D01*
X137090D01*
X137151Y89796D01*
X137231Y89806D01*
X137331Y89826D01*
X137432Y89856D01*
X137552Y89887D01*
X137673Y89927D01*
X137803Y89977D01*
X137944Y90037D01*
X138084Y90118D01*
X138235Y90208D01*
X138375Y90308D01*
X138526Y90429D01*
X138667Y90569D01*
X138677Y90579D01*
X138697Y90610D01*
X138737Y90650D01*
X138787Y90710D01*
X138837Y90780D01*
X138898Y90871D01*
X138968Y90981D01*
X139038Y91092D01*
X139109Y91222D01*
X139179Y91373D01*
X139239Y91523D01*
X139289Y91684D01*
X139339Y91865D01*
X139380Y92045D01*
X139400Y92236D01*
X139410Y92437D01*
Y92447D01*
Y92467D01*
Y92507D01*
Y92557D01*
X139400Y92628D01*
Y92708D01*
Y92808D01*
X139390Y92929D01*
Y92919D01*
X139369Y92909D01*
X139349Y92879D01*
X139329Y92838D01*
X139249Y92748D01*
X139159Y92628D01*
X139038Y92497D01*
X138918Y92356D01*
X138777Y92236D01*
X138637Y92126D01*
X138617Y92115D01*
X138566Y92085D01*
X138486Y92045D01*
X138386Y91995D01*
X138265Y91945D01*
X138115Y91905D01*
X137954Y91875D01*
X137783Y91865D01*
X137723D01*
X137673Y91875D01*
X137623Y91885D01*
X137562Y91895D01*
X137402Y91925D01*
X137231Y91995D01*
X137050Y92085D01*
X136950Y92146D01*
X136860Y92216D01*
X136759Y92296D01*
X136669Y92387D01*
X136659Y92397D01*
X136649Y92407D01*
X136619Y92437D01*
X136588Y92477D01*
X136558Y92527D01*
X136508Y92587D01*
X136418Y92748D01*
X136327Y92929D01*
X136257Y93150D01*
X136197Y93401D01*
X136187Y93541D01*
X136177Y93682D01*
Y93692D01*
Y93712D01*
Y93752D01*
X136187Y93802D01*
Y93862D01*
X136197Y93933D01*
X136237Y94103D01*
X136287Y94304D01*
X136368Y94515D01*
X136478Y94746D01*
X136548Y94857D01*
X136629Y94967D01*
Y94977D01*
X136649Y94987D01*
X136679Y95017D01*
X136709Y95057D01*
X136809Y95148D01*
X136950Y95248D01*
X137121Y95359D01*
X137331Y95449D01*
X137452Y95489D01*
X137572Y95519D01*
X137713Y95529D01*
X137854Y95539D01*
X137904D01*
X137934Y95529D01*
D02*
G37*
G36*
X126649Y86789D02*
X126729Y86779D01*
X126830Y86769D01*
X126950Y86749D01*
X127070Y86719D01*
X127331Y86649D01*
X127462Y86588D01*
X127603Y86528D01*
X127733Y86458D01*
X127864Y86378D01*
X127994Y86277D01*
X128115Y86167D01*
Y86388D01*
Y86398D01*
Y86408D01*
X128125Y86468D01*
X128135Y86528D01*
X128175Y86588D01*
X128185Y86598D01*
X128215Y86619D01*
X128255Y86639D01*
X128315Y86649D01*
X128325D01*
X128366Y86639D01*
X128406Y86619D01*
X128456Y86588D01*
X128466Y86578D01*
X128476Y86538D01*
X128496Y86478D01*
X128506Y86388D01*
Y85303D01*
Y85293D01*
Y85283D01*
X128496Y85223D01*
X128486Y85163D01*
X128456Y85102D01*
X128446Y85092D01*
X128416Y85062D01*
X128376Y85042D01*
X128315Y85032D01*
X128305D01*
X128265Y85042D01*
X128225Y85052D01*
X128185Y85092D01*
X128175Y85102D01*
X128155Y85133D01*
X128125Y85193D01*
X128115Y85273D01*
Y85293D01*
X128105Y85343D01*
X128085Y85424D01*
X128054Y85534D01*
X127994Y85655D01*
X127914Y85785D01*
X127803Y85926D01*
X127663Y86056D01*
X127653D01*
X127643Y86066D01*
X127583Y86106D01*
X127482Y86167D01*
X127352Y86227D01*
X127181Y86297D01*
X126980Y86347D01*
X126739Y86388D01*
X126478Y86408D01*
X126408D01*
X126358Y86398D01*
X126297D01*
X126227Y86388D01*
X126057Y86357D01*
X125876Y86317D01*
X125675Y86257D01*
X125484Y86167D01*
X125313Y86046D01*
X125303D01*
X125293Y86026D01*
X125243Y85986D01*
X125173Y85906D01*
X125093Y85805D01*
X125022Y85675D01*
X124952Y85524D01*
X124902Y85353D01*
X124882Y85263D01*
Y85173D01*
Y85163D01*
Y85123D01*
X124892Y85062D01*
X124902Y84982D01*
X124922Y84902D01*
X124952Y84811D01*
X124992Y84711D01*
X125052Y84620D01*
X125063Y84610D01*
X125083Y84580D01*
X125123Y84540D01*
X125173Y84480D01*
X125243Y84420D01*
X125324Y84360D01*
X125424Y84299D01*
X125534Y84239D01*
X125544D01*
X125585Y84219D01*
X125645Y84199D01*
X125735Y84179D01*
X125866Y84149D01*
X126026Y84109D01*
X126117Y84088D01*
X126227Y84068D01*
X126338Y84038D01*
X126468Y84018D01*
X126478D01*
X126508Y84008D01*
X126558Y83998D01*
X126629Y83988D01*
X126709Y83968D01*
X126799Y83948D01*
X127010Y83898D01*
X127241Y83827D01*
X127482Y83747D01*
X127703Y83647D01*
X127793Y83586D01*
X127884Y83526D01*
X127904Y83506D01*
X127954Y83466D01*
X128014Y83386D01*
X128095Y83275D01*
X128175Y83145D01*
X128235Y82984D01*
X128285Y82793D01*
X128305Y82572D01*
Y82562D01*
Y82542D01*
Y82512D01*
X128295Y82472D01*
X128275Y82351D01*
X128245Y82211D01*
X128185Y82050D01*
X128095Y81870D01*
X128044Y81779D01*
X127974Y81689D01*
X127904Y81599D01*
X127813Y81518D01*
X127803Y81508D01*
X127793Y81498D01*
X127763Y81478D01*
X127723Y81448D01*
X127673Y81418D01*
X127613Y81378D01*
X127462Y81287D01*
X127281Y81207D01*
X127060Y81137D01*
X126799Y81086D01*
X126669Y81066D01*
X126438D01*
X126378Y81076D01*
X126307Y81086D01*
X126227Y81097D01*
X126137Y81107D01*
X126026Y81127D01*
X125805Y81197D01*
X125565Y81287D01*
X125444Y81348D01*
X125324Y81418D01*
X125203Y81498D01*
X125093Y81589D01*
Y81458D01*
Y81448D01*
Y81438D01*
X125083Y81378D01*
X125073Y81317D01*
X125042Y81257D01*
X125032Y81247D01*
X125002Y81217D01*
X124962Y81197D01*
X124902Y81187D01*
X124882D01*
X124852Y81197D01*
X124802Y81217D01*
X124761Y81257D01*
X124751Y81267D01*
X124731Y81307D01*
X124711Y81368D01*
X124701Y81458D01*
Y82452D01*
Y82462D01*
Y82472D01*
X124711Y82532D01*
X124721Y82592D01*
X124761Y82653D01*
X124771Y82663D01*
X124802Y82683D01*
X124842Y82703D01*
X124902Y82713D01*
X124912D01*
X124952Y82703D01*
X124992Y82693D01*
X125042Y82663D01*
X125052Y82653D01*
X125063Y82613D01*
X125083Y82562D01*
X125093Y82482D01*
Y82462D01*
X125103Y82412D01*
X125123Y82341D01*
X125153Y82251D01*
X125203Y82141D01*
X125283Y82020D01*
X125374Y81900D01*
X125504Y81779D01*
X125524Y81769D01*
X125575Y81729D01*
X125655Y81679D01*
X125775Y81619D01*
X125916Y81558D01*
X126087Y81508D01*
X126277Y81468D01*
X126498Y81458D01*
X126609D01*
X126729Y81478D01*
X126870Y81498D01*
X127040Y81538D01*
X127211Y81599D01*
X127382Y81679D01*
X127532Y81789D01*
X127552Y81799D01*
X127593Y81849D01*
X127653Y81920D01*
X127723Y82010D01*
X127793Y82131D01*
X127854Y82261D01*
X127894Y82412D01*
X127914Y82582D01*
Y82592D01*
Y82623D01*
X127904Y82663D01*
Y82723D01*
X127874Y82854D01*
X127813Y83004D01*
X127803Y83014D01*
X127793Y83034D01*
X127773Y83074D01*
X127733Y83114D01*
X127653Y83215D01*
X127532Y83315D01*
X127522D01*
X127502Y83335D01*
X127462Y83355D01*
X127412Y83376D01*
X127352Y83406D01*
X127281Y83446D01*
X127131Y83506D01*
X127121D01*
X127091Y83516D01*
X127030Y83536D01*
X126950Y83546D01*
X126860Y83566D01*
X126729Y83596D01*
X126589Y83617D01*
X126418Y83647D01*
X126408D01*
X126388Y83657D01*
X126338D01*
X126287Y83667D01*
X126227Y83687D01*
X126147Y83697D01*
X125986Y83737D01*
X125795Y83777D01*
X125615Y83817D01*
X125454Y83868D01*
X125374Y83898D01*
X125313Y83918D01*
X125293Y83928D01*
X125243Y83948D01*
X125173Y83988D01*
X125083Y84048D01*
X124982Y84118D01*
X124882Y84209D01*
X124791Y84309D01*
X124701Y84420D01*
X124691Y84430D01*
X124671Y84480D01*
X124631Y84540D01*
X124591Y84631D01*
X124560Y84751D01*
X124520Y84882D01*
X124500Y85022D01*
X124490Y85183D01*
Y85193D01*
Y85213D01*
Y85243D01*
X124500Y85293D01*
X124510Y85353D01*
X124520Y85424D01*
X124560Y85574D01*
X124621Y85755D01*
X124721Y85946D01*
X124781Y86046D01*
X124852Y86147D01*
X124932Y86237D01*
X125032Y86327D01*
X125042D01*
X125052Y86347D01*
X125093Y86367D01*
X125133Y86398D01*
X125183Y86438D01*
X125253Y86478D01*
X125324Y86518D01*
X125414Y86558D01*
X125514Y86608D01*
X125625Y86649D01*
X125745Y86689D01*
X125866Y86729D01*
X126157Y86779D01*
X126318Y86789D01*
X126478Y86799D01*
X126578D01*
X126649Y86789D01*
D02*
G37*
G36*
X146006Y86639D02*
X146066Y86629D01*
X146126Y86598D01*
X146136Y86588D01*
X146157Y86558D01*
X146177Y86518D01*
X146187Y86458D01*
Y86438D01*
X146177Y86408D01*
X146157Y86357D01*
X146126Y86317D01*
X146116Y86307D01*
X146076Y86287D01*
X146016Y86267D01*
X145926Y86257D01*
X145394D01*
Y81578D01*
X145946D01*
X146006Y81568D01*
X146066Y81558D01*
X146126Y81528D01*
X146136Y81518D01*
X146157Y81488D01*
X146177Y81448D01*
X146187Y81388D01*
Y81368D01*
X146177Y81337D01*
X146157Y81287D01*
X146126Y81247D01*
X146116Y81237D01*
X146076Y81217D01*
X146016Y81197D01*
X145926Y81187D01*
X141789D01*
Y82532D01*
Y82542D01*
Y82552D01*
X141799Y82613D01*
X141809Y82673D01*
X141849Y82733D01*
X141859Y82743D01*
X141890Y82763D01*
X141930Y82783D01*
X141990Y82793D01*
X142000D01*
X142040Y82783D01*
X142090Y82763D01*
X142130Y82733D01*
X142141Y82723D01*
X142151Y82683D01*
X142171Y82623D01*
X142181Y82532D01*
Y81578D01*
X145002D01*
Y83617D01*
X143586D01*
Y83175D01*
Y83165D01*
Y83155D01*
X143576Y83104D01*
X143566Y83034D01*
X143536Y82984D01*
X143526Y82974D01*
X143496Y82944D01*
X143456Y82924D01*
X143396Y82914D01*
X143386D01*
X143345Y82924D01*
X143305Y82944D01*
X143255Y82984D01*
X143245Y82994D01*
X143225Y83034D01*
X143205Y83095D01*
X143195Y83175D01*
Y84450D01*
Y84460D01*
Y84470D01*
X143205Y84530D01*
X143215Y84590D01*
X143255Y84651D01*
X143265Y84661D01*
X143295Y84681D01*
X143335Y84701D01*
X143396Y84711D01*
X143406D01*
X143446Y84701D01*
X143486Y84681D01*
X143536Y84651D01*
X143546Y84641D01*
X143556Y84601D01*
X143576Y84540D01*
X143586Y84450D01*
Y84008D01*
X145002D01*
Y86257D01*
X141980D01*
Y85102D01*
Y85092D01*
Y85082D01*
X141970Y85032D01*
X141960Y84962D01*
X141930Y84912D01*
X141920Y84902D01*
X141890Y84872D01*
X141849Y84851D01*
X141789Y84841D01*
X141769D01*
X141739Y84851D01*
X141689Y84872D01*
X141649Y84912D01*
X141639Y84922D01*
X141619Y84962D01*
X141598Y85022D01*
X141588Y85102D01*
Y86649D01*
X145946D01*
X146006Y86639D01*
D02*
G37*
G36*
X140263D02*
X140323Y86629D01*
X140384Y86598D01*
X140394Y86588D01*
X140414Y86558D01*
X140434Y86518D01*
X140444Y86458D01*
Y86438D01*
X140434Y86408D01*
X140414Y86357D01*
X140384Y86317D01*
X140374Y86307D01*
X140333Y86287D01*
X140273Y86267D01*
X140183Y86257D01*
X139651D01*
Y81578D01*
X140203D01*
X140263Y81568D01*
X140323Y81558D01*
X140384Y81528D01*
X140394Y81518D01*
X140414Y81488D01*
X140434Y81448D01*
X140444Y81388D01*
Y81368D01*
X140434Y81337D01*
X140414Y81287D01*
X140384Y81247D01*
X140374Y81237D01*
X140333Y81217D01*
X140273Y81197D01*
X140183Y81187D01*
X136046D01*
Y82532D01*
Y82542D01*
Y82552D01*
X136056Y82613D01*
X136066Y82673D01*
X136107Y82733D01*
X136117Y82743D01*
X136147Y82763D01*
X136187Y82783D01*
X136247Y82793D01*
X136257D01*
X136297Y82783D01*
X136347Y82763D01*
X136388Y82733D01*
X136398Y82723D01*
X136408Y82683D01*
X136428Y82623D01*
X136438Y82532D01*
Y81578D01*
X139259D01*
Y83617D01*
X137843D01*
Y83175D01*
Y83165D01*
Y83155D01*
X137833Y83104D01*
X137823Y83034D01*
X137793Y82984D01*
X137783Y82974D01*
X137753Y82944D01*
X137713Y82924D01*
X137653Y82914D01*
X137643D01*
X137602Y82924D01*
X137562Y82944D01*
X137512Y82984D01*
X137502Y82994D01*
X137482Y83034D01*
X137462Y83095D01*
X137452Y83175D01*
Y84450D01*
Y84460D01*
Y84470D01*
X137462Y84530D01*
X137472Y84590D01*
X137512Y84651D01*
X137522Y84661D01*
X137552Y84681D01*
X137592Y84701D01*
X137653Y84711D01*
X137663D01*
X137703Y84701D01*
X137743Y84681D01*
X137793Y84651D01*
X137803Y84641D01*
X137813Y84601D01*
X137833Y84540D01*
X137843Y84450D01*
Y84008D01*
X139259D01*
Y86257D01*
X136237D01*
Y85102D01*
Y85092D01*
Y85082D01*
X136227Y85032D01*
X136217Y84962D01*
X136187Y84912D01*
X136177Y84902D01*
X136147Y84872D01*
X136107Y84851D01*
X136046Y84841D01*
X136026D01*
X135996Y84851D01*
X135946Y84872D01*
X135906Y84912D01*
X135896Y84922D01*
X135876Y84962D01*
X135855Y85022D01*
X135845Y85102D01*
Y86649D01*
X140203D01*
X140263Y86639D01*
D02*
G37*
G36*
X134520D02*
X134590Y86629D01*
X134651Y86598D01*
X134661Y86588D01*
X134681Y86558D01*
X134701Y86518D01*
X134711Y86458D01*
Y86438D01*
X134701Y86408D01*
X134681Y86357D01*
X134651Y86317D01*
X134641Y86307D01*
X134600Y86287D01*
X134540Y86267D01*
X134440Y86257D01*
X134119D01*
Y81578D01*
X134661D01*
X134721Y81568D01*
X134791Y81558D01*
X134852Y81528D01*
X134862Y81518D01*
X134882Y81488D01*
X134902Y81448D01*
X134912Y81388D01*
Y81368D01*
X134902Y81337D01*
X134882Y81287D01*
X134852Y81247D01*
X134842Y81237D01*
X134801Y81217D01*
X134741Y81197D01*
X134641Y81187D01*
X133617D01*
X130705Y86086D01*
Y81578D01*
X131448D01*
X131508Y81568D01*
X131579Y81558D01*
X131639Y81528D01*
X131649Y81518D01*
X131669Y81488D01*
X131689Y81448D01*
X131699Y81388D01*
Y81368D01*
X131689Y81337D01*
X131669Y81287D01*
X131639Y81247D01*
X131629Y81237D01*
X131588Y81217D01*
X131528Y81197D01*
X131428Y81187D01*
X129972D01*
X129912Y81197D01*
X129852Y81207D01*
X129791Y81247D01*
X129781Y81257D01*
X129751Y81287D01*
X129731Y81327D01*
X129721Y81388D01*
Y81398D01*
X129731Y81438D01*
X129751Y81488D01*
X129791Y81528D01*
X129801Y81538D01*
X129842Y81548D01*
X129902Y81568D01*
X129992Y81578D01*
X130313D01*
Y86649D01*
X130825D01*
X133727Y81759D01*
Y86257D01*
X132984D01*
X132924Y86267D01*
X132864Y86277D01*
X132803Y86317D01*
X132793Y86327D01*
X132763Y86357D01*
X132743Y86398D01*
X132733Y86458D01*
Y86468D01*
X132743Y86508D01*
X132763Y86548D01*
X132803Y86598D01*
X132813Y86608D01*
X132853Y86619D01*
X132914Y86639D01*
X133004Y86649D01*
X134460D01*
X134520Y86639D01*
D02*
G37*
G36*
X150765D02*
X150825Y86629D01*
X150885Y86598D01*
X150895Y86588D01*
X150916Y86558D01*
X150936Y86518D01*
X150946Y86458D01*
Y86438D01*
X150936Y86408D01*
X150916Y86357D01*
X150885Y86317D01*
X150875Y86307D01*
X150835Y86287D01*
X150775Y86267D01*
X150685Y86257D01*
X149661D01*
Y81578D01*
X151267D01*
Y82934D01*
Y82944D01*
Y82954D01*
X151277Y83014D01*
X151287Y83084D01*
X151327Y83145D01*
X151337Y83155D01*
X151367Y83175D01*
X151408Y83195D01*
X151468Y83205D01*
X151478D01*
X151518Y83195D01*
X151558Y83175D01*
X151608Y83145D01*
X151618Y83135D01*
X151628Y83095D01*
X151648Y83034D01*
X151658Y82934D01*
Y81187D01*
X147271D01*
Y82934D01*
Y82944D01*
Y82954D01*
X147281Y83014D01*
X147291Y83084D01*
X147331Y83145D01*
X147341Y83155D01*
X147371Y83175D01*
X147412Y83195D01*
X147472Y83205D01*
X147482D01*
X147522Y83195D01*
X147572Y83175D01*
X147612Y83145D01*
X147622Y83135D01*
X147632Y83095D01*
X147652Y83034D01*
X147663Y82934D01*
Y81578D01*
X149269D01*
Y86257D01*
X148225D01*
X148175Y86267D01*
X148104Y86277D01*
X148054Y86317D01*
X148044Y86327D01*
X148014Y86357D01*
X147994Y86398D01*
X147984Y86458D01*
Y86468D01*
X147994Y86508D01*
X148014Y86548D01*
X148054Y86598D01*
X148064Y86608D01*
X148104Y86619D01*
X148165Y86639D01*
X148245Y86649D01*
X150705D01*
X150765Y86639D01*
D02*
G37*
G36*
X122040D02*
X122111Y86629D01*
X122171Y86598D01*
X122181Y86588D01*
X122201Y86558D01*
X122221Y86518D01*
X122231Y86458D01*
Y86438D01*
X122221Y86408D01*
X122201Y86357D01*
X122171Y86317D01*
X122161Y86307D01*
X122121Y86287D01*
X122061Y86267D01*
X121960Y86257D01*
X120946D01*
Y84189D01*
X122673Y81578D01*
X122914D01*
X122974Y81568D01*
X123045Y81558D01*
X123105Y81528D01*
X123115Y81518D01*
X123135Y81488D01*
X123155Y81448D01*
X123165Y81388D01*
Y81368D01*
X123155Y81337D01*
X123135Y81287D01*
X123105Y81247D01*
X123095Y81237D01*
X123055Y81217D01*
X122994Y81197D01*
X122894Y81187D01*
X121809D01*
X121749Y81197D01*
X121689Y81207D01*
X121629Y81247D01*
X121619Y81257D01*
X121589Y81287D01*
X121569Y81327D01*
X121558Y81388D01*
Y81398D01*
X121569Y81438D01*
X121589Y81488D01*
X121629Y81528D01*
X121639Y81538D01*
X121679Y81548D01*
X121739Y81568D01*
X121830Y81578D01*
X122211D01*
X120755Y83787D01*
X119320Y81578D01*
X119721D01*
X119781Y81568D01*
X119852Y81558D01*
X119912Y81528D01*
X119922Y81518D01*
X119942Y81488D01*
X119962Y81448D01*
X119972Y81388D01*
Y81368D01*
X119962Y81337D01*
X119942Y81287D01*
X119912Y81247D01*
X119902Y81237D01*
X119862Y81217D01*
X119801Y81197D01*
X119701Y81187D01*
X118617D01*
X118557Y81197D01*
X118496Y81207D01*
X118436Y81247D01*
X118426Y81257D01*
X118396Y81287D01*
X118376Y81327D01*
X118366Y81388D01*
Y81398D01*
X118376Y81438D01*
X118396Y81488D01*
X118436Y81528D01*
X118446Y81538D01*
X118486Y81548D01*
X118547Y81568D01*
X118637Y81578D01*
X118858D01*
X120554Y84189D01*
Y86257D01*
X119520D01*
X119460Y86267D01*
X119400Y86277D01*
X119340Y86317D01*
X119330Y86327D01*
X119299Y86357D01*
X119280Y86398D01*
X119269Y86458D01*
Y86468D01*
X119280Y86508D01*
X119299Y86548D01*
X119340Y86598D01*
X119350Y86608D01*
X119390Y86619D01*
X119450Y86639D01*
X119541Y86649D01*
X121980D01*
X122040Y86639D01*
D02*
G37*
%LPC*%
G36*
X137843Y95148D02*
X137793D01*
X137753Y95138D01*
X137663Y95127D01*
X137532Y95097D01*
X137392Y95047D01*
X137241Y94977D01*
X137090Y94876D01*
X136950Y94746D01*
X136930Y94726D01*
X136890Y94676D01*
X136829Y94585D01*
X136759Y94455D01*
X136689Y94304D01*
X136629Y94124D01*
X136588Y93913D01*
X136578Y93682D01*
Y93672D01*
Y93652D01*
Y93621D01*
Y93581D01*
X136599Y93461D01*
X136619Y93320D01*
X136669Y93160D01*
X136729Y92989D01*
X136819Y92818D01*
X136950Y92658D01*
X136970Y92638D01*
X137010Y92598D01*
X137090Y92527D01*
X137191Y92457D01*
X137321Y92387D01*
X137462Y92316D01*
X137623Y92276D01*
X137793Y92256D01*
X137813D01*
X137874Y92266D01*
X137954Y92276D01*
X138074Y92306D01*
X138205Y92347D01*
X138356Y92417D01*
X138506Y92517D01*
X138667Y92648D01*
X138677Y92658D01*
X138717Y92698D01*
X138777Y92768D01*
X138847Y92858D01*
X138948Y92989D01*
X139048Y93150D01*
X139169Y93340D01*
X139299Y93571D01*
Y93581D01*
X139289Y93612D01*
X139279Y93652D01*
X139269Y93712D01*
X139249Y93782D01*
X139219Y93862D01*
X139159Y94043D01*
X139078Y94244D01*
X138988Y94445D01*
X138867Y94636D01*
X138807Y94726D01*
X138737Y94796D01*
X138717Y94816D01*
X138667Y94857D01*
X138586Y94907D01*
X138486Y94977D01*
X138356Y95037D01*
X138195Y95097D01*
X138024Y95138D01*
X137843Y95148D01*
D02*
G37*
%LPD*%
D10*
X188189Y135827D02*
D03*
X237402Y53150D02*
D03*
D11*
X98283Y101024D02*
X97576Y100731D01*
X97284Y100024D01*
Y82024D02*
X97576Y81317D01*
X98283Y81024D01*
X111284D02*
X111991Y81317D01*
X112284Y82024D01*
Y100024D02*
X111991Y100731D01*
X111284Y101024D01*
X272284Y79774D02*
X272650Y78890D01*
X273534Y78524D01*
Y83524D02*
X272650Y83157D01*
X272284Y82274D01*
X273534Y103524D02*
X272650Y103157D01*
X272284Y102274D01*
Y99774D02*
X272650Y98890D01*
X273534Y98524D01*
X183283Y113524D02*
X182576Y113231D01*
X182283Y112524D01*
Y102024D02*
X182576Y101316D01*
X183283Y101024D01*
X193783D02*
X194491Y101316D01*
X194783Y102024D01*
Y112524D02*
X194491Y113231D01*
X193783Y113524D01*
X214784Y95024D02*
X214491Y95731D01*
X213784Y96024D01*
X205784D02*
X205076Y95731D01*
X204784Y95024D01*
Y87024D02*
X205076Y86317D01*
X205784Y86024D01*
X213784D02*
X214491Y86317D01*
X214784Y87024D01*
X264412Y79081D02*
X265453Y78524D01*
Y103524D02*
X264412Y102967D01*
X98283Y101024D02*
X111284D01*
X97284Y82024D02*
Y100024D01*
X98283Y81024D02*
X111284D01*
X112284Y82024D02*
Y100024D01*
X242284Y103524D02*
X252284D01*
X202284D02*
X242284D01*
X202284D02*
Y113524D01*
X242284D01*
X252284D01*
Y103524D02*
Y113524D01*
X242284Y103524D02*
Y113524D01*
X257283Y91024D02*
X262283D01*
X257283Y88524D02*
X262283D01*
X257283Y86024D02*
X262283D01*
X257283Y93524D02*
X262283D01*
X257283Y96024D02*
X262283D01*
X257283Y83524D02*
X262283D01*
X257283Y78524D02*
Y83524D01*
Y78524D02*
X262283D01*
X257283Y98524D02*
X262283D01*
X257283D02*
Y103524D01*
X262283D01*
X274783Y71024D02*
Y76024D01*
X269783Y71024D02*
X274783D01*
X269783D02*
Y76024D01*
X274783Y106024D02*
Y111024D01*
X269783D02*
X274783D01*
X269783Y106024D02*
Y111024D01*
X273534Y78524D02*
X279784D01*
X272284Y79774D02*
Y82274D01*
X273534Y83524D02*
X279784D01*
X273534Y103524D02*
X279784D01*
X272284Y99774D02*
Y102274D01*
X273534Y98524D02*
X279784D01*
Y78524D02*
Y83524D01*
Y98524D02*
Y103524D01*
X183283Y113524D02*
X184783D01*
X182283Y111024D02*
Y112524D01*
Y108524D02*
Y111024D01*
Y106024D02*
Y108524D01*
Y103524D02*
Y106024D01*
Y102024D02*
Y103524D01*
X183283Y101024D02*
X184783D01*
X187284D01*
X189784D01*
X192283D01*
X193783D01*
X194783Y102024D02*
Y103524D01*
Y106024D01*
Y108524D01*
Y111024D01*
Y112524D01*
X192283Y113524D02*
X193783D01*
X189784D02*
X192283D01*
X187284D02*
X189784D01*
X184783D02*
X187284D01*
X214784Y87024D02*
Y95024D01*
X205784Y96024D02*
X213784D01*
X204784Y87024D02*
Y95024D01*
X205784Y86024D02*
X213784D01*
X181034Y106024D02*
X182283D01*
X181034Y108524D02*
X182283D01*
X181034Y111024D02*
X182283D01*
X181034Y103524D02*
X182283D01*
X184783Y99774D02*
Y101024D01*
X187284Y99774D02*
Y101024D01*
X189784Y99774D02*
Y101024D01*
X192283Y99774D02*
Y101024D01*
X194783Y103524D02*
X196034D01*
X194783Y106024D02*
X196034D01*
X194783Y108524D02*
X196034D01*
X194783Y111024D02*
X196034D01*
X184783Y113524D02*
Y114774D01*
X187284Y113524D02*
Y114774D01*
X189784Y113524D02*
Y114774D01*
X192283Y113524D02*
Y114774D01*
X262283Y86024D02*
X267284D01*
Y78524D02*
Y86024D01*
X265453Y78524D02*
X267284D01*
X262283Y82274D02*
X264412Y79081D01*
X262283Y96024D02*
X267284D01*
Y103524D01*
X265453D02*
X267284D01*
X262283Y99774D02*
X264412Y102967D01*
D12*
X109783Y93524D02*
X109687Y94499D01*
X109403Y95437D01*
X108941Y96302D01*
X108319Y97059D01*
X107561Y97681D01*
X106697Y98143D01*
X105759Y98427D01*
X104783Y98524D01*
Y83524D02*
X105759Y83620D01*
X106697Y83904D01*
X107561Y84366D01*
X108319Y84988D01*
X108941Y85746D01*
X109403Y86610D01*
X109687Y87548D01*
X109783Y88524D01*
X99783D02*
X99879Y87548D01*
X100164Y86610D01*
X100626Y85746D01*
X101248Y84988D01*
X102006Y84366D01*
X102870Y83904D01*
X103808Y83620D01*
X104783Y83524D01*
Y98524D02*
X103808Y98427D01*
X102870Y98143D01*
X102006Y97681D01*
X101248Y97059D01*
X100626Y96302D01*
X100164Y95437D01*
X99879Y94499D01*
X99783Y93524D01*
X98701Y54606D02*
X218701D01*
X36299Y126457D02*
X278425D01*
X36299Y54606D02*
Y126457D01*
X262283Y76024D02*
X269783D01*
X274783D01*
X278425D01*
X277284D02*
X282283D01*
Y106024D01*
X278425D02*
X282283D01*
X274783D02*
X277284D01*
X269783D02*
X274783D01*
X262283D02*
X269783D01*
X262283Y103524D02*
Y106024D01*
Y99774D02*
Y103524D01*
Y98524D02*
Y99774D01*
Y96024D02*
Y98524D01*
Y93524D02*
Y96024D01*
Y91024D02*
Y93524D01*
Y88524D02*
Y91024D01*
Y86024D02*
Y88524D01*
Y83524D02*
Y86024D01*
Y82274D02*
Y83524D01*
Y78524D02*
Y82274D01*
Y76024D02*
Y78524D01*
X278425Y54606D02*
Y76024D01*
Y106024D02*
Y126457D01*
X109783Y88524D02*
Y93524D01*
X99783Y88524D02*
Y93524D01*
X218701Y54606D02*
X278425D01*
X36299D02*
X98701D01*
D13*
X7185Y149213D02*
X6447Y149639D01*
Y148786D01*
X7185Y149213D01*
D14*
X188976Y136811D02*
X224410D01*
Y170276D01*
X188976Y136811D02*
Y170276D01*
X224410D01*
X102362Y166535D02*
Y175984D01*
X86614D02*
X102362D01*
X86614Y166535D02*
Y175984D01*
Y166535D02*
X102362D01*
X240354Y36417D02*
X249803D01*
X240354Y20669D02*
Y36417D01*
Y20669D02*
X249803D01*
Y36417D01*
X142913Y156496D02*
X152362D01*
Y172244D01*
X142913D02*
X152362D01*
X142913Y156496D02*
Y172244D01*
X200787Y52165D02*
X236221D01*
X200787Y18701D02*
Y52165D01*
X236221Y18701D02*
Y52165D01*
X200787Y18701D02*
X236221D01*
X177104Y158511D02*
Y153513D01*
X178103Y152513D01*
X180103D01*
X181102Y153513D01*
Y158511D01*
X183102Y152513D02*
X185101D01*
X184101D01*
Y158511D01*
X183102Y157511D01*
X9181Y56510D02*
X8181Y57510D01*
X6182D01*
X5182Y56510D01*
Y55510D01*
X6182Y54511D01*
X8181D01*
X9181Y53511D01*
Y52512D01*
X8181Y51512D01*
X6182D01*
X5182Y52512D01*
X11180Y57510D02*
Y51512D01*
X13179Y53511D01*
X15179Y51512D01*
Y57510D01*
X21177Y51512D02*
X17178D01*
X21177Y55510D01*
Y56510D01*
X20177Y57510D01*
X18178D01*
X17178Y56510D01*
X65338Y31128D02*
Y37126D01*
X68337D01*
X69336Y36126D01*
Y34127D01*
X68337Y33127D01*
X65338D01*
X67337D02*
X69336Y31128D01*
X71336D02*
X73335D01*
X72335D01*
Y37126D01*
X71336Y36126D01*
X76334D02*
X77334Y37126D01*
X79333D01*
X80333Y36126D01*
Y32127D01*
X79333Y31128D01*
X77334D01*
X76334Y32127D01*
Y36126D01*
X187915Y50243D02*
Y45245D01*
X188915Y44245D01*
X190914D01*
X191914Y45245D01*
Y50243D01*
X197912Y44245D02*
X193913D01*
X197912Y48244D01*
Y49244D01*
X196912Y50243D01*
X194913D01*
X193913Y49244D01*
D15*
X51772Y6063D02*
Y47402D01*
X4528Y6063D02*
X51772D01*
X4528D02*
Y47402D01*
X51772D01*
X64567Y138583D02*
X73228D01*
X64567D02*
Y156693D01*
X73228D01*
Y138583D02*
Y156693D01*
X286221Y81496D02*
Y90158D01*
X304331D01*
Y81496D02*
Y90158D01*
X286221Y81496D02*
X304331D01*
X63779Y166929D02*
Y175591D01*
X81890D01*
Y166929D02*
Y175591D01*
X63779Y166929D02*
X81890D01*
X19291Y148819D02*
X27953D01*
Y130709D02*
Y148819D01*
X19291Y130709D02*
X27953D01*
X19291D02*
Y148819D01*
X286221Y92913D02*
Y101575D01*
X304331D01*
Y92913D02*
Y101575D01*
X286221Y92913D02*
X304331D01*
X254724Y23228D02*
Y31890D01*
X272835D01*
Y23228D02*
Y31890D01*
X254724Y23228D02*
X272835D01*
X154134Y172441D02*
X162795D01*
Y154331D02*
Y172441D01*
X154134Y154331D02*
X162795D01*
X154134D02*
Y172441D01*
X300394Y103150D02*
Y117323D01*
X286221Y103150D02*
X300394D01*
X286221D02*
Y117323D01*
X300394D01*
X12598Y99213D02*
Y113386D01*
X26772D01*
Y99213D02*
Y113386D01*
X12598Y99213D02*
X26772D01*
X300689Y65354D02*
Y79527D01*
X286516Y65354D02*
X300689D01*
X286516D02*
Y79527D01*
X300689D01*
X12598Y71653D02*
Y85827D01*
X26772D01*
Y71653D02*
Y85827D01*
X12598Y71653D02*
X26772D01*
X64764Y13583D02*
Y27756D01*
X78937D01*
Y13583D02*
Y27756D01*
X64764Y13583D02*
X78937D01*
X7874Y131496D02*
Y148031D01*
X15748D01*
Y131496D02*
Y148031D01*
X7874Y131496D02*
X15748D01*
X33465Y130709D02*
X61024D01*
Y172047D01*
X33465D02*
X61024D01*
X33465Y130709D02*
Y172047D01*
X166654Y174134D02*
Y184134D01*
X276654D01*
Y174134D02*
Y184134D01*
X269153Y174134D02*
X276654D01*
X166654D02*
X269153D01*
X166654Y3858D02*
Y13858D01*
X276654D01*
Y3858D02*
Y13858D01*
X269153Y3858D02*
X276654D01*
X166654D02*
X269153D01*
X13038Y89043D02*
Y92979D01*
X15006D01*
X15662Y92323D01*
Y91011D01*
X15006Y90355D01*
X13038D01*
X14350D02*
X15662Y89043D01*
X16973Y89699D02*
X17629Y89043D01*
X18941D01*
X19597Y89699D01*
Y92323D01*
X18941Y92979D01*
X17629D01*
X16973Y92323D01*
Y91667D01*
X17629Y91011D01*
X19597D01*
X36462Y178523D02*
X35806Y179179D01*
X34494D01*
X33838Y178523D01*
Y177867D01*
X34494Y177211D01*
X35806D01*
X36462Y176555D01*
Y175899D01*
X35806Y175243D01*
X34494D01*
X33838Y175899D01*
X37773Y179179D02*
Y175243D01*
X39085Y176555D01*
X40397Y175243D01*
Y179179D01*
X41709Y175243D02*
X43021D01*
X42365D01*
Y179179D01*
X41709Y178523D01*
X19638Y152043D02*
Y155979D01*
X21606D01*
X22262Y155323D01*
Y154011D01*
X21606Y153355D01*
X19638D01*
X20950D02*
X22262Y152043D01*
X23573Y155323D02*
X24229Y155979D01*
X25541D01*
X26197Y155323D01*
Y154667D01*
X25541Y154011D01*
X24885D01*
X25541D01*
X26197Y153355D01*
Y152699D01*
X25541Y152043D01*
X24229D01*
X23573Y152699D01*
X64138Y178743D02*
Y182679D01*
X66106D01*
X66762Y182023D01*
Y180711D01*
X66106Y180055D01*
X64138D01*
X65450D02*
X66762Y178743D01*
X68073D02*
X69385D01*
X68730D01*
Y182679D01*
X68073Y182023D01*
X13038Y116543D02*
Y120479D01*
X15006D01*
X15662Y119823D01*
Y118511D01*
X15006Y117855D01*
X13038D01*
X14350D02*
X15662Y116543D01*
X19597Y120479D02*
X16973D01*
Y118511D01*
X18285Y119167D01*
X18941D01*
X19597Y118511D01*
Y117199D01*
X18941Y116543D01*
X17629D01*
X16973Y117199D01*
X64938Y159843D02*
Y163779D01*
X66906D01*
X67562Y163123D01*
Y161811D01*
X66906Y161155D01*
X64938D01*
X66250D02*
X67562Y159843D01*
X71497D02*
X68874D01*
X71497Y162467D01*
Y163123D01*
X70841Y163779D01*
X69529D01*
X68874Y163123D01*
X167038Y17043D02*
Y20979D01*
X169006D01*
X169662Y20323D01*
Y19011D01*
X169006Y18355D01*
X167038D01*
X173597Y17043D02*
X170974D01*
X173597Y19667D01*
Y20323D01*
X172941Y20979D01*
X171630D01*
X170974Y20323D01*
X157809Y178150D02*
Y182086D01*
X159777D01*
X160433Y181430D01*
Y180118D01*
X159777Y179462D01*
X157809D01*
X161745Y178150D02*
X163057D01*
X162401D01*
Y182086D01*
X161745Y181430D01*
X6538Y156879D02*
Y152943D01*
X8506D01*
X9162Y153599D01*
Y156223D01*
X8506Y156879D01*
X6538D01*
X10474Y152943D02*
X11785D01*
X11129D01*
Y156879D01*
X10474Y156223D01*
X89562Y182523D02*
X88906Y183179D01*
X87594D01*
X86938Y182523D01*
Y179899D01*
X87594Y179243D01*
X88906D01*
X89562Y179899D01*
X90873Y179243D02*
X92185D01*
X91530D01*
Y183179D01*
X90873Y182523D01*
X32538Y121943D02*
X33850D01*
X33194D01*
Y125879D01*
X32538Y125223D01*
M02*
