G04*
G04 #@! TF.GenerationSoftware,Altium Limited,Altium Designer,20.2.6 (244)*
G04*
G04 Layer_Physical_Order=2*
G04 Layer_Color=16711680*
%FSLAX25Y25*%
%MOIN*%
G70*
G04*
G04 #@! TF.SameCoordinates,EFAE668D-727F-4ECC-B3F7-511A600DF1C5*
G04*
G04*
G04 #@! TF.FilePolarity,Positive*
G04*
G01*
G75*
%ADD14C,0.01000*%
%ADD42C,0.02000*%
%ADD44R,0.05906X0.05906*%
%ADD45C,0.05906*%
%ADD46C,0.05000*%
%ADD47C,0.04331*%
%ADD48C,0.05800*%
G36*
X303150Y3937D02*
X3937Y3937D01*
X3937Y185039D01*
X303150Y185039D01*
X303150Y3937D01*
D02*
G37*
%LPC*%
G36*
X275206Y182687D02*
X272054D01*
Y179534D01*
X275206D01*
Y182687D01*
D02*
G37*
G36*
X271254D02*
X268101D01*
Y179534D01*
X271254D01*
Y182687D01*
D02*
G37*
G36*
X275206Y178734D02*
X272054D01*
Y175581D01*
X275206D01*
Y178734D01*
D02*
G37*
G36*
X271254D02*
X268101D01*
Y175581D01*
X271254D01*
Y178734D01*
D02*
G37*
G36*
X261653Y182717D02*
X260726Y182595D01*
X259862Y182237D01*
X259120Y181668D01*
X258550Y180926D01*
X258192Y180061D01*
X258070Y179134D01*
X258192Y178206D01*
X258550Y177342D01*
X259120Y176600D01*
X259862Y176031D01*
X260726Y175673D01*
X261653Y175550D01*
X262581Y175673D01*
X263445Y176031D01*
X264187Y176600D01*
X264757Y177342D01*
X265115Y178206D01*
X265237Y179134D01*
X265115Y180061D01*
X264757Y180926D01*
X264187Y181668D01*
X263445Y182237D01*
X262581Y182595D01*
X261653Y182717D01*
D02*
G37*
G36*
X251654D02*
X250726Y182595D01*
X249862Y182237D01*
X249120Y181668D01*
X248550Y180926D01*
X248192Y180061D01*
X248070Y179134D01*
X248192Y178206D01*
X248550Y177342D01*
X249120Y176600D01*
X249862Y176031D01*
X250726Y175673D01*
X251654Y175550D01*
X252581Y175673D01*
X253445Y176031D01*
X254187Y176600D01*
X254757Y177342D01*
X255115Y178206D01*
X255237Y179134D01*
X255115Y180061D01*
X254757Y180926D01*
X254187Y181668D01*
X253445Y182237D01*
X252581Y182595D01*
X251654Y182717D01*
D02*
G37*
G36*
X241653D02*
X240726Y182595D01*
X239862Y182237D01*
X239120Y181668D01*
X238550Y180926D01*
X238192Y180061D01*
X238070Y179134D01*
X238192Y178206D01*
X238550Y177342D01*
X239120Y176600D01*
X239862Y176031D01*
X240726Y175673D01*
X241653Y175550D01*
X242581Y175673D01*
X243445Y176031D01*
X244187Y176600D01*
X244757Y177342D01*
X245115Y178206D01*
X245237Y179134D01*
X245115Y180061D01*
X244757Y180926D01*
X244187Y181668D01*
X243445Y182237D01*
X242581Y182595D01*
X241653Y182717D01*
D02*
G37*
G36*
X231653D02*
X230726Y182595D01*
X229862Y182237D01*
X229120Y181668D01*
X228550Y180926D01*
X228192Y180061D01*
X228070Y179134D01*
X228192Y178206D01*
X228550Y177342D01*
X229120Y176600D01*
X229862Y176031D01*
X230726Y175673D01*
X231653Y175550D01*
X232581Y175673D01*
X233445Y176031D01*
X234187Y176600D01*
X234757Y177342D01*
X235115Y178206D01*
X235237Y179134D01*
X235115Y180061D01*
X234757Y180926D01*
X234187Y181668D01*
X233445Y182237D01*
X232581Y182595D01*
X231653Y182717D01*
D02*
G37*
G36*
X221654D02*
X220726Y182595D01*
X219862Y182237D01*
X219120Y181668D01*
X218550Y180926D01*
X218192Y180061D01*
X218070Y179134D01*
X218192Y178206D01*
X218550Y177342D01*
X219120Y176600D01*
X219862Y176031D01*
X220726Y175673D01*
X221654Y175550D01*
X222581Y175673D01*
X223445Y176031D01*
X224187Y176600D01*
X224757Y177342D01*
X225115Y178206D01*
X225237Y179134D01*
X225115Y180061D01*
X224757Y180926D01*
X224187Y181668D01*
X223445Y182237D01*
X222581Y182595D01*
X221654Y182717D01*
D02*
G37*
G36*
X211653D02*
X210726Y182595D01*
X209862Y182237D01*
X209120Y181668D01*
X208550Y180926D01*
X208192Y180061D01*
X208070Y179134D01*
X208192Y178206D01*
X208550Y177342D01*
X209120Y176600D01*
X209862Y176031D01*
X210726Y175673D01*
X211653Y175550D01*
X212581Y175673D01*
X213445Y176031D01*
X214187Y176600D01*
X214757Y177342D01*
X215115Y178206D01*
X215237Y179134D01*
X215115Y180061D01*
X214757Y180926D01*
X214187Y181668D01*
X213445Y182237D01*
X212581Y182595D01*
X211653Y182717D01*
D02*
G37*
G36*
X201654D02*
X200726Y182595D01*
X199862Y182237D01*
X199120Y181668D01*
X198550Y180926D01*
X198192Y180061D01*
X198070Y179134D01*
X198192Y178206D01*
X198550Y177342D01*
X199120Y176600D01*
X199862Y176031D01*
X200726Y175673D01*
X201654Y175550D01*
X202581Y175673D01*
X203445Y176031D01*
X204187Y176600D01*
X204757Y177342D01*
X205115Y178206D01*
X205237Y179134D01*
X205115Y180061D01*
X204757Y180926D01*
X204187Y181668D01*
X203445Y182237D01*
X202581Y182595D01*
X201654Y182717D01*
D02*
G37*
G36*
X191654D02*
X190726Y182595D01*
X189862Y182237D01*
X189120Y181668D01*
X188550Y180926D01*
X188192Y180061D01*
X188070Y179134D01*
X188192Y178206D01*
X188550Y177342D01*
X189120Y176600D01*
X189862Y176031D01*
X190726Y175673D01*
X191654Y175550D01*
X192581Y175673D01*
X193445Y176031D01*
X194187Y176600D01*
X194757Y177342D01*
X195115Y178206D01*
X195237Y179134D01*
X195115Y180061D01*
X194757Y180926D01*
X194187Y181668D01*
X193445Y182237D01*
X192581Y182595D01*
X191654Y182717D01*
D02*
G37*
G36*
X181653D02*
X180726Y182595D01*
X179862Y182237D01*
X179120Y181668D01*
X178550Y180926D01*
X178192Y180061D01*
X178070Y179134D01*
X178192Y178206D01*
X178550Y177342D01*
X179120Y176600D01*
X179862Y176031D01*
X180726Y175673D01*
X181653Y175550D01*
X182581Y175673D01*
X183445Y176031D01*
X184187Y176600D01*
X184757Y177342D01*
X185115Y178206D01*
X185237Y179134D01*
X185115Y180061D01*
X184757Y180926D01*
X184187Y181668D01*
X183445Y182237D01*
X182581Y182595D01*
X181653Y182717D01*
D02*
G37*
G36*
X171653D02*
X170726Y182595D01*
X169862Y182237D01*
X169120Y181668D01*
X168550Y180926D01*
X168192Y180061D01*
X168070Y179134D01*
X168192Y178206D01*
X168550Y177342D01*
X169120Y176600D01*
X169862Y176031D01*
X170726Y175673D01*
X171653Y175550D01*
X172581Y175673D01*
X173445Y176031D01*
X174187Y176600D01*
X174757Y177342D01*
X175115Y178206D01*
X175237Y179134D01*
X175115Y180061D01*
X174757Y180926D01*
X174187Y181668D01*
X173445Y182237D01*
X172581Y182595D01*
X171653Y182717D01*
D02*
G37*
G36*
X108668Y174334D02*
Y171660D01*
X111342D01*
X111288Y172069D01*
X110976Y172823D01*
X110479Y173471D01*
X109831Y173968D01*
X109077Y174280D01*
X108668Y174334D01*
D02*
G37*
G36*
X107868D02*
X107458Y174280D01*
X106704Y173968D01*
X106057Y173471D01*
X105560Y172823D01*
X105247Y172069D01*
X105194Y171660D01*
X107868D01*
Y174334D01*
D02*
G37*
G36*
X111342Y170860D02*
X108668D01*
Y168186D01*
X109077Y168240D01*
X109831Y168552D01*
X110479Y169049D01*
X110976Y169696D01*
X111288Y170451D01*
X111342Y170860D01*
D02*
G37*
G36*
X107868D02*
X105194D01*
X105247Y170451D01*
X105560Y169696D01*
X106057Y169049D01*
X106704Y168552D01*
X107458Y168240D01*
X107868Y168186D01*
Y170860D01*
D02*
G37*
G36*
X166339Y172418D02*
X165529Y172312D01*
X164775Y171999D01*
X164128Y171502D01*
X163631Y170855D01*
X163318Y170101D01*
X163212Y169291D01*
X163318Y168482D01*
X163631Y167728D01*
X164128Y167080D01*
X164775Y166584D01*
X165529Y166271D01*
X166339Y166165D01*
X167148Y166271D01*
X167902Y166584D01*
X168550Y167080D01*
X168994Y167660D01*
X175505D01*
X179120Y164045D01*
X179650Y163691D01*
X180274Y163567D01*
X181519D01*
X181844Y163143D01*
X182492Y162646D01*
X183246Y162334D01*
X184055Y162228D01*
X184864Y162334D01*
X185618Y162646D01*
X186266Y163143D01*
X186763Y163791D01*
X187075Y164545D01*
X187182Y165354D01*
X187075Y166164D01*
X186763Y166918D01*
X186266Y167565D01*
X185618Y168062D01*
X184864Y168375D01*
X184055Y168481D01*
X183246Y168375D01*
X182492Y168062D01*
X181844Y167565D01*
X181390Y166974D01*
X180993Y166927D01*
X180849Y166931D01*
X177335Y170445D01*
X176805Y170799D01*
X176181Y170923D01*
X168994D01*
X168550Y171502D01*
X167902Y171999D01*
X167148Y172312D01*
X166339Y172418D01*
D02*
G37*
G36*
X138195Y164491D02*
Y161817D01*
X140869D01*
X140815Y162227D01*
X140503Y162981D01*
X140006Y163628D01*
X139359Y164125D01*
X138604Y164437D01*
X138195Y164491D01*
D02*
G37*
G36*
X137395D02*
X136986Y164437D01*
X136232Y164125D01*
X135584Y163628D01*
X135087Y162981D01*
X134775Y162227D01*
X134721Y161817D01*
X137395D01*
Y164491D01*
D02*
G37*
G36*
X140869Y161017D02*
X138195D01*
Y158343D01*
X138604Y158397D01*
X139359Y158710D01*
X140006Y159206D01*
X140503Y159854D01*
X140815Y160608D01*
X140869Y161017D01*
D02*
G37*
G36*
X137395D02*
X134721D01*
X134775Y160608D01*
X135087Y159854D01*
X135584Y159206D01*
X136232Y158710D01*
X136986Y158397D01*
X137395Y158343D01*
Y161017D01*
D02*
G37*
G36*
X213583Y152733D02*
X212773Y152627D01*
X212019Y152314D01*
X211372Y151817D01*
X210875Y151170D01*
X210562Y150416D01*
X210456Y149606D01*
X210562Y148797D01*
X210746Y148355D01*
X206589Y144199D01*
X206346Y143835D01*
X206260Y143405D01*
X206260Y143405D01*
Y121461D01*
X205760Y121429D01*
X205693Y121937D01*
X205341Y122789D01*
X204780Y123520D01*
X204049Y124081D01*
X203197Y124434D01*
X202284Y124554D01*
X201370Y124434D01*
X200518Y124081D01*
X199787Y123520D01*
X199226Y122789D01*
X198874Y121937D01*
X198753Y121024D01*
X198874Y120110D01*
X199226Y119258D01*
X199787Y118527D01*
X200518Y117966D01*
X201370Y117614D01*
X202284Y117493D01*
X203197Y117614D01*
X204049Y117966D01*
X204780Y118527D01*
X205341Y119258D01*
X205693Y120110D01*
X205760Y120618D01*
X206260Y120586D01*
Y113555D01*
X166465Y73759D01*
X153898D01*
X153898Y73759D01*
X153469Y73674D01*
X153105Y73431D01*
X153105Y73431D01*
X143841Y64167D01*
X143197Y64433D01*
X142283Y64554D01*
X141370Y64433D01*
X140518Y64081D01*
X139787Y63520D01*
X139226Y62789D01*
X138874Y61937D01*
X138753Y61024D01*
X138874Y60110D01*
X139226Y59259D01*
X139787Y58527D01*
X140518Y57966D01*
X141370Y57614D01*
X142283Y57493D01*
X143197Y57614D01*
X144049Y57966D01*
X144780Y58527D01*
X145341Y59259D01*
X145693Y60110D01*
X145814Y61024D01*
X145693Y61937D01*
X145427Y62581D01*
X154362Y71516D01*
X166929D01*
X166929Y71516D01*
X167358Y71602D01*
X167722Y71845D01*
X208175Y112297D01*
X208175Y112297D01*
X208418Y112661D01*
X208504Y113091D01*
X208503Y113091D01*
Y119697D01*
X209003Y119796D01*
X209226Y119258D01*
X209787Y118527D01*
X210518Y117966D01*
X211370Y117614D01*
X212283Y117493D01*
X213197Y117614D01*
X214049Y117966D01*
X214780Y118527D01*
X215341Y119258D01*
X215693Y120110D01*
X215814Y121024D01*
X215693Y121937D01*
X215341Y122789D01*
X214780Y123520D01*
X214049Y124081D01*
X213197Y124434D01*
X212283Y124554D01*
X211370Y124434D01*
X210518Y124081D01*
X209787Y123520D01*
X209226Y122789D01*
X209003Y122251D01*
X208503Y122350D01*
Y142941D01*
X212332Y146769D01*
X212773Y146586D01*
X213583Y146479D01*
X214392Y146586D01*
X215146Y146898D01*
X215794Y147395D01*
X216290Y148043D01*
X216603Y148797D01*
X216709Y149606D01*
X216603Y150416D01*
X216290Y151170D01*
X215794Y151817D01*
X215146Y152314D01*
X214392Y152627D01*
X213583Y152733D01*
D02*
G37*
G36*
X41739Y148406D02*
Y146069D01*
X44075D01*
X44033Y146391D01*
X43754Y147064D01*
X43311Y147642D01*
X42733Y148085D01*
X42061Y148363D01*
X41739Y148406D01*
D02*
G37*
G36*
X40939D02*
X40617Y148363D01*
X39944Y148085D01*
X39366Y147642D01*
X38923Y147064D01*
X38644Y146391D01*
X38602Y146069D01*
X40939D01*
Y148406D01*
D02*
G37*
G36*
X44075Y145269D02*
X41739D01*
Y142933D01*
X42061Y142975D01*
X42733Y143254D01*
X43311Y143697D01*
X43754Y144275D01*
X44033Y144947D01*
X44075Y145269D01*
D02*
G37*
G36*
X40939D02*
X38602D01*
X38644Y144947D01*
X38923Y144275D01*
X39366Y143697D01*
X39944Y143254D01*
X40617Y142975D01*
X40939Y142933D01*
Y145269D01*
D02*
G37*
G36*
X185439Y144869D02*
Y142195D01*
X188113D01*
X188060Y142604D01*
X187747Y143359D01*
X187250Y144006D01*
X186603Y144503D01*
X185849Y144816D01*
X185439Y144869D01*
D02*
G37*
G36*
X184639D02*
X184230Y144816D01*
X183476Y144503D01*
X182828Y144006D01*
X182332Y143359D01*
X182019Y142604D01*
X181965Y142195D01*
X184639D01*
Y144869D01*
D02*
G37*
G36*
X188113Y141395D02*
X185439D01*
Y138721D01*
X185849Y138775D01*
X186603Y139087D01*
X187250Y139584D01*
X187747Y140232D01*
X188060Y140986D01*
X188113Y141395D01*
D02*
G37*
G36*
X184639D02*
X181965D01*
X182019Y140986D01*
X182332Y140232D01*
X182828Y139584D01*
X183476Y139087D01*
X184230Y138775D01*
X184639Y138721D01*
Y141395D01*
D02*
G37*
G36*
X12211Y128721D02*
Y126384D01*
X14548D01*
X14505Y126706D01*
X14227Y127379D01*
X13783Y127956D01*
X13206Y128400D01*
X12533Y128678D01*
X12211Y128721D01*
D02*
G37*
G36*
X11411D02*
X11089Y128678D01*
X10416Y128400D01*
X9839Y127956D01*
X9396Y127379D01*
X9117Y126706D01*
X9075Y126384D01*
X11411D01*
Y128721D01*
D02*
G37*
G36*
X14548Y125584D02*
X12211D01*
Y123248D01*
X12533Y123290D01*
X13206Y123569D01*
X13783Y124012D01*
X14227Y124590D01*
X14505Y125262D01*
X14548Y125584D01*
D02*
G37*
G36*
X11411D02*
X9075D01*
X9117Y125262D01*
X9396Y124590D01*
X9839Y124012D01*
X10416Y123569D01*
X11089Y123290D01*
X11411Y123248D01*
Y125584D01*
D02*
G37*
G36*
X272684Y124501D02*
Y121424D01*
X275761D01*
X275693Y121937D01*
X275341Y122789D01*
X274780Y123520D01*
X274049Y124081D01*
X273197Y124434D01*
X272684Y124501D01*
D02*
G37*
G36*
X271884D02*
X271370Y124434D01*
X270518Y124081D01*
X269787Y123520D01*
X269226Y122789D01*
X268874Y121937D01*
X268806Y121424D01*
X271884D01*
Y124501D01*
D02*
G37*
G36*
X275761Y120624D02*
X272684D01*
Y117546D01*
X273197Y117614D01*
X274049Y117966D01*
X274780Y118527D01*
X275341Y119258D01*
X275693Y120110D01*
X275761Y120624D01*
D02*
G37*
G36*
X271884D02*
X268806D01*
X268874Y120110D01*
X269226Y119258D01*
X269787Y118527D01*
X270518Y117966D01*
X271370Y117614D01*
X271884Y117546D01*
Y120624D01*
D02*
G37*
G36*
X262283Y124554D02*
X261370Y124434D01*
X260518Y124081D01*
X259787Y123520D01*
X259226Y122789D01*
X258874Y121937D01*
X258753Y121024D01*
X258874Y120110D01*
X259226Y119258D01*
X259787Y118527D01*
X260518Y117966D01*
X261370Y117614D01*
X262283Y117493D01*
X263197Y117614D01*
X264049Y117966D01*
X264780Y118527D01*
X265341Y119258D01*
X265693Y120110D01*
X265814Y121024D01*
X265693Y121937D01*
X265341Y122789D01*
X264780Y123520D01*
X264049Y124081D01*
X263197Y124434D01*
X262283Y124554D01*
D02*
G37*
G36*
X252284D02*
X251370Y124434D01*
X250518Y124081D01*
X249787Y123520D01*
X249226Y122789D01*
X248874Y121937D01*
X248753Y121024D01*
X248874Y120110D01*
X249226Y119258D01*
X249787Y118527D01*
X250518Y117966D01*
X251370Y117614D01*
X252284Y117493D01*
X253197Y117614D01*
X254049Y117966D01*
X254780Y118527D01*
X255341Y119258D01*
X255693Y120110D01*
X255814Y121024D01*
X255693Y121937D01*
X255341Y122789D01*
X254780Y123520D01*
X254049Y124081D01*
X253197Y124434D01*
X252284Y124554D01*
D02*
G37*
G36*
X242284D02*
X241370Y124434D01*
X240518Y124081D01*
X239787Y123520D01*
X239226Y122789D01*
X238874Y121937D01*
X238753Y121024D01*
X238874Y120110D01*
X239226Y119258D01*
X239787Y118527D01*
X240518Y117966D01*
X241370Y117614D01*
X242284Y117493D01*
X243197Y117614D01*
X244049Y117966D01*
X244780Y118527D01*
X245341Y119258D01*
X245693Y120110D01*
X245814Y121024D01*
X245693Y121937D01*
X245341Y122789D01*
X244780Y123520D01*
X244049Y124081D01*
X243197Y124434D01*
X242284Y124554D01*
D02*
G37*
G36*
X232283D02*
X231370Y124434D01*
X230518Y124081D01*
X229787Y123520D01*
X229226Y122789D01*
X228874Y121937D01*
X228753Y121024D01*
X228874Y120110D01*
X229226Y119258D01*
X229787Y118527D01*
X230518Y117966D01*
X231370Y117614D01*
X232283Y117493D01*
X233197Y117614D01*
X234049Y117966D01*
X234780Y118527D01*
X235341Y119258D01*
X235693Y120110D01*
X235814Y121024D01*
X235693Y121937D01*
X235341Y122789D01*
X234780Y123520D01*
X234049Y124081D01*
X233197Y124434D01*
X232283Y124554D01*
D02*
G37*
G36*
X222284D02*
X221370Y124434D01*
X220518Y124081D01*
X219787Y123520D01*
X219226Y122789D01*
X218874Y121937D01*
X218753Y121024D01*
X218874Y120110D01*
X219226Y119258D01*
X219787Y118527D01*
X220518Y117966D01*
X221370Y117614D01*
X222284Y117493D01*
X223197Y117614D01*
X224049Y117966D01*
X224780Y118527D01*
X225341Y119258D01*
X225693Y120110D01*
X225814Y121024D01*
X225693Y121937D01*
X225341Y122789D01*
X224780Y123520D01*
X224049Y124081D01*
X223197Y124434D01*
X222284Y124554D01*
D02*
G37*
G36*
X192283D02*
X191370Y124434D01*
X190518Y124081D01*
X189787Y123520D01*
X189226Y122789D01*
X188874Y121937D01*
X188753Y121024D01*
X188874Y120110D01*
X189226Y119258D01*
X189787Y118527D01*
X190518Y117966D01*
X191370Y117614D01*
X192283Y117493D01*
X193197Y117614D01*
X194049Y117966D01*
X194780Y118527D01*
X195341Y119258D01*
X195693Y120110D01*
X195814Y121024D01*
X195693Y121937D01*
X195341Y122789D01*
X194780Y123520D01*
X194049Y124081D01*
X193197Y124434D01*
X192283Y124554D01*
D02*
G37*
G36*
X182283D02*
X181370Y124434D01*
X180518Y124081D01*
X179787Y123520D01*
X179226Y122789D01*
X178874Y121937D01*
X178753Y121024D01*
X178874Y120110D01*
X179226Y119258D01*
X179787Y118527D01*
X180518Y117966D01*
X181370Y117614D01*
X182283Y117493D01*
X183197Y117614D01*
X184049Y117966D01*
X184780Y118527D01*
X185341Y119258D01*
X185693Y120110D01*
X185814Y121024D01*
X185693Y121937D01*
X185341Y122789D01*
X184780Y123520D01*
X184049Y124081D01*
X183197Y124434D01*
X182283Y124554D01*
D02*
G37*
G36*
X172283D02*
X171370Y124434D01*
X170518Y124081D01*
X169787Y123520D01*
X169226Y122789D01*
X168874Y121937D01*
X168753Y121024D01*
X168874Y120110D01*
X169226Y119258D01*
X169787Y118527D01*
X170518Y117966D01*
X171370Y117614D01*
X172283Y117493D01*
X173197Y117614D01*
X174049Y117966D01*
X174780Y118527D01*
X175341Y119258D01*
X175693Y120110D01*
X175814Y121024D01*
X175693Y121937D01*
X175341Y122789D01*
X174780Y123520D01*
X174049Y124081D01*
X173197Y124434D01*
X172283Y124554D01*
D02*
G37*
G36*
X162284D02*
X161370Y124434D01*
X160518Y124081D01*
X159787Y123520D01*
X159226Y122789D01*
X158874Y121937D01*
X158753Y121024D01*
X158874Y120110D01*
X159226Y119258D01*
X159787Y118527D01*
X160518Y117966D01*
X161370Y117614D01*
X162284Y117493D01*
X163197Y117614D01*
X164049Y117966D01*
X164780Y118527D01*
X165341Y119258D01*
X165693Y120110D01*
X165814Y121024D01*
X165693Y121937D01*
X165341Y122789D01*
X164780Y123520D01*
X164049Y124081D01*
X163197Y124434D01*
X162284Y124554D01*
D02*
G37*
G36*
X152284D02*
X151370Y124434D01*
X150518Y124081D01*
X149787Y123520D01*
X149226Y122789D01*
X148874Y121937D01*
X148753Y121024D01*
X148874Y120110D01*
X149226Y119258D01*
X149787Y118527D01*
X150518Y117966D01*
X151370Y117614D01*
X152284Y117493D01*
X153197Y117614D01*
X154049Y117966D01*
X154780Y118527D01*
X155341Y119258D01*
X155693Y120110D01*
X155814Y121024D01*
X155693Y121937D01*
X155341Y122789D01*
X154780Y123520D01*
X154049Y124081D01*
X153197Y124434D01*
X152284Y124554D01*
D02*
G37*
G36*
X142283D02*
X141370Y124434D01*
X140518Y124081D01*
X139787Y123520D01*
X139226Y122789D01*
X138874Y121937D01*
X138753Y121024D01*
X138874Y120110D01*
X139226Y119258D01*
X139787Y118527D01*
X140518Y117966D01*
X141370Y117614D01*
X142283Y117493D01*
X143197Y117614D01*
X144049Y117966D01*
X144780Y118527D01*
X145341Y119258D01*
X145693Y120110D01*
X145814Y121024D01*
X145693Y121937D01*
X145341Y122789D01*
X144780Y123520D01*
X144049Y124081D01*
X143197Y124434D01*
X142283Y124554D01*
D02*
G37*
G36*
X124016Y162576D02*
X123206Y162469D01*
X122452Y162157D01*
X121805Y161660D01*
X121308Y161012D01*
X120995Y160258D01*
X120889Y159449D01*
X120995Y158640D01*
X121308Y157885D01*
X121805Y157238D01*
X122384Y156793D01*
Y146356D01*
X121805Y145912D01*
X121308Y145264D01*
X120995Y144510D01*
X120889Y143701D01*
X120995Y142892D01*
X121308Y142137D01*
X121805Y141490D01*
X122384Y141045D01*
Y129291D01*
X122509Y128667D01*
X122862Y128138D01*
X128929Y122071D01*
X128874Y121937D01*
X128753Y121024D01*
X128874Y120110D01*
X128929Y119976D01*
X120894Y111941D01*
X120540Y111412D01*
X120416Y110787D01*
Y98691D01*
X120075Y98429D01*
X119632Y97851D01*
X119353Y97179D01*
X119258Y96457D01*
X119353Y95735D01*
X119632Y95062D01*
X120075Y94484D01*
X120653Y94041D01*
X121325Y93762D01*
X122047Y93668D01*
X122769Y93762D01*
X123442Y94041D01*
X124020Y94484D01*
X124463Y95062D01*
X124741Y95735D01*
X124837Y96457D01*
X124741Y97179D01*
X124463Y97851D01*
X124020Y98429D01*
X123679Y98691D01*
Y110112D01*
X131236Y117669D01*
X131370Y117614D01*
X132283Y117493D01*
X133197Y117614D01*
X134049Y117966D01*
X134780Y118527D01*
X135341Y119258D01*
X135693Y120110D01*
X135814Y121024D01*
X135693Y121937D01*
X135341Y122789D01*
X134780Y123520D01*
X134049Y124081D01*
X133197Y124434D01*
X132283Y124554D01*
X131370Y124434D01*
X131236Y124378D01*
X125647Y129967D01*
Y141045D01*
X126227Y141490D01*
X126724Y142137D01*
X127036Y142892D01*
X127143Y143701D01*
X127036Y144510D01*
X126724Y145264D01*
X126227Y145912D01*
X125647Y146356D01*
Y156793D01*
X126227Y157238D01*
X126724Y157885D01*
X127036Y158640D01*
X127143Y159449D01*
X127036Y160258D01*
X126724Y161012D01*
X126227Y161660D01*
X125579Y162157D01*
X124825Y162469D01*
X124016Y162576D01*
D02*
G37*
G36*
X122283Y124554D02*
X121370Y124434D01*
X120518Y124081D01*
X119787Y123520D01*
X119226Y122789D01*
X118874Y121937D01*
X118753Y121024D01*
X118874Y120110D01*
X119226Y119258D01*
X119787Y118527D01*
X120518Y117966D01*
X121370Y117614D01*
X122283Y117493D01*
X123197Y117614D01*
X124049Y117966D01*
X124780Y118527D01*
X125341Y119258D01*
X125693Y120110D01*
X125814Y121024D01*
X125693Y121937D01*
X125341Y122789D01*
X124780Y123520D01*
X124049Y124081D01*
X123197Y124434D01*
X122283Y124554D01*
D02*
G37*
G36*
X112284D02*
X111370Y124434D01*
X110518Y124081D01*
X109787Y123520D01*
X109226Y122789D01*
X108874Y121937D01*
X108753Y121024D01*
X108874Y120110D01*
X109226Y119258D01*
X109787Y118527D01*
X110518Y117966D01*
X111370Y117614D01*
X112284Y117493D01*
X113197Y117614D01*
X114049Y117966D01*
X114780Y118527D01*
X115341Y119258D01*
X115693Y120110D01*
X115814Y121024D01*
X115693Y121937D01*
X115341Y122789D01*
X114780Y123520D01*
X114049Y124081D01*
X113197Y124434D01*
X112284Y124554D01*
D02*
G37*
G36*
X102284D02*
X101370Y124434D01*
X100518Y124081D01*
X99787Y123520D01*
X99226Y122789D01*
X98874Y121937D01*
X98753Y121024D01*
X98874Y120110D01*
X99226Y119258D01*
X99787Y118527D01*
X100518Y117966D01*
X101370Y117614D01*
X102284Y117493D01*
X103197Y117614D01*
X104049Y117966D01*
X104780Y118527D01*
X105341Y119258D01*
X105693Y120110D01*
X105814Y121024D01*
X105693Y121937D01*
X105341Y122789D01*
X104780Y123520D01*
X104049Y124081D01*
X103197Y124434D01*
X102284Y124554D01*
D02*
G37*
G36*
X92283D02*
X91370Y124434D01*
X90518Y124081D01*
X89787Y123520D01*
X89226Y122789D01*
X88874Y121937D01*
X88753Y121024D01*
X88874Y120110D01*
X89226Y119258D01*
X89787Y118527D01*
X90518Y117966D01*
X91370Y117614D01*
X92283Y117493D01*
X93197Y117614D01*
X94049Y117966D01*
X94780Y118527D01*
X95341Y119258D01*
X95693Y120110D01*
X95814Y121024D01*
X95693Y121937D01*
X95341Y122789D01*
X94780Y123520D01*
X94049Y124081D01*
X93197Y124434D01*
X92283Y124554D01*
D02*
G37*
G36*
X82284D02*
X81370Y124434D01*
X80518Y124081D01*
X79787Y123520D01*
X79226Y122789D01*
X78874Y121937D01*
X78753Y121024D01*
X78874Y120110D01*
X79226Y119258D01*
X79787Y118527D01*
X80518Y117966D01*
X81370Y117614D01*
X82284Y117493D01*
X83197Y117614D01*
X84049Y117966D01*
X84780Y118527D01*
X85341Y119258D01*
X85693Y120110D01*
X85814Y121024D01*
X85693Y121937D01*
X85341Y122789D01*
X84780Y123520D01*
X84049Y124081D01*
X83197Y124434D01*
X82284Y124554D01*
D02*
G37*
G36*
X72284D02*
X71370Y124434D01*
X70518Y124081D01*
X69787Y123520D01*
X69226Y122789D01*
X68874Y121937D01*
X68753Y121024D01*
X68874Y120110D01*
X69226Y119258D01*
X69787Y118527D01*
X70518Y117966D01*
X71370Y117614D01*
X72284Y117493D01*
X73197Y117614D01*
X74049Y117966D01*
X74780Y118527D01*
X75341Y119258D01*
X75693Y120110D01*
X75814Y121024D01*
X75693Y121937D01*
X75341Y122789D01*
X74780Y123520D01*
X74049Y124081D01*
X73197Y124434D01*
X72284Y124554D01*
D02*
G37*
G36*
X62283D02*
X61370Y124434D01*
X60518Y124081D01*
X59787Y123520D01*
X59226Y122789D01*
X58874Y121937D01*
X58753Y121024D01*
X58874Y120110D01*
X59226Y119258D01*
X59787Y118527D01*
X60518Y117966D01*
X61370Y117614D01*
X62283Y117493D01*
X63197Y117614D01*
X64049Y117966D01*
X64780Y118527D01*
X65341Y119258D01*
X65693Y120110D01*
X65814Y121024D01*
X65693Y121937D01*
X65341Y122789D01*
X64780Y123520D01*
X64049Y124081D01*
X63197Y124434D01*
X62283Y124554D01*
D02*
G37*
G36*
X52284D02*
X51370Y124434D01*
X50518Y124081D01*
X49787Y123520D01*
X49226Y122789D01*
X48874Y121937D01*
X48753Y121024D01*
X48874Y120110D01*
X49226Y119258D01*
X49787Y118527D01*
X50518Y117966D01*
X51370Y117614D01*
X52284Y117493D01*
X53197Y117614D01*
X54049Y117966D01*
X54780Y118527D01*
X55341Y119258D01*
X55693Y120110D01*
X55814Y121024D01*
X55693Y121937D01*
X55341Y122789D01*
X54780Y123520D01*
X54049Y124081D01*
X53197Y124434D01*
X52284Y124554D01*
D02*
G37*
G36*
X42283D02*
X41370Y124434D01*
X40518Y124081D01*
X39787Y123520D01*
X39226Y122789D01*
X38874Y121937D01*
X38753Y121024D01*
X38874Y120110D01*
X39226Y119258D01*
X39787Y118527D01*
X40518Y117966D01*
X41370Y117614D01*
X42283Y117493D01*
X43197Y117614D01*
X44049Y117966D01*
X44780Y118527D01*
X45341Y119258D01*
X45693Y120110D01*
X45814Y121024D01*
X45693Y121937D01*
X45341Y122789D01*
X44780Y123520D01*
X44049Y124081D01*
X43197Y124434D01*
X42283Y124554D01*
D02*
G37*
G36*
X167323Y160607D02*
X166514Y160501D01*
X165759Y160188D01*
X165112Y159691D01*
X164615Y159044D01*
X164303Y158290D01*
X164196Y157480D01*
X164303Y156671D01*
X164615Y155917D01*
X165112Y155269D01*
X165759Y154772D01*
X166514Y154460D01*
X167323Y154354D01*
X168132Y154460D01*
X168886Y154772D01*
X169534Y155269D01*
X169978Y155849D01*
X274915D01*
X282818Y147946D01*
Y73865D01*
X273331Y64378D01*
X273197Y64433D01*
X272284Y64554D01*
X271370Y64433D01*
X270518Y64081D01*
X269787Y63520D01*
X269226Y62789D01*
X268874Y61937D01*
X268753Y61024D01*
X268874Y60110D01*
X269226Y59259D01*
X269787Y58527D01*
X270518Y57966D01*
X271370Y57614D01*
X272284Y57493D01*
X273197Y57614D01*
X274049Y57966D01*
X274780Y58527D01*
X275341Y59259D01*
X275693Y60110D01*
X275814Y61024D01*
X275693Y61937D01*
X275638Y62071D01*
X285602Y72035D01*
X285956Y72565D01*
X286080Y73189D01*
Y148622D01*
X285956Y149246D01*
X285602Y149776D01*
X276744Y158634D01*
X276215Y158987D01*
X275591Y159112D01*
X169978D01*
X169534Y159691D01*
X168886Y160188D01*
X168132Y160501D01*
X167323Y160607D01*
D02*
G37*
G36*
X262283Y64554D02*
X261370Y64433D01*
X260518Y64081D01*
X259787Y63520D01*
X259226Y62789D01*
X258874Y61937D01*
X258753Y61024D01*
X258874Y60110D01*
X259226Y59259D01*
X259787Y58527D01*
X260518Y57966D01*
X261370Y57614D01*
X262283Y57493D01*
X263197Y57614D01*
X264049Y57966D01*
X264780Y58527D01*
X265341Y59259D01*
X265693Y60110D01*
X265814Y61024D01*
X265693Y61937D01*
X265341Y62789D01*
X264780Y63520D01*
X264049Y64081D01*
X263197Y64433D01*
X262283Y64554D01*
D02*
G37*
G36*
X252284D02*
X251370Y64433D01*
X250518Y64081D01*
X249787Y63520D01*
X249226Y62789D01*
X248874Y61937D01*
X248753Y61024D01*
X248874Y60110D01*
X249226Y59259D01*
X249787Y58527D01*
X250518Y57966D01*
X251370Y57614D01*
X252284Y57493D01*
X253197Y57614D01*
X254049Y57966D01*
X254780Y58527D01*
X255341Y59259D01*
X255693Y60110D01*
X255814Y61024D01*
X255693Y61937D01*
X255341Y62789D01*
X254780Y63520D01*
X254049Y64081D01*
X253197Y64433D01*
X252284Y64554D01*
D02*
G37*
G36*
X242284D02*
X241370Y64433D01*
X240518Y64081D01*
X239787Y63520D01*
X239226Y62789D01*
X238874Y61937D01*
X238753Y61024D01*
X238874Y60110D01*
X239226Y59259D01*
X239787Y58527D01*
X240518Y57966D01*
X241370Y57614D01*
X242284Y57493D01*
X243197Y57614D01*
X244049Y57966D01*
X244780Y58527D01*
X245341Y59259D01*
X245693Y60110D01*
X245814Y61024D01*
X245693Y61937D01*
X245341Y62789D01*
X244780Y63520D01*
X244049Y64081D01*
X243197Y64433D01*
X242284Y64554D01*
D02*
G37*
G36*
X232283D02*
X231370Y64433D01*
X230518Y64081D01*
X229787Y63520D01*
X229226Y62789D01*
X228874Y61937D01*
X228753Y61024D01*
X228874Y60110D01*
X229226Y59259D01*
X229787Y58527D01*
X230518Y57966D01*
X231370Y57614D01*
X232283Y57493D01*
X233197Y57614D01*
X234049Y57966D01*
X234780Y58527D01*
X235341Y59259D01*
X235693Y60110D01*
X235814Y61024D01*
X235693Y61937D01*
X235341Y62789D01*
X234780Y63520D01*
X234049Y64081D01*
X233197Y64433D01*
X232283Y64554D01*
D02*
G37*
G36*
X222284D02*
X221370Y64433D01*
X220518Y64081D01*
X219787Y63520D01*
X219226Y62789D01*
X218874Y61937D01*
X218753Y61024D01*
X218874Y60110D01*
X219226Y59259D01*
X219787Y58527D01*
X220518Y57966D01*
X221370Y57614D01*
X222284Y57493D01*
X223197Y57614D01*
X224049Y57966D01*
X224780Y58527D01*
X225341Y59259D01*
X225693Y60110D01*
X225814Y61024D01*
X225693Y61937D01*
X225341Y62789D01*
X224780Y63520D01*
X224049Y64081D01*
X223197Y64433D01*
X222284Y64554D01*
D02*
G37*
G36*
X212283D02*
X211370Y64433D01*
X210518Y64081D01*
X209787Y63520D01*
X209226Y62789D01*
X208874Y61937D01*
X208753Y61024D01*
X208874Y60110D01*
X209226Y59259D01*
X209787Y58527D01*
X210518Y57966D01*
X211370Y57614D01*
X212283Y57493D01*
X213197Y57614D01*
X214049Y57966D01*
X214780Y58527D01*
X215341Y59259D01*
X215693Y60110D01*
X215814Y61024D01*
X215693Y61937D01*
X215341Y62789D01*
X214780Y63520D01*
X214049Y64081D01*
X213197Y64433D01*
X212283Y64554D01*
D02*
G37*
G36*
X202284D02*
X201370Y64433D01*
X200518Y64081D01*
X199787Y63520D01*
X199226Y62789D01*
X198874Y61937D01*
X198753Y61024D01*
X198874Y60110D01*
X199226Y59259D01*
X199787Y58527D01*
X200518Y57966D01*
X201370Y57614D01*
X202284Y57493D01*
X203197Y57614D01*
X204049Y57966D01*
X204780Y58527D01*
X205341Y59259D01*
X205693Y60110D01*
X205814Y61024D01*
X205693Y61937D01*
X205341Y62789D01*
X204780Y63520D01*
X204049Y64081D01*
X203197Y64433D01*
X202284Y64554D01*
D02*
G37*
G36*
X192283D02*
X191370Y64433D01*
X190518Y64081D01*
X189787Y63520D01*
X189226Y62789D01*
X188874Y61937D01*
X188753Y61024D01*
X188874Y60110D01*
X189226Y59259D01*
X189787Y58527D01*
X190518Y57966D01*
X191370Y57614D01*
X192283Y57493D01*
X193197Y57614D01*
X194049Y57966D01*
X194780Y58527D01*
X195341Y59259D01*
X195693Y60110D01*
X195814Y61024D01*
X195693Y61937D01*
X195341Y62789D01*
X194780Y63520D01*
X194049Y64081D01*
X193197Y64433D01*
X192283Y64554D01*
D02*
G37*
G36*
X182283D02*
X181370Y64433D01*
X180518Y64081D01*
X179787Y63520D01*
X179226Y62789D01*
X178874Y61937D01*
X178753Y61024D01*
X178874Y60110D01*
X179226Y59259D01*
X179787Y58527D01*
X180518Y57966D01*
X181370Y57614D01*
X182283Y57493D01*
X183197Y57614D01*
X184049Y57966D01*
X184780Y58527D01*
X185341Y59259D01*
X185693Y60110D01*
X185814Y61024D01*
X185693Y61937D01*
X185341Y62789D01*
X184780Y63520D01*
X184049Y64081D01*
X183197Y64433D01*
X182283Y64554D01*
D02*
G37*
G36*
X172283D02*
X171370Y64433D01*
X170518Y64081D01*
X169787Y63520D01*
X169226Y62789D01*
X168874Y61937D01*
X168753Y61024D01*
X168874Y60110D01*
X169226Y59259D01*
X169787Y58527D01*
X170518Y57966D01*
X171370Y57614D01*
X172283Y57493D01*
X173197Y57614D01*
X174049Y57966D01*
X174780Y58527D01*
X175341Y59259D01*
X175693Y60110D01*
X175814Y61024D01*
X175693Y61937D01*
X175341Y62789D01*
X174780Y63520D01*
X174049Y64081D01*
X173197Y64433D01*
X172283Y64554D01*
D02*
G37*
G36*
X162284D02*
X161370Y64433D01*
X160518Y64081D01*
X159787Y63520D01*
X159226Y62789D01*
X158874Y61937D01*
X158753Y61024D01*
X158874Y60110D01*
X159226Y59259D01*
X159787Y58527D01*
X160518Y57966D01*
X161370Y57614D01*
X162284Y57493D01*
X163197Y57614D01*
X164049Y57966D01*
X164780Y58527D01*
X165341Y59259D01*
X165693Y60110D01*
X165814Y61024D01*
X165693Y61937D01*
X165341Y62789D01*
X164780Y63520D01*
X164049Y64081D01*
X163197Y64433D01*
X162284Y64554D01*
D02*
G37*
G36*
X152284D02*
X151370Y64433D01*
X150518Y64081D01*
X149787Y63520D01*
X149226Y62789D01*
X148874Y61937D01*
X148753Y61024D01*
X148874Y60110D01*
X149226Y59259D01*
X149787Y58527D01*
X150518Y57966D01*
X151370Y57614D01*
X152284Y57493D01*
X153197Y57614D01*
X154049Y57966D01*
X154780Y58527D01*
X155341Y59259D01*
X155693Y60110D01*
X155814Y61024D01*
X155693Y61937D01*
X155341Y62789D01*
X154780Y63520D01*
X154049Y64081D01*
X153197Y64433D01*
X152284Y64554D01*
D02*
G37*
G36*
X132283D02*
X131370Y64433D01*
X130518Y64081D01*
X129787Y63520D01*
X129226Y62789D01*
X128874Y61937D01*
X128753Y61024D01*
X128874Y60110D01*
X129226Y59259D01*
X129787Y58527D01*
X130518Y57966D01*
X131370Y57614D01*
X132283Y57493D01*
X133197Y57614D01*
X134049Y57966D01*
X134780Y58527D01*
X135341Y59259D01*
X135693Y60110D01*
X135814Y61024D01*
X135693Y61937D01*
X135341Y62789D01*
X134780Y63520D01*
X134049Y64081D01*
X133197Y64433D01*
X132283Y64554D01*
D02*
G37*
G36*
X122283D02*
X121370Y64433D01*
X120518Y64081D01*
X119787Y63520D01*
X119226Y62789D01*
X118874Y61937D01*
X118753Y61024D01*
X118874Y60110D01*
X119226Y59259D01*
X119787Y58527D01*
X120518Y57966D01*
X121370Y57614D01*
X122283Y57493D01*
X123197Y57614D01*
X124049Y57966D01*
X124780Y58527D01*
X125341Y59259D01*
X125693Y60110D01*
X125814Y61024D01*
X125693Y61937D01*
X125341Y62789D01*
X124780Y63520D01*
X124049Y64081D01*
X123197Y64433D01*
X122283Y64554D01*
D02*
G37*
G36*
X92283D02*
X91370Y64433D01*
X90518Y64081D01*
X89787Y63520D01*
X89226Y62789D01*
X88874Y61937D01*
X88753Y61024D01*
X88874Y60110D01*
X89226Y59259D01*
X89787Y58527D01*
X90518Y57966D01*
X91370Y57614D01*
X92283Y57493D01*
X93197Y57614D01*
X94049Y57966D01*
X94780Y58527D01*
X95341Y59259D01*
X95693Y60110D01*
X95814Y61024D01*
X95693Y61937D01*
X95341Y62789D01*
X94780Y63520D01*
X94049Y64081D01*
X93197Y64433D01*
X92283Y64554D01*
D02*
G37*
G36*
X82284D02*
X81370Y64433D01*
X80518Y64081D01*
X79787Y63520D01*
X79226Y62789D01*
X78874Y61937D01*
X78753Y61024D01*
X78874Y60110D01*
X79226Y59259D01*
X79787Y58527D01*
X80518Y57966D01*
X81370Y57614D01*
X82284Y57493D01*
X83197Y57614D01*
X84049Y57966D01*
X84780Y58527D01*
X85341Y59259D01*
X85693Y60110D01*
X85814Y61024D01*
X85693Y61937D01*
X85341Y62789D01*
X84780Y63520D01*
X84049Y64081D01*
X83197Y64433D01*
X82284Y64554D01*
D02*
G37*
G36*
X52284D02*
X51370Y64433D01*
X50518Y64081D01*
X49787Y63520D01*
X49226Y62789D01*
X48874Y61937D01*
X48753Y61024D01*
X48874Y60110D01*
X49226Y59259D01*
X49787Y58527D01*
X50518Y57966D01*
X51370Y57614D01*
X52284Y57493D01*
X53197Y57614D01*
X54049Y57966D01*
X54780Y58527D01*
X55341Y59259D01*
X55693Y60110D01*
X55814Y61024D01*
X55693Y61937D01*
X55341Y62789D01*
X54780Y63520D01*
X54049Y64081D01*
X53197Y64433D01*
X52284Y64554D01*
D02*
G37*
G36*
X42283D02*
X41370Y64433D01*
X40518Y64081D01*
X39787Y63520D01*
X39226Y62789D01*
X38874Y61937D01*
X38753Y61024D01*
X38874Y60110D01*
X39226Y59259D01*
X39787Y58527D01*
X40518Y57966D01*
X41370Y57614D01*
X42283Y57493D01*
X43197Y57614D01*
X44049Y57966D01*
X44780Y58527D01*
X45341Y59259D01*
X45693Y60110D01*
X45814Y61024D01*
X45693Y61937D01*
X45341Y62789D01*
X44780Y63520D01*
X44049Y64081D01*
X43197Y64433D01*
X42283Y64554D01*
D02*
G37*
G36*
X287402Y61844D02*
X286680Y61749D01*
X286007Y61471D01*
X285429Y61027D01*
X284986Y60450D01*
X284707Y59777D01*
X284612Y59055D01*
X284668Y58629D01*
X276883Y50844D01*
X266013D01*
X265752Y51185D01*
X265174Y51628D01*
X264501Y51907D01*
X263779Y52002D01*
X263058Y51907D01*
X262385Y51628D01*
X261807Y51185D01*
X261364Y50607D01*
X261085Y49935D01*
X260990Y49213D01*
X261085Y48491D01*
X261364Y47818D01*
X261807Y47240D01*
X262385Y46797D01*
X263058Y46518D01*
X263779Y46423D01*
X264501Y46518D01*
X265174Y46797D01*
X265752Y47240D01*
X266013Y47581D01*
X277559D01*
X278183Y47705D01*
X278713Y48059D01*
X286976Y56322D01*
X287402Y56266D01*
X288123Y56361D01*
X288796Y56640D01*
X289374Y57083D01*
X289817Y57661D01*
X290096Y58333D01*
X290191Y59055D01*
X290096Y59777D01*
X289817Y60450D01*
X289374Y61027D01*
X288796Y61471D01*
X288123Y61749D01*
X287402Y61844D01*
D02*
G37*
G36*
X243009Y49837D02*
Y47163D01*
X245683D01*
X245629Y47572D01*
X245317Y48326D01*
X244820Y48974D01*
X244172Y49471D01*
X243418Y49783D01*
X243009Y49837D01*
D02*
G37*
G36*
X242209D02*
X241800Y49783D01*
X241046Y49471D01*
X240398Y48974D01*
X239901Y48326D01*
X239589Y47572D01*
X239535Y47163D01*
X242209D01*
Y49837D01*
D02*
G37*
G36*
X245683Y46363D02*
X243009D01*
Y43689D01*
X243418Y43743D01*
X244172Y44055D01*
X244820Y44552D01*
X245317Y45200D01*
X245629Y45954D01*
X245683Y46363D01*
D02*
G37*
G36*
X242209D02*
X239535D01*
X239589Y45954D01*
X239901Y45200D01*
X240398Y44552D01*
X241046Y44055D01*
X241800Y43743D01*
X242209Y43689D01*
Y46363D01*
D02*
G37*
G36*
X62283Y64554D02*
X61370Y64433D01*
X60518Y64081D01*
X59787Y63520D01*
X59226Y62789D01*
X58874Y61937D01*
X58753Y61024D01*
X58874Y60110D01*
X59226Y59259D01*
X59787Y58527D01*
X60518Y57966D01*
X61162Y57700D01*
Y50937D01*
X52685Y42460D01*
X41277D01*
X41094Y42902D01*
X40597Y43549D01*
X39949Y44046D01*
X39195Y44359D01*
X38386Y44465D01*
X37577Y44359D01*
X36822Y44046D01*
X36175Y43549D01*
X35678Y42902D01*
X35366Y42148D01*
X35259Y41339D01*
X35366Y40529D01*
X35678Y39775D01*
X36175Y39128D01*
X36822Y38631D01*
X37577Y38318D01*
X38386Y38212D01*
X39195Y38318D01*
X39949Y38631D01*
X40597Y39128D01*
X41094Y39775D01*
X41277Y40217D01*
X53150D01*
X53150Y40217D01*
X53579Y40302D01*
X53943Y40545D01*
X63077Y49679D01*
X63077Y49679D01*
X63320Y50043D01*
X63405Y50472D01*
X63405Y50472D01*
Y57700D01*
X64049Y57966D01*
X64780Y58527D01*
X65341Y59259D01*
X65693Y60110D01*
X65814Y61024D01*
X65693Y61937D01*
X65341Y62789D01*
X64780Y63520D01*
X64049Y64081D01*
X63197Y64433D01*
X62283Y64554D01*
D02*
G37*
G36*
X82677Y56276D02*
X81868Y56170D01*
X81114Y55857D01*
X80466Y55361D01*
X79969Y54713D01*
X79657Y53959D01*
X79550Y53150D01*
X79657Y52340D01*
X79969Y51586D01*
X80466Y50939D01*
X81114Y50442D01*
X81556Y50259D01*
Y40292D01*
X81114Y40109D01*
X80466Y39612D01*
X79969Y38965D01*
X79657Y38211D01*
X79550Y37402D01*
X79657Y36592D01*
X79969Y35838D01*
X80466Y35191D01*
X81114Y34694D01*
X81868Y34381D01*
X82677Y34275D01*
X83486Y34381D01*
X84241Y34694D01*
X84888Y35191D01*
X85385Y35838D01*
X85697Y36592D01*
X85804Y37402D01*
X85697Y38211D01*
X85385Y38965D01*
X84888Y39612D01*
X84241Y40109D01*
X83799Y40292D01*
Y50259D01*
X84241Y50442D01*
X84888Y50939D01*
X85385Y51586D01*
X85697Y52340D01*
X85804Y53150D01*
X85697Y53959D01*
X85385Y54713D01*
X84888Y55361D01*
X84241Y55857D01*
X83486Y56170D01*
X82677Y56276D01*
D02*
G37*
G36*
X235636Y35554D02*
Y32880D01*
X238310D01*
X238256Y33290D01*
X237944Y34044D01*
X237447Y34691D01*
X236800Y35188D01*
X236046Y35500D01*
X235636Y35554D01*
D02*
G37*
G36*
X234836D02*
X234427Y35500D01*
X233673Y35188D01*
X233025Y34691D01*
X232528Y34044D01*
X232216Y33290D01*
X232162Y32880D01*
X234836D01*
Y35554D01*
D02*
G37*
G36*
X72284Y64554D02*
X71370Y64433D01*
X70518Y64081D01*
X69787Y63520D01*
X69226Y62789D01*
X68874Y61937D01*
X68753Y61024D01*
X68874Y60110D01*
X69226Y59259D01*
X69787Y58527D01*
X70518Y57966D01*
X71162Y57700D01*
Y49126D01*
X54654Y32618D01*
X41277D01*
X41094Y33059D01*
X40597Y33707D01*
X39949Y34204D01*
X39195Y34516D01*
X38386Y34623D01*
X37577Y34516D01*
X36822Y34204D01*
X36175Y33707D01*
X35678Y33059D01*
X35366Y32305D01*
X35259Y31496D01*
X35366Y30687D01*
X35678Y29933D01*
X36175Y29285D01*
X36822Y28788D01*
X37577Y28476D01*
X38386Y28369D01*
X39195Y28476D01*
X39949Y28788D01*
X40597Y29285D01*
X41094Y29933D01*
X41277Y30375D01*
X55118D01*
X55118Y30375D01*
X55547Y30460D01*
X55911Y30703D01*
X73076Y47868D01*
X73076Y47868D01*
X73320Y48232D01*
X73405Y48661D01*
Y57700D01*
X74049Y57966D01*
X74780Y58527D01*
X75341Y59259D01*
X75693Y60110D01*
X75814Y61024D01*
X75693Y61937D01*
X75341Y62789D01*
X74780Y63520D01*
X74049Y64081D01*
X73197Y64433D01*
X72284Y64554D01*
D02*
G37*
G36*
X238310Y32080D02*
X235636D01*
Y29406D01*
X236046Y29460D01*
X236800Y29772D01*
X237447Y30269D01*
X237944Y30917D01*
X238256Y31671D01*
X238310Y32080D01*
D02*
G37*
G36*
X234836D02*
X232162D01*
X232216Y31671D01*
X232528Y30917D01*
X233025Y30269D01*
X233673Y29772D01*
X234427Y29460D01*
X234836Y29406D01*
Y32080D01*
D02*
G37*
G36*
X92520Y54308D02*
X91710Y54201D01*
X90956Y53889D01*
X90309Y53392D01*
X89812Y52745D01*
X89499Y51990D01*
X89393Y51181D01*
X89499Y50372D01*
X89812Y49618D01*
X90309Y48970D01*
X90956Y48473D01*
X91398Y48290D01*
Y34387D01*
X90956Y34204D01*
X90309Y33707D01*
X89812Y33059D01*
X89499Y32305D01*
X89393Y31496D01*
X89499Y30687D01*
X89812Y29933D01*
X90309Y29285D01*
X90956Y28788D01*
X91710Y28476D01*
X92520Y28369D01*
X93329Y28476D01*
X94083Y28788D01*
X94731Y29285D01*
X95227Y29933D01*
X95540Y30687D01*
X95646Y31496D01*
X95540Y32305D01*
X95227Y33059D01*
X94731Y33707D01*
X94083Y34204D01*
X93641Y34387D01*
Y48290D01*
X94083Y48473D01*
X94731Y48970D01*
X95227Y49618D01*
X95540Y50372D01*
X95646Y51181D01*
X95540Y51990D01*
X95227Y52745D01*
X94731Y53392D01*
X94083Y53889D01*
X93329Y54201D01*
X92520Y54308D01*
D02*
G37*
G36*
X85046Y28665D02*
Y25991D01*
X87720D01*
X87666Y26400D01*
X87353Y27154D01*
X86857Y27801D01*
X86209Y28298D01*
X85455Y28611D01*
X85046Y28665D01*
D02*
G37*
G36*
X84246D02*
X83836Y28611D01*
X83082Y28298D01*
X82435Y27801D01*
X81938Y27154D01*
X81625Y26400D01*
X81572Y25991D01*
X84246D01*
Y28665D01*
D02*
G37*
G36*
X87720Y25190D02*
X85046D01*
Y22516D01*
X85455Y22570D01*
X86209Y22883D01*
X86857Y23380D01*
X87353Y24027D01*
X87666Y24781D01*
X87720Y25190D01*
D02*
G37*
G36*
X84246D02*
X81572D01*
X81625Y24781D01*
X81938Y24027D01*
X82435Y23380D01*
X83082Y22883D01*
X83836Y22570D01*
X84246Y22516D01*
Y25190D01*
D02*
G37*
G36*
X112284Y64554D02*
X111370Y64433D01*
X110518Y64081D01*
X109787Y63520D01*
X109226Y62789D01*
X108874Y61937D01*
X108753Y61024D01*
X108874Y60110D01*
X109226Y59259D01*
X109787Y58527D01*
X110518Y57966D01*
X111123Y57716D01*
Y28498D01*
X110641Y28298D01*
X109994Y27801D01*
X109497Y27154D01*
X109185Y26400D01*
X109078Y25591D01*
X109185Y24781D01*
X109497Y24027D01*
X109994Y23380D01*
X110641Y22883D01*
X111396Y22570D01*
X112205Y22464D01*
X113014Y22570D01*
X113768Y22883D01*
X114416Y23380D01*
X114913Y24027D01*
X115225Y24781D01*
X115331Y25591D01*
X115225Y26400D01*
X114913Y27154D01*
X114416Y27801D01*
X113768Y28298D01*
X113366Y28465D01*
Y57683D01*
X114049Y57966D01*
X114780Y58527D01*
X115341Y59259D01*
X115693Y60110D01*
X115814Y61024D01*
X115693Y61937D01*
X115341Y62789D01*
X114780Y63520D01*
X114049Y64081D01*
X113197Y64433D01*
X112284Y64554D01*
D02*
G37*
G36*
X102284D02*
X101370Y64433D01*
X100518Y64081D01*
X99787Y63520D01*
X99226Y62789D01*
X98874Y61937D01*
X98753Y61024D01*
X98874Y60110D01*
X99226Y59259D01*
X99787Y58527D01*
X100518Y57966D01*
X101201Y57683D01*
Y14686D01*
X100799Y14519D01*
X100151Y14022D01*
X99654Y13374D01*
X99342Y12620D01*
X99235Y11811D01*
X99342Y11002D01*
X99654Y10248D01*
X100151Y9600D01*
X100799Y9103D01*
X101553Y8791D01*
X102362Y8684D01*
X103172Y8791D01*
X103926Y9103D01*
X104573Y9600D01*
X105070Y10248D01*
X105382Y11002D01*
X105489Y11811D01*
X105382Y12620D01*
X105070Y13374D01*
X104573Y14022D01*
X103926Y14519D01*
X103444Y14718D01*
Y57716D01*
X104049Y57966D01*
X104780Y58527D01*
X105341Y59259D01*
X105693Y60110D01*
X105814Y61024D01*
X105693Y61937D01*
X105341Y62789D01*
X104780Y63520D01*
X104049Y64081D01*
X103197Y64433D01*
X102284Y64554D01*
D02*
G37*
G36*
X275206Y12411D02*
X268101D01*
Y5305D01*
X275206D01*
Y12411D01*
D02*
G37*
G36*
X261653Y12442D02*
X260726Y12320D01*
X259862Y11962D01*
X259120Y11392D01*
X258550Y10650D01*
X258192Y9786D01*
X258070Y8858D01*
X258192Y7931D01*
X258550Y7067D01*
X259120Y6324D01*
X259862Y5755D01*
X260726Y5397D01*
X261653Y5275D01*
X262581Y5397D01*
X263445Y5755D01*
X264187Y6324D01*
X264757Y7067D01*
X265115Y7931D01*
X265237Y8858D01*
X265115Y9786D01*
X264757Y10650D01*
X264187Y11392D01*
X263445Y11962D01*
X262581Y12320D01*
X261653Y12442D01*
D02*
G37*
G36*
X251654D02*
X250726Y12320D01*
X249862Y11962D01*
X249120Y11392D01*
X248550Y10650D01*
X248192Y9786D01*
X248070Y8858D01*
X248192Y7931D01*
X248550Y7067D01*
X249120Y6324D01*
X249862Y5755D01*
X250726Y5397D01*
X251654Y5275D01*
X252581Y5397D01*
X253445Y5755D01*
X254187Y6324D01*
X254757Y7067D01*
X255115Y7931D01*
X255237Y8858D01*
X255115Y9786D01*
X254757Y10650D01*
X254187Y11392D01*
X253445Y11962D01*
X252581Y12320D01*
X251654Y12442D01*
D02*
G37*
G36*
X241653D02*
X240726Y12320D01*
X239862Y11962D01*
X239120Y11392D01*
X238550Y10650D01*
X238192Y9786D01*
X238070Y8858D01*
X238192Y7931D01*
X238550Y7067D01*
X239120Y6324D01*
X239862Y5755D01*
X240726Y5397D01*
X241653Y5275D01*
X242581Y5397D01*
X243445Y5755D01*
X244187Y6324D01*
X244757Y7067D01*
X245115Y7931D01*
X245237Y8858D01*
X245115Y9786D01*
X244757Y10650D01*
X244187Y11392D01*
X243445Y11962D01*
X242581Y12320D01*
X241653Y12442D01*
D02*
G37*
G36*
X231653D02*
X230726Y12320D01*
X229862Y11962D01*
X229120Y11392D01*
X228550Y10650D01*
X228192Y9786D01*
X228070Y8858D01*
X228192Y7931D01*
X228550Y7067D01*
X229120Y6324D01*
X229862Y5755D01*
X230726Y5397D01*
X231653Y5275D01*
X232581Y5397D01*
X233445Y5755D01*
X234187Y6324D01*
X234757Y7067D01*
X235115Y7931D01*
X235237Y8858D01*
X235115Y9786D01*
X234757Y10650D01*
X234187Y11392D01*
X233445Y11962D01*
X232581Y12320D01*
X231653Y12442D01*
D02*
G37*
G36*
X221654D02*
X220726Y12320D01*
X219862Y11962D01*
X219120Y11392D01*
X218550Y10650D01*
X218192Y9786D01*
X218070Y8858D01*
X218192Y7931D01*
X218550Y7067D01*
X219120Y6324D01*
X219862Y5755D01*
X220726Y5397D01*
X221654Y5275D01*
X222581Y5397D01*
X223445Y5755D01*
X224187Y6324D01*
X224757Y7067D01*
X225115Y7931D01*
X225237Y8858D01*
X225115Y9786D01*
X224757Y10650D01*
X224187Y11392D01*
X223445Y11962D01*
X222581Y12320D01*
X221654Y12442D01*
D02*
G37*
G36*
X211653D02*
X210726Y12320D01*
X209862Y11962D01*
X209120Y11392D01*
X208550Y10650D01*
X208192Y9786D01*
X208070Y8858D01*
X208192Y7931D01*
X208550Y7067D01*
X209120Y6324D01*
X209862Y5755D01*
X210726Y5397D01*
X211653Y5275D01*
X212581Y5397D01*
X213445Y5755D01*
X214187Y6324D01*
X214757Y7067D01*
X215115Y7931D01*
X215237Y8858D01*
X215115Y9786D01*
X214757Y10650D01*
X214187Y11392D01*
X213445Y11962D01*
X212581Y12320D01*
X211653Y12442D01*
D02*
G37*
G36*
X201654D02*
X200726Y12320D01*
X199862Y11962D01*
X199120Y11392D01*
X198550Y10650D01*
X198192Y9786D01*
X198070Y8858D01*
X198192Y7931D01*
X198550Y7067D01*
X199120Y6324D01*
X199862Y5755D01*
X200726Y5397D01*
X201654Y5275D01*
X202581Y5397D01*
X203445Y5755D01*
X204187Y6324D01*
X204757Y7067D01*
X205115Y7931D01*
X205237Y8858D01*
X205115Y9786D01*
X204757Y10650D01*
X204187Y11392D01*
X203445Y11962D01*
X202581Y12320D01*
X201654Y12442D01*
D02*
G37*
G36*
X191654D02*
X190726Y12320D01*
X189862Y11962D01*
X189120Y11392D01*
X188550Y10650D01*
X188192Y9786D01*
X188070Y8858D01*
X188192Y7931D01*
X188550Y7067D01*
X189120Y6324D01*
X189862Y5755D01*
X190726Y5397D01*
X191654Y5275D01*
X192581Y5397D01*
X193445Y5755D01*
X194187Y6324D01*
X194757Y7067D01*
X195115Y7931D01*
X195237Y8858D01*
X195115Y9786D01*
X194757Y10650D01*
X194187Y11392D01*
X193445Y11962D01*
X192581Y12320D01*
X191654Y12442D01*
D02*
G37*
G36*
X181653D02*
X180726Y12320D01*
X179862Y11962D01*
X179120Y11392D01*
X178550Y10650D01*
X178192Y9786D01*
X178070Y8858D01*
X178192Y7931D01*
X178550Y7067D01*
X179120Y6324D01*
X179862Y5755D01*
X180726Y5397D01*
X181653Y5275D01*
X182581Y5397D01*
X183445Y5755D01*
X184187Y6324D01*
X184757Y7067D01*
X185115Y7931D01*
X185237Y8858D01*
X185115Y9786D01*
X184757Y10650D01*
X184187Y11392D01*
X183445Y11962D01*
X182581Y12320D01*
X181653Y12442D01*
D02*
G37*
G36*
X171653D02*
X170726Y12320D01*
X169862Y11962D01*
X169120Y11392D01*
X168550Y10650D01*
X168192Y9786D01*
X168070Y8858D01*
X168192Y7931D01*
X168550Y7067D01*
X169120Y6324D01*
X169862Y5755D01*
X170726Y5397D01*
X171653Y5275D01*
X172581Y5397D01*
X173445Y5755D01*
X174187Y6324D01*
X174757Y7067D01*
X175115Y7931D01*
X175237Y8858D01*
X175115Y9786D01*
X174757Y10650D01*
X174187Y11392D01*
X173445Y11962D01*
X172581Y12320D01*
X171653Y12442D01*
D02*
G37*
%LPD*%
D14*
X142283Y61024D02*
X153898Y72638D01*
X166929D02*
X207382Y113091D01*
X153898Y72638D02*
X166929D01*
X207382Y143405D02*
X213583Y149606D01*
X207382Y113091D02*
Y143405D01*
X102284Y61024D02*
X102323Y60984D01*
Y11850D02*
Y60984D01*
Y11850D02*
X102362Y11811D01*
X112244Y60984D02*
X112284Y61024D01*
X112244Y25630D02*
Y60984D01*
X112205Y25591D02*
X112244Y25630D01*
X38386Y41339D02*
X53150D01*
X62283Y50472D01*
Y61024D01*
X55118Y31496D02*
X72284Y48661D01*
X38386Y31496D02*
X55118D01*
X72284Y48661D02*
Y61024D01*
X82677Y37402D02*
Y53150D01*
X92520Y31496D02*
Y51181D01*
D42*
X275591Y157480D02*
X284449Y148622D01*
X272284Y61024D02*
X284449Y73189D01*
Y148622D01*
X167323Y157480D02*
X275591D01*
X176181Y169291D02*
X180274Y165199D01*
X183899D02*
X184055Y165354D01*
X180274Y165199D02*
X183899D01*
X166339Y169291D02*
X176181D01*
X124016Y143701D02*
Y159449D01*
Y129291D02*
Y143701D01*
X263779Y49213D02*
X277559D01*
X122047Y96457D02*
Y110787D01*
X132283Y121024D01*
X124016Y129291D02*
X132283Y121024D01*
X277559Y49213D02*
X287402Y59055D01*
D44*
X271654Y179134D02*
D03*
Y8858D02*
D03*
D45*
X261653Y179134D02*
D03*
X251654D02*
D03*
X241653D02*
D03*
X231653D02*
D03*
X221654D02*
D03*
X211653D02*
D03*
X201654D02*
D03*
X191654D02*
D03*
X181653D02*
D03*
X171653D02*
D03*
X261653Y8858D02*
D03*
X251654D02*
D03*
X241653D02*
D03*
X231653D02*
D03*
X221654D02*
D03*
X211653D02*
D03*
X201654D02*
D03*
X191654D02*
D03*
X181653D02*
D03*
X171653D02*
D03*
D46*
X184055Y165354D02*
D03*
X185039Y141795D02*
D03*
X213583Y149606D02*
D03*
X137795Y161417D02*
D03*
X167323Y157480D02*
D03*
X166339Y169291D02*
D03*
X235236Y32480D02*
D03*
X84646Y25591D02*
D03*
X102362Y11811D02*
D03*
X112205Y25591D02*
D03*
X38386Y41339D02*
D03*
Y31496D02*
D03*
X92520Y51181D02*
D03*
Y31496D02*
D03*
X108268Y171260D02*
D03*
X82677Y53150D02*
D03*
X242609Y46763D02*
D03*
X82677Y37402D02*
D03*
X124016Y143701D02*
D03*
Y159449D02*
D03*
D47*
X122047Y96457D02*
D03*
X11811Y125984D02*
D03*
X41339Y145669D02*
D03*
X263779Y49213D02*
D03*
X287402Y59055D02*
D03*
D48*
X252284Y121024D02*
D03*
X242284D02*
D03*
X232283D02*
D03*
X222284D02*
D03*
X212283D02*
D03*
X202284D02*
D03*
X192283D02*
D03*
X182283D02*
D03*
X172283D02*
D03*
X162284D02*
D03*
X152284D02*
D03*
X142283D02*
D03*
Y61024D02*
D03*
X152284D02*
D03*
X162284D02*
D03*
X172283D02*
D03*
X182283D02*
D03*
X192283D02*
D03*
X202284D02*
D03*
X212283D02*
D03*
X222284D02*
D03*
X232283D02*
D03*
X242284D02*
D03*
X262283Y121024D02*
D03*
X252284Y61024D02*
D03*
X262283D02*
D03*
X272284Y121024D02*
D03*
Y61024D02*
D03*
X132283Y121024D02*
D03*
Y61024D02*
D03*
X122283Y121024D02*
D03*
X112284D02*
D03*
X102284D02*
D03*
X92283D02*
D03*
X82284D02*
D03*
X72284D02*
D03*
X62283D02*
D03*
X52284D02*
D03*
X42283D02*
D03*
Y61024D02*
D03*
X52284D02*
D03*
X62283D02*
D03*
X72284D02*
D03*
X82284D02*
D03*
X92283D02*
D03*
X102284D02*
D03*
X112284D02*
D03*
X122283D02*
D03*
M02*
