G04*
G04 #@! TF.GenerationSoftware,Altium Limited,Altium Designer,20.2.6 (244)*
G04*
G04 Layer_Physical_Order=2*
G04 Layer_Color=16711680*
%FSLAX25Y25*%
%MOIN*%
G70*
G04*
G04 #@! TF.SameCoordinates,C2834271-33A1-44EC-96ED-C6C83E4A5B3B*
G04*
G04*
G04 #@! TF.FilePolarity,Positive*
G04*
G01*
G75*
%ADD11C,0.01000*%
%ADD56C,0.03937*%
%ADD64C,0.07874*%
%ADD65C,0.09843*%
%ADD66C,0.05906*%
%ADD67R,0.05906X0.05906*%
%ADD68R,0.09843X0.09843*%
%ADD69C,0.15748*%
%ADD70C,0.07087*%
%ADD71R,0.07087X0.07087*%
%ADD72C,0.29528*%
%ADD73R,0.09843X0.09843*%
%ADD74C,0.04331*%
G36*
X440797Y382550D02*
X440797Y347117D01*
X482677Y347117D01*
X482677Y83337D01*
X338434Y83337D01*
X334497Y87274D01*
Y104991D01*
X285285Y154204D01*
Y175636D01*
X288546D01*
X288574Y175569D01*
X289081Y174908D01*
X289742Y174400D01*
X290512Y174082D01*
X291339Y173973D01*
X292165Y174082D01*
X292935Y174400D01*
X293596Y174908D01*
X294104Y175569D01*
X294422Y176339D01*
X294531Y177165D01*
X294422Y177992D01*
X294104Y178762D01*
X293596Y179423D01*
X293075Y179823D01*
X293034Y179964D01*
Y180272D01*
X293075Y180413D01*
X293596Y180813D01*
X294104Y181474D01*
X294422Y182245D01*
X294531Y183071D01*
X294422Y183897D01*
X294104Y184667D01*
X293596Y185328D01*
X293075Y185728D01*
X293034Y185870D01*
Y186178D01*
X293075Y186319D01*
X293596Y186719D01*
X294104Y187380D01*
X294422Y188150D01*
X294531Y188976D01*
X294422Y189803D01*
X294104Y190573D01*
X293596Y191234D01*
X293075Y191634D01*
X293034Y191775D01*
Y192083D01*
X293075Y192225D01*
X293596Y192624D01*
X294104Y193286D01*
X294422Y194056D01*
X294531Y194882D01*
X294422Y195708D01*
X294104Y196478D01*
X293596Y197139D01*
X293075Y197539D01*
X293034Y197681D01*
Y197988D01*
X293075Y198130D01*
X293596Y198530D01*
X294104Y199191D01*
X294422Y199961D01*
X294531Y200787D01*
X294422Y201614D01*
X294104Y202384D01*
X293596Y203045D01*
X292935Y203552D01*
X292165Y203871D01*
X291339Y203980D01*
X290512Y203871D01*
X289742Y203552D01*
X289081Y203045D01*
X288574Y202384D01*
X288546Y202317D01*
X285285D01*
Y209322D01*
X285685D01*
X295527Y219164D01*
X295527Y274282D01*
X295482Y274744D01*
X295128Y275598D01*
X294475Y276252D01*
X293621Y276605D01*
X293159Y276651D01*
X293159Y276651D01*
X293159Y276651D01*
X193174Y275851D01*
X165354Y248031D01*
X165354Y196850D01*
X165392Y196466D01*
X165686Y195757D01*
X166229Y195214D01*
X166939Y194920D01*
X167707Y194920D01*
X168416Y195213D01*
X168959Y195757D01*
X169253Y196466D01*
X169291Y196850D01*
X169291Y196850D01*
X169291Y244094D01*
X197111Y271914D01*
X290790Y271914D01*
Y219748D01*
X281348Y210306D01*
Y202317D01*
X257874D01*
X257289Y202200D01*
X256793Y201869D01*
X233618Y178695D01*
X215240D01*
X214856Y179195D01*
X214195Y179702D01*
X213425Y180021D01*
X212598Y180130D01*
X211772Y180021D01*
X211002Y179702D01*
X210341Y179195D01*
X209834Y178533D01*
X209515Y177763D01*
X209406Y176937D01*
X209515Y176111D01*
X209834Y175341D01*
X210341Y174679D01*
X210687Y174414D01*
Y173783D01*
X210341Y173517D01*
X209834Y172856D01*
X209515Y172086D01*
X209406Y171260D01*
X209515Y170433D01*
X209834Y169664D01*
X210341Y169002D01*
X211002Y168495D01*
X211772Y168176D01*
X212598Y168067D01*
X213425Y168176D01*
X214195Y168495D01*
X214856Y169002D01*
X215363Y169664D01*
X215391Y169730D01*
X234252D01*
X234837Y169847D01*
X235333Y170178D01*
X258507Y193352D01*
X281348D01*
Y190506D01*
X257874D01*
X257289Y190389D01*
X256793Y190058D01*
X227713Y160978D01*
X216535D01*
X215950Y160862D01*
X215462Y160536D01*
X215393Y160564D01*
X214567Y160673D01*
X213741Y160564D01*
X212971Y160245D01*
X212309Y159738D01*
X211802Y159077D01*
X211483Y158307D01*
X211374Y157480D01*
X211483Y156654D01*
X211802Y155884D01*
X212309Y155223D01*
X212971Y154715D01*
X213741Y154396D01*
X214567Y154288D01*
X215393Y154396D01*
X216163Y154715D01*
X216825Y155223D01*
X217332Y155884D01*
X217651Y156654D01*
X217760Y157480D01*
X217751Y157544D01*
X218081Y157919D01*
X221979D01*
X222186Y157419D01*
X221366Y156599D01*
X221299Y156627D01*
X220472Y156736D01*
X219646Y156627D01*
X218876Y156308D01*
X218215Y155801D01*
X217707Y155140D01*
X217389Y154370D01*
X217280Y153543D01*
X217389Y152717D01*
X217707Y151947D01*
X218215Y151286D01*
X218876Y150778D01*
X219646Y150459D01*
X220472Y150351D01*
X221299Y150459D01*
X222069Y150778D01*
X222730Y151286D01*
X223243Y151134D01*
X223294Y150749D01*
X223613Y149978D01*
X224120Y149317D01*
X224782Y148810D01*
X225552Y148491D01*
X226378Y148382D01*
X227204Y148491D01*
X227974Y148810D01*
X228636Y149317D01*
X229143Y149978D01*
X229462Y150749D01*
X229571Y151575D01*
X229562Y151638D01*
X229892Y152014D01*
X235133D01*
X235718Y152130D01*
X236214Y152462D01*
X259388Y175636D01*
X281348D01*
Y152235D01*
X328592Y104991D01*
Y87274D01*
X322686Y81369D01*
X100245D01*
X100245Y40030D01*
X62844D01*
Y149606D01*
X90551D01*
Y173228D01*
X100394D01*
X118110Y198819D01*
Y275590D01*
X114173D01*
Y200787D01*
X98425Y177165D01*
X86614D01*
Y153543D01*
X62844D01*
Y154204D01*
X7726D01*
Y382550D01*
X440797Y382550D01*
D02*
G37*
%LPC*%
G36*
X90945Y372106D02*
X89656Y371936D01*
X88455Y371439D01*
X87424Y370647D01*
X86632Y369616D01*
X86135Y368415D01*
X85965Y367126D01*
X86135Y365837D01*
X86632Y364636D01*
X87424Y363605D01*
X88455Y362813D01*
X89656Y362316D01*
X90945Y362146D01*
X92234Y362316D01*
X93435Y362813D01*
X94466Y363605D01*
X95257Y364636D01*
X95755Y365837D01*
X95925Y367126D01*
X95755Y368415D01*
X95257Y369616D01*
X94466Y370647D01*
X93435Y371439D01*
X92234Y371936D01*
X90945Y372106D01*
D02*
G37*
G36*
X336614Y376240D02*
X334875Y376068D01*
X333202Y375561D01*
X331660Y374737D01*
X330309Y373628D01*
X329200Y372277D01*
X328376Y370735D01*
X327869Y369062D01*
X327697Y367323D01*
X327869Y365583D01*
X328376Y363911D01*
X329200Y362369D01*
X330309Y361018D01*
X331660Y359909D01*
X333202Y359085D01*
X334875Y358577D01*
X336614Y358406D01*
X338354Y358577D01*
X340026Y359085D01*
X341568Y359909D01*
X342919Y361018D01*
X344028Y362369D01*
X344852Y363911D01*
X345360Y365583D01*
X345531Y367323D01*
X345360Y369062D01*
X344852Y370735D01*
X344028Y372277D01*
X342919Y373628D01*
X341568Y374737D01*
X340026Y375561D01*
X338354Y376068D01*
X336614Y376240D01*
D02*
G37*
G36*
X397638Y365216D02*
X396349Y365046D01*
X395148Y364549D01*
X394117Y363757D01*
X393325Y362726D01*
X392828Y361525D01*
X392658Y360236D01*
X392828Y358947D01*
X393325Y357746D01*
X394117Y356715D01*
X395148Y355924D01*
X396349Y355426D01*
X397638Y355257D01*
X398927Y355426D01*
X400128Y355924D01*
X401159Y356715D01*
X401950Y357746D01*
X402448Y358947D01*
X402617Y360236D01*
X402448Y361525D01*
X401950Y362726D01*
X401159Y363757D01*
X400128Y364549D01*
X398927Y365046D01*
X397638Y365216D01*
D02*
G37*
G36*
Y345531D02*
X396349Y345361D01*
X395148Y344864D01*
X394117Y344072D01*
X393325Y343041D01*
X392828Y341840D01*
X392658Y340551D01*
X392828Y339262D01*
X393325Y338061D01*
X394117Y337030D01*
X395148Y336239D01*
X396349Y335741D01*
X397638Y335572D01*
X398927Y335741D01*
X400128Y336239D01*
X401159Y337030D01*
X401950Y338061D01*
X402448Y339262D01*
X402617Y340551D01*
X402448Y341840D01*
X401950Y343041D01*
X401159Y344072D01*
X400128Y344864D01*
X398927Y345361D01*
X397638Y345531D01*
D02*
G37*
G36*
X342535Y344504D02*
X330693D01*
Y332661D01*
X342535D01*
Y344504D01*
D02*
G37*
G36*
X90945Y322893D02*
X89656Y322723D01*
X88455Y322226D01*
X87424Y321434D01*
X86632Y320403D01*
X86135Y319202D01*
X85965Y317913D01*
X86135Y316625D01*
X86632Y315424D01*
X87424Y314392D01*
X88455Y313601D01*
X89656Y313104D01*
X90945Y312934D01*
X92234Y313104D01*
X93435Y313601D01*
X94466Y314392D01*
X95257Y315424D01*
X95755Y316625D01*
X95925Y317913D01*
X95755Y319202D01*
X95257Y320403D01*
X94466Y321434D01*
X93435Y322226D01*
X92234Y322723D01*
X90945Y322893D01*
D02*
G37*
G36*
X456693Y310279D02*
X455867Y310171D01*
X455097Y309852D01*
X454435Y309344D01*
X453928Y308683D01*
X453609Y307913D01*
X453500Y307087D01*
X453609Y306260D01*
X453928Y305490D01*
X454435Y304829D01*
X455097Y304322D01*
X455163Y304294D01*
Y295115D01*
X455097Y295088D01*
X454435Y294580D01*
X453928Y293919D01*
X453609Y293149D01*
X453500Y292323D01*
X453609Y291496D01*
X453928Y290726D01*
X454435Y290065D01*
X455097Y289558D01*
X455867Y289239D01*
X456693Y289130D01*
X457519Y289239D01*
X458289Y289558D01*
X458951Y290065D01*
X459458Y290726D01*
X459777Y291496D01*
X459886Y292323D01*
X459777Y293149D01*
X459458Y293919D01*
X458951Y294580D01*
X458289Y295088D01*
X458222Y295115D01*
Y304294D01*
X458289Y304322D01*
X458951Y304829D01*
X459458Y305490D01*
X459777Y306260D01*
X459886Y307087D01*
X459777Y307913D01*
X459458Y308683D01*
X458951Y309344D01*
X458289Y309852D01*
X457519Y310171D01*
X456693Y310279D01*
D02*
G37*
G36*
X43307Y278783D02*
X42481Y278674D01*
X41711Y278356D01*
X41050Y277848D01*
X40542Y277187D01*
X40223Y276417D01*
X40114Y275590D01*
X40223Y274764D01*
X40542Y273994D01*
X41050Y273333D01*
X41711Y272826D01*
X42481Y272507D01*
X43307Y272398D01*
X44133Y272507D01*
X44350Y272596D01*
X59291D01*
X64074Y267813D01*
X64164Y267597D01*
X64672Y266935D01*
X65333Y266428D01*
X66103Y266109D01*
X66929Y266000D01*
X67755Y266109D01*
X68525Y266428D01*
X69187Y266935D01*
X69694Y267597D01*
X70013Y268367D01*
X70122Y269193D01*
X70013Y270019D01*
X69694Y270789D01*
X69187Y271450D01*
X68525Y271958D01*
X68309Y272048D01*
X62649Y277708D01*
X62028Y278184D01*
X61306Y278483D01*
X60532Y278585D01*
X44350D01*
X44133Y278674D01*
X43307Y278783D01*
D02*
G37*
G36*
X457677Y270719D02*
X456645Y270583D01*
X455684Y270185D01*
X454858Y269551D01*
X454224Y268726D01*
X453826Y267764D01*
X453690Y266732D01*
X453826Y265700D01*
X454224Y264739D01*
X454858Y263913D01*
X455684Y263280D01*
X456645Y262881D01*
X457677Y262745D01*
X458709Y262881D01*
X459671Y263280D01*
X460496Y263913D01*
X461130Y264739D01*
X461528Y265700D01*
X461664Y266732D01*
X461528Y267764D01*
X461130Y268726D01*
X460496Y269551D01*
X459671Y270185D01*
X458709Y270583D01*
X457677Y270719D01*
D02*
G37*
G36*
X447677D02*
X446645Y270583D01*
X445684Y270185D01*
X444858Y269551D01*
X444225Y268726D01*
X443826Y267764D01*
X443690Y266732D01*
X443826Y265700D01*
X444225Y264739D01*
X444858Y263913D01*
X445684Y263280D01*
X446645Y262881D01*
X447677Y262745D01*
X448709Y262881D01*
X449671Y263280D01*
X450496Y263913D01*
X451130Y264739D01*
X451528Y265700D01*
X451664Y266732D01*
X451528Y267764D01*
X451130Y268726D01*
X450496Y269551D01*
X449671Y270185D01*
X448709Y270583D01*
X447677Y270719D01*
D02*
G37*
G36*
X437677D02*
X436645Y270583D01*
X435684Y270185D01*
X434858Y269551D01*
X434225Y268726D01*
X433826Y267764D01*
X433690Y266732D01*
X433826Y265700D01*
X434225Y264739D01*
X434858Y263913D01*
X435684Y263280D01*
X436645Y262881D01*
X437677Y262745D01*
X438709Y262881D01*
X439671Y263280D01*
X440496Y263913D01*
X441130Y264739D01*
X441528Y265700D01*
X441664Y266732D01*
X441528Y267764D01*
X441130Y268726D01*
X440496Y269551D01*
X439671Y270185D01*
X438709Y270583D01*
X437677Y270719D01*
D02*
G37*
G36*
X427677D02*
X426645Y270583D01*
X425684Y270185D01*
X424858Y269551D01*
X424225Y268726D01*
X423826Y267764D01*
X423690Y266732D01*
X423826Y265700D01*
X424225Y264739D01*
X424858Y263913D01*
X425684Y263280D01*
X426645Y262881D01*
X427677Y262745D01*
X428709Y262881D01*
X429671Y263280D01*
X430496Y263913D01*
X431130Y264739D01*
X431528Y265700D01*
X431664Y266732D01*
X431528Y267764D01*
X431130Y268726D01*
X430496Y269551D01*
X429671Y270185D01*
X428709Y270583D01*
X427677Y270719D01*
D02*
G37*
G36*
X417677D02*
X416645Y270583D01*
X415684Y270185D01*
X414858Y269551D01*
X414224Y268726D01*
X413826Y267764D01*
X413690Y266732D01*
X413826Y265700D01*
X414224Y264739D01*
X414858Y263913D01*
X415684Y263280D01*
X416645Y262881D01*
X417677Y262745D01*
X418709Y262881D01*
X419671Y263280D01*
X420496Y263913D01*
X421130Y264739D01*
X421528Y265700D01*
X421664Y266732D01*
X421528Y267764D01*
X421130Y268726D01*
X420496Y269551D01*
X419671Y270185D01*
X418709Y270583D01*
X417677Y270719D01*
D02*
G37*
G36*
X407677D02*
X406645Y270583D01*
X405684Y270185D01*
X404858Y269551D01*
X404224Y268726D01*
X403826Y267764D01*
X403690Y266732D01*
X403826Y265700D01*
X404224Y264739D01*
X404858Y263913D01*
X405684Y263280D01*
X406645Y262881D01*
X407677Y262745D01*
X408709Y262881D01*
X409671Y263280D01*
X410496Y263913D01*
X411130Y264739D01*
X411528Y265700D01*
X411664Y266732D01*
X411528Y267764D01*
X411130Y268726D01*
X410496Y269551D01*
X409671Y270185D01*
X408709Y270583D01*
X407677Y270719D01*
D02*
G37*
G36*
X397677D02*
X396645Y270583D01*
X395684Y270185D01*
X394858Y269551D01*
X394225Y268726D01*
X393826Y267764D01*
X393690Y266732D01*
X393826Y265700D01*
X394225Y264739D01*
X394858Y263913D01*
X395684Y263280D01*
X396645Y262881D01*
X397677Y262745D01*
X398709Y262881D01*
X399671Y263280D01*
X400496Y263913D01*
X401130Y264739D01*
X401528Y265700D01*
X401664Y266732D01*
X401528Y267764D01*
X401130Y268726D01*
X400496Y269551D01*
X399671Y270185D01*
X398709Y270583D01*
X397677Y270719D01*
D02*
G37*
G36*
X387677D02*
X386645Y270583D01*
X385684Y270185D01*
X384858Y269551D01*
X384225Y268726D01*
X383826Y267764D01*
X383690Y266732D01*
X383826Y265700D01*
X384225Y264739D01*
X384858Y263913D01*
X385684Y263280D01*
X386645Y262881D01*
X387677Y262745D01*
X388709Y262881D01*
X389671Y263280D01*
X390496Y263913D01*
X391130Y264739D01*
X391528Y265700D01*
X391664Y266732D01*
X391528Y267764D01*
X391130Y268726D01*
X390496Y269551D01*
X389671Y270185D01*
X388709Y270583D01*
X387677Y270719D01*
D02*
G37*
G36*
X377677D02*
X376645Y270583D01*
X375684Y270185D01*
X374858Y269551D01*
X374224Y268726D01*
X373826Y267764D01*
X373690Y266732D01*
X373826Y265700D01*
X374224Y264739D01*
X374858Y263913D01*
X375684Y263280D01*
X376645Y262881D01*
X377677Y262745D01*
X378709Y262881D01*
X379671Y263280D01*
X380496Y263913D01*
X381130Y264739D01*
X381528Y265700D01*
X381664Y266732D01*
X381528Y267764D01*
X381130Y268726D01*
X380496Y269551D01*
X379671Y270185D01*
X378709Y270583D01*
X377677Y270719D01*
D02*
G37*
G36*
X367677D02*
X366645Y270583D01*
X365684Y270185D01*
X364858Y269551D01*
X364225Y268726D01*
X363826Y267764D01*
X363690Y266732D01*
X363826Y265700D01*
X364225Y264739D01*
X364858Y263913D01*
X365684Y263280D01*
X366645Y262881D01*
X367677Y262745D01*
X368709Y262881D01*
X369671Y263280D01*
X370496Y263913D01*
X371130Y264739D01*
X371528Y265700D01*
X371664Y266732D01*
X371528Y267764D01*
X371130Y268726D01*
X370496Y269551D01*
X369671Y270185D01*
X368709Y270583D01*
X367677Y270719D01*
D02*
G37*
G36*
X181102Y236270D02*
X180070Y236135D01*
X179109Y235736D01*
X178283Y235103D01*
X177650Y234277D01*
X177251Y233315D01*
X177115Y232283D01*
X177251Y231252D01*
X177650Y230290D01*
X178283Y229464D01*
X179109Y228831D01*
X180070Y228432D01*
X181102Y228297D01*
X182134Y228432D01*
X183096Y228831D01*
X183922Y229464D01*
X184555Y230290D01*
X184953Y231252D01*
X185089Y232283D01*
X184953Y233315D01*
X184555Y234277D01*
X183922Y235103D01*
X183096Y235736D01*
X182134Y236135D01*
X181102Y236270D01*
D02*
G37*
G36*
X102362D02*
X101330Y236135D01*
X100369Y235736D01*
X99543Y235103D01*
X98909Y234277D01*
X98511Y233315D01*
X98375Y232283D01*
X98511Y231252D01*
X98909Y230290D01*
X99543Y229464D01*
X100369Y228831D01*
X101330Y228432D01*
X102362Y228297D01*
X103394Y228432D01*
X104356Y228831D01*
X105181Y229464D01*
X105815Y230290D01*
X106213Y231252D01*
X106349Y232283D01*
X106213Y233315D01*
X105815Y234277D01*
X105181Y235103D01*
X104356Y235736D01*
X103394Y236135D01*
X102362Y236270D01*
D02*
G37*
G36*
X64961Y239808D02*
X63800Y239694D01*
X62684Y239355D01*
X61655Y238805D01*
X60753Y238066D01*
X60014Y237164D01*
X59464Y236135D01*
X59125Y235019D01*
X59011Y233858D01*
X59125Y232698D01*
X59464Y231581D01*
X60014Y230553D01*
X60753Y229651D01*
X61655Y228911D01*
X62684Y228361D01*
X63800Y228023D01*
X64961Y227908D01*
X66121Y228023D01*
X67238Y228361D01*
X68266Y228911D01*
X69168Y229651D01*
X69908Y230553D01*
X70458Y231581D01*
X70796Y232698D01*
X70911Y233858D01*
X70796Y235019D01*
X70458Y236135D01*
X69908Y237164D01*
X69168Y238066D01*
X68266Y238805D01*
X67238Y239355D01*
X66121Y239694D01*
X64961Y239808D01*
D02*
G37*
G36*
X14961Y231304D02*
X13800Y231190D01*
X12684Y230851D01*
X11655Y230301D01*
X10753Y229562D01*
X10013Y228660D01*
X9464Y227631D01*
X9125Y226515D01*
X9011Y225354D01*
X9125Y224194D01*
X9464Y223077D01*
X10013Y222049D01*
X10753Y221147D01*
X11655Y220407D01*
X12684Y219857D01*
X13800Y219519D01*
X14961Y219404D01*
X16121Y219519D01*
X17238Y219857D01*
X18266Y220407D01*
X19168Y221147D01*
X19908Y222049D01*
X20458Y223077D01*
X20796Y224194D01*
X20910Y225354D01*
X20796Y226515D01*
X20458Y227631D01*
X19908Y228660D01*
X19168Y229562D01*
X18266Y230301D01*
X17238Y230851D01*
X16121Y231190D01*
X14961Y231304D01*
D02*
G37*
G36*
X64961Y221304D02*
X63800Y221190D01*
X62684Y220851D01*
X61655Y220302D01*
X60753Y219562D01*
X60014Y218660D01*
X59464Y217631D01*
X59125Y216515D01*
X59011Y215354D01*
X59125Y214194D01*
X59464Y213077D01*
X60014Y212049D01*
X60753Y211147D01*
X61655Y210407D01*
X62684Y209857D01*
X63800Y209519D01*
X64961Y209404D01*
X66121Y209519D01*
X67238Y209857D01*
X68266Y210407D01*
X69168Y211147D01*
X69908Y212049D01*
X70458Y213077D01*
X70796Y214194D01*
X70911Y215354D01*
X70796Y216515D01*
X70458Y217631D01*
X69908Y218660D01*
X69168Y219562D01*
X68266Y220302D01*
X67238Y220851D01*
X66121Y221190D01*
X64961Y221304D01*
D02*
G37*
G36*
X14961Y211304D02*
X13800Y211190D01*
X12684Y210851D01*
X11655Y210301D01*
X10753Y209562D01*
X10013Y208660D01*
X9464Y207631D01*
X9125Y206515D01*
X9011Y205354D01*
X9125Y204194D01*
X9464Y203077D01*
X10013Y202049D01*
X10753Y201147D01*
X11655Y200407D01*
X12684Y199857D01*
X13800Y199519D01*
X14961Y199404D01*
X16121Y199519D01*
X17238Y199857D01*
X18266Y200407D01*
X19168Y201147D01*
X19908Y202049D01*
X20458Y203077D01*
X20796Y204194D01*
X20910Y205354D01*
X20796Y206515D01*
X20458Y207631D01*
X19908Y208660D01*
X19168Y209562D01*
X18266Y210301D01*
X17238Y210851D01*
X16121Y211190D01*
X14961Y211304D01*
D02*
G37*
G36*
X64961Y202800D02*
X63800Y202686D01*
X62684Y202347D01*
X61655Y201798D01*
X60753Y201058D01*
X60014Y200156D01*
X59464Y199127D01*
X59125Y198011D01*
X59011Y196850D01*
X59125Y195690D01*
X59464Y194573D01*
X60014Y193545D01*
X60753Y192643D01*
X61655Y191903D01*
X62684Y191353D01*
X63800Y191015D01*
X64961Y190901D01*
X66121Y191015D01*
X67238Y191353D01*
X68266Y191903D01*
X69168Y192643D01*
X69908Y193545D01*
X70458Y194573D01*
X70796Y195690D01*
X70911Y196850D01*
X70796Y198011D01*
X70458Y199127D01*
X69908Y200156D01*
X69168Y201058D01*
X68266Y201798D01*
X67238Y202347D01*
X66121Y202686D01*
X64961Y202800D01*
D02*
G37*
G36*
X61039Y173244D02*
X49197D01*
Y161402D01*
X61039D01*
Y173244D01*
D02*
G37*
G36*
X360236Y160673D02*
X359410Y160564D01*
X359193Y160474D01*
X341594D01*
X341377Y160564D01*
X340551Y160673D01*
X339725Y160564D01*
X338955Y160245D01*
X338294Y159738D01*
X337786Y159077D01*
X337467Y158307D01*
X337358Y157480D01*
X337467Y156654D01*
X337786Y155884D01*
X338294Y155223D01*
X338955Y154715D01*
X339725Y154396D01*
X340551Y154288D01*
X341377Y154396D01*
X341594Y154486D01*
X359193D01*
X359410Y154396D01*
X360236Y154288D01*
X361063Y154396D01*
X361832Y154715D01*
X362494Y155223D01*
X363001Y155884D01*
X363320Y156654D01*
X363429Y157480D01*
X363320Y158307D01*
X363001Y159077D01*
X362494Y159738D01*
X361832Y160245D01*
X361063Y160564D01*
X360236Y160673D01*
D02*
G37*
G36*
X26378Y176240D02*
X24638Y176068D01*
X22966Y175561D01*
X21424Y174737D01*
X20073Y173628D01*
X18964Y172277D01*
X18140Y170735D01*
X17632Y169062D01*
X17461Y167323D01*
X17632Y165583D01*
X18140Y163910D01*
X18964Y162369D01*
X20073Y161018D01*
X21424Y159909D01*
X22966Y159085D01*
X24638Y158577D01*
X26378Y158406D01*
X28118Y158577D01*
X29790Y159085D01*
X31332Y159909D01*
X32683Y161018D01*
X33792Y162369D01*
X34616Y163910D01*
X35124Y165583D01*
X35295Y167323D01*
X35124Y169062D01*
X34616Y170735D01*
X33792Y172277D01*
X32683Y173628D01*
X31332Y174737D01*
X29790Y175561D01*
X28118Y176068D01*
X26378Y176240D01*
D02*
G37*
G36*
X471630Y100409D02*
X463724D01*
Y92504D01*
X471630D01*
Y100409D01*
D02*
G37*
G36*
X457677Y100444D02*
X456645Y100308D01*
X455684Y99909D01*
X454858Y99276D01*
X454224Y98450D01*
X453826Y97489D01*
X453690Y96457D01*
X453826Y95425D01*
X454224Y94463D01*
X454858Y93638D01*
X455684Y93004D01*
X456645Y92606D01*
X457677Y92470D01*
X458709Y92606D01*
X459671Y93004D01*
X460496Y93638D01*
X461130Y94463D01*
X461528Y95425D01*
X461664Y96457D01*
X461528Y97489D01*
X461130Y98450D01*
X460496Y99276D01*
X459671Y99909D01*
X458709Y100308D01*
X457677Y100444D01*
D02*
G37*
G36*
X447677D02*
X446645Y100308D01*
X445684Y99909D01*
X444858Y99276D01*
X444225Y98450D01*
X443826Y97489D01*
X443690Y96457D01*
X443826Y95425D01*
X444225Y94463D01*
X444858Y93638D01*
X445684Y93004D01*
X446645Y92606D01*
X447677Y92470D01*
X448709Y92606D01*
X449671Y93004D01*
X450496Y93638D01*
X451130Y94463D01*
X451528Y95425D01*
X451664Y96457D01*
X451528Y97489D01*
X451130Y98450D01*
X450496Y99276D01*
X449671Y99909D01*
X448709Y100308D01*
X447677Y100444D01*
D02*
G37*
G36*
X437677D02*
X436645Y100308D01*
X435684Y99909D01*
X434858Y99276D01*
X434225Y98450D01*
X433826Y97489D01*
X433690Y96457D01*
X433826Y95425D01*
X434225Y94463D01*
X434858Y93638D01*
X435684Y93004D01*
X436645Y92606D01*
X437677Y92470D01*
X438709Y92606D01*
X439671Y93004D01*
X440496Y93638D01*
X441130Y94463D01*
X441528Y95425D01*
X441664Y96457D01*
X441528Y97489D01*
X441130Y98450D01*
X440496Y99276D01*
X439671Y99909D01*
X438709Y100308D01*
X437677Y100444D01*
D02*
G37*
G36*
X427677D02*
X426645Y100308D01*
X425684Y99909D01*
X424858Y99276D01*
X424225Y98450D01*
X423826Y97489D01*
X423690Y96457D01*
X423826Y95425D01*
X424225Y94463D01*
X424858Y93638D01*
X425684Y93004D01*
X426645Y92606D01*
X427677Y92470D01*
X428709Y92606D01*
X429671Y93004D01*
X430496Y93638D01*
X431130Y94463D01*
X431528Y95425D01*
X431664Y96457D01*
X431528Y97489D01*
X431130Y98450D01*
X430496Y99276D01*
X429671Y99909D01*
X428709Y100308D01*
X427677Y100444D01*
D02*
G37*
G36*
X417677D02*
X416645Y100308D01*
X415684Y99909D01*
X414858Y99276D01*
X414224Y98450D01*
X413826Y97489D01*
X413690Y96457D01*
X413826Y95425D01*
X414224Y94463D01*
X414858Y93638D01*
X415684Y93004D01*
X416645Y92606D01*
X417677Y92470D01*
X418709Y92606D01*
X419671Y93004D01*
X420496Y93638D01*
X421130Y94463D01*
X421528Y95425D01*
X421664Y96457D01*
X421528Y97489D01*
X421130Y98450D01*
X420496Y99276D01*
X419671Y99909D01*
X418709Y100308D01*
X417677Y100444D01*
D02*
G37*
G36*
X407677D02*
X406645Y100308D01*
X405684Y99909D01*
X404858Y99276D01*
X404224Y98450D01*
X403826Y97489D01*
X403690Y96457D01*
X403826Y95425D01*
X404224Y94463D01*
X404858Y93638D01*
X405684Y93004D01*
X406645Y92606D01*
X407677Y92470D01*
X408709Y92606D01*
X409671Y93004D01*
X410496Y93638D01*
X411130Y94463D01*
X411528Y95425D01*
X411664Y96457D01*
X411528Y97489D01*
X411130Y98450D01*
X410496Y99276D01*
X409671Y99909D01*
X408709Y100308D01*
X407677Y100444D01*
D02*
G37*
G36*
X397677D02*
X396645Y100308D01*
X395684Y99909D01*
X394858Y99276D01*
X394225Y98450D01*
X393826Y97489D01*
X393690Y96457D01*
X393826Y95425D01*
X394225Y94463D01*
X394858Y93638D01*
X395684Y93004D01*
X396645Y92606D01*
X397677Y92470D01*
X398709Y92606D01*
X399671Y93004D01*
X400496Y93638D01*
X401130Y94463D01*
X401528Y95425D01*
X401664Y96457D01*
X401528Y97489D01*
X401130Y98450D01*
X400496Y99276D01*
X399671Y99909D01*
X398709Y100308D01*
X397677Y100444D01*
D02*
G37*
G36*
X387677D02*
X386645Y100308D01*
X385684Y99909D01*
X384858Y99276D01*
X384225Y98450D01*
X383826Y97489D01*
X383690Y96457D01*
X383826Y95425D01*
X384225Y94463D01*
X384858Y93638D01*
X385684Y93004D01*
X386645Y92606D01*
X387677Y92470D01*
X388709Y92606D01*
X389671Y93004D01*
X390496Y93638D01*
X391130Y94463D01*
X391528Y95425D01*
X391664Y96457D01*
X391528Y97489D01*
X391130Y98450D01*
X390496Y99276D01*
X389671Y99909D01*
X388709Y100308D01*
X387677Y100444D01*
D02*
G37*
G36*
X377677D02*
X376645Y100308D01*
X375684Y99909D01*
X374858Y99276D01*
X374224Y98450D01*
X373826Y97489D01*
X373690Y96457D01*
X373826Y95425D01*
X374224Y94463D01*
X374858Y93638D01*
X375684Y93004D01*
X376645Y92606D01*
X377677Y92470D01*
X378709Y92606D01*
X379671Y93004D01*
X380496Y93638D01*
X381130Y94463D01*
X381528Y95425D01*
X381664Y96457D01*
X381528Y97489D01*
X381130Y98450D01*
X380496Y99276D01*
X379671Y99909D01*
X378709Y100308D01*
X377677Y100444D01*
D02*
G37*
G36*
X367677D02*
X366645Y100308D01*
X365684Y99909D01*
X364858Y99276D01*
X364225Y98450D01*
X363826Y97489D01*
X363690Y96457D01*
X363826Y95425D01*
X364225Y94463D01*
X364858Y93638D01*
X365684Y93004D01*
X366645Y92606D01*
X367677Y92470D01*
X368709Y92606D01*
X369671Y93004D01*
X370496Y93638D01*
X371130Y94463D01*
X371528Y95425D01*
X371664Y96457D01*
X371528Y97489D01*
X371130Y98450D01*
X370496Y99276D01*
X369671Y99909D01*
X368709Y100308D01*
X367677Y100444D01*
D02*
G37*
G36*
X91551Y60252D02*
X79709D01*
Y48409D01*
X91551D01*
Y60252D01*
D02*
G37*
%LPD*%
D11*
X212598Y176937D02*
X212827Y177165D01*
X234252D01*
X258755Y177165D02*
X291339D01*
X235133Y153543D02*
X258755Y177165D01*
X257874Y183071D02*
X291339D01*
X257874Y188976D02*
X291339D01*
X257874Y194882D02*
X291339D01*
X234252Y171260D02*
X257874Y194882D01*
Y200787D02*
X291339D01*
X456693Y292323D02*
Y307087D01*
X234252Y177165D02*
X257874Y200787D01*
X228346Y159449D02*
X257874Y188976D01*
X231299Y156496D02*
X257874Y183071D01*
X212598Y171260D02*
X234252D01*
X216535Y159449D02*
X228346D01*
X214567Y157480D02*
X216535Y159449D01*
X223425Y156496D02*
X231299D01*
X220472Y153543D02*
X223425Y156496D01*
X228346Y153543D02*
X235133D01*
X226378Y151575D02*
X228346Y153543D01*
X396654Y266732D02*
X397677D01*
X367677D02*
X367677D01*
D56*
X43307Y275590D02*
X60532D01*
X66929Y269193D01*
X340551Y157480D02*
X360236D01*
D64*
X90945Y367126D02*
D03*
Y317913D02*
D03*
X397638Y340551D02*
D03*
Y360236D02*
D03*
D65*
X64961Y215354D02*
D03*
X14961Y205354D02*
D03*
X64961Y215354D02*
D03*
X14961Y205354D02*
D03*
X64961Y196850D02*
D03*
D03*
Y233858D02*
D03*
D03*
X14961Y225354D02*
D03*
D03*
X85630Y75984D02*
D03*
X76772Y167323D02*
D03*
X336614Y316929D02*
D03*
D66*
X377677Y96457D02*
D03*
X397677D02*
D03*
X407677D02*
D03*
X367677D02*
D03*
X387677D02*
D03*
X417677D02*
D03*
X427677D02*
D03*
X437677D02*
D03*
X447677D02*
D03*
X457677D02*
D03*
X102362Y232283D02*
D03*
X181102D02*
D03*
X188976Y240158D02*
D03*
X110236D02*
D03*
X457677Y266732D02*
D03*
X447677D02*
D03*
X437677D02*
D03*
X427677D02*
D03*
X417677D02*
D03*
X407677D02*
D03*
X397677D02*
D03*
X387677D02*
D03*
X377677D02*
D03*
X367677D02*
D03*
D67*
X467677Y96457D02*
D03*
Y266732D02*
D03*
D68*
X85630Y54331D02*
D03*
X336614Y338583D02*
D03*
D69*
X85630Y25591D02*
D03*
X26378Y167323D02*
D03*
X336614Y367323D02*
D03*
D70*
X464567Y68898D02*
D03*
X437008D02*
D03*
X423228Y49213D02*
D03*
X409449Y68898D02*
D03*
X395669Y49213D02*
D03*
X381890Y68898D02*
D03*
X450787Y49213D02*
D03*
X220472Y68898D02*
D03*
X192913D02*
D03*
X179134Y49213D02*
D03*
X165354Y68898D02*
D03*
X151575Y49213D02*
D03*
X137795Y68898D02*
D03*
X206693Y49213D02*
D03*
X342520Y68898D02*
D03*
X314961D02*
D03*
X301181Y49213D02*
D03*
X287402Y68898D02*
D03*
X273622Y49213D02*
D03*
X259842Y68898D02*
D03*
X328740Y49213D02*
D03*
D71*
X478346D02*
D03*
X234252D02*
D03*
X356299D02*
D03*
D72*
X464567Y366142D02*
D03*
X27559Y27559D02*
D03*
D73*
X55118Y167323D02*
D03*
D74*
X211024Y225590D02*
D03*
X198819Y194882D02*
D03*
X157480Y253937D02*
D03*
X151575D02*
D03*
X183071Y196850D02*
D03*
X151575Y259842D02*
D03*
X157480D02*
D03*
X242126Y251969D02*
D03*
X212598Y176937D02*
D03*
X41339Y246063D02*
D03*
X47244D02*
D03*
Y251969D02*
D03*
X41339D02*
D03*
X43307Y275590D02*
D03*
X66929Y269193D02*
D03*
X244035Y152273D02*
D03*
X259842Y224410D02*
D03*
X226378Y221654D02*
D03*
X62992Y251969D02*
D03*
X291339Y177165D02*
D03*
Y183071D02*
D03*
Y188976D02*
D03*
Y194882D02*
D03*
Y200787D02*
D03*
X456693Y292323D02*
D03*
X192913Y280118D02*
D03*
Y285039D02*
D03*
X198819D02*
D03*
Y280118D02*
D03*
X128937Y207677D02*
D03*
X151575Y171260D02*
D03*
X157480D02*
D03*
X271654Y322835D02*
D03*
Y328108D02*
D03*
X456693Y307087D02*
D03*
X435039Y244094D02*
D03*
X194882Y320866D02*
D03*
X200787D02*
D03*
X279528Y222441D02*
D03*
X236221Y314961D02*
D03*
X287402Y334646D02*
D03*
X289370Y287402D02*
D03*
X379921Y328740D02*
D03*
X381890Y316929D02*
D03*
X269685Y206693D02*
D03*
X279528D02*
D03*
Y171260D02*
D03*
X269685D02*
D03*
X259842Y206693D02*
D03*
Y171260D02*
D03*
X126378Y124409D02*
D03*
X126772Y101969D02*
D03*
X340551Y157480D02*
D03*
X360236D02*
D03*
X212598Y171260D02*
D03*
X214567Y157480D02*
D03*
X220472Y153543D02*
D03*
X226378Y151575D02*
D03*
X257874Y144488D02*
D03*
X232283Y188976D02*
D03*
X237939D02*
D03*
X126378Y147244D02*
D03*
X324337Y87868D02*
D03*
X303150Y87008D02*
D03*
X280315Y86614D02*
D03*
X167717Y86221D02*
D03*
X97047Y186417D02*
D03*
X174213Y314961D02*
D03*
X257874Y87008D02*
D03*
X235433D02*
D03*
X212598Y86614D02*
D03*
X190157D02*
D03*
M02*
