G04*
G04 #@! TF.GenerationSoftware,Altium Limited,Altium Designer,20.2.6 (244)*
G04*
G04 Layer_Physical_Order=1*
G04 Layer_Color=255*
%FSLAX25Y25*%
%MOIN*%
G70*
G04*
G04 #@! TF.SameCoordinates,C2834271-33A1-44EC-96ED-C6C83E4A5B3B*
G04*
G04*
G04 #@! TF.FilePolarity,Positive*
G04*
G01*
G75*
%ADD11C,0.01000*%
%ADD14R,0.03543X0.03150*%
%ADD15R,0.03150X0.03543*%
%ADD41R,0.21260X0.11417*%
%ADD42R,0.06693X0.04528*%
%ADD43R,0.05709X0.04921*%
%ADD44R,0.08465X0.12795*%
%ADD45R,0.08465X0.03543*%
%ADD46R,0.05512X0.04724*%
%ADD47R,0.04724X0.05512*%
%ADD48R,0.13780X0.09843*%
%ADD49R,0.01772X0.03740*%
%ADD50R,0.04724X0.04724*%
%ADD51R,0.04921X0.05709*%
%ADD52R,0.06102X0.02362*%
%ADD53R,0.03740X0.03543*%
%ADD54R,0.01417X0.06299*%
%ADD55C,0.12992*%
%ADD56C,0.03937*%
%ADD57C,0.02000*%
%ADD58C,0.13780*%
%ADD59C,0.07874*%
%ADD60C,0.11811*%
%ADD61C,0.04724*%
%ADD62C,0.04331*%
%ADD63C,0.01968*%
%ADD64C,0.07874*%
%ADD65C,0.09843*%
%ADD66C,0.05906*%
%ADD67R,0.05906X0.05906*%
%ADD68R,0.09843X0.09843*%
%ADD69C,0.15748*%
%ADD70C,0.07087*%
%ADD71R,0.07087X0.07087*%
%ADD72C,0.29528*%
%ADD73R,0.09843X0.09843*%
%ADD74C,0.04331*%
G36*
X51181Y255906D02*
X51181Y242126D01*
X37402Y242126D01*
X37402Y255906D01*
X51181Y255906D01*
D02*
G37*
G36*
X201969Y288189D02*
X201969Y277165D01*
X186614Y277165D01*
X161417Y251969D01*
Y250000D01*
X147638Y250000D01*
X147638Y263779D01*
X172047Y288189D01*
X201969Y288189D01*
D02*
G37*
D11*
X173228Y240158D02*
X198819Y265748D01*
X173228Y185039D02*
Y240158D01*
X198819Y265748D02*
X268504D01*
X131856Y124409D02*
X132644Y123622D01*
X212370Y177165D02*
X212598Y176937D01*
X208661Y177165D02*
X212370D01*
X240396Y169514D02*
Y186249D01*
X239439Y165000D02*
X239648Y165209D01*
Y168766D01*
X237939Y188706D02*
Y188976D01*
Y188706D02*
X240396Y186249D01*
X239648Y168766D02*
X240396Y169514D01*
X239439Y156869D02*
X244035Y152273D01*
X239439Y156869D02*
Y165000D01*
X231740Y153543D02*
X234350Y156154D01*
Y164911D02*
X234439Y165000D01*
X234350Y156154D02*
Y164911D01*
X226378Y151575D02*
X226661D01*
X228629Y153543D01*
X231740D01*
X259842Y224410D02*
Y248031D01*
X263492Y251681D01*
X251969Y208661D02*
X270641Y227334D01*
X251969Y173228D02*
Y208661D01*
X270641Y227334D02*
Y230786D01*
X263492Y251681D02*
X266642D01*
X387205Y96457D02*
X387795Y95866D01*
X407205Y96457D02*
X408032Y95630D01*
X397205Y95129D02*
Y96457D01*
X353937Y324803D02*
Y334646D01*
X360787Y341496D02*
X362402D01*
X353937Y334646D02*
X360787Y341496D01*
X362598Y316142D02*
Y317323D01*
X353937Y324803D02*
X362205Y316535D01*
X362598Y316142D02*
X364067Y314673D01*
X211024Y225590D02*
X216626D01*
X224410Y233374D01*
X450787Y49213D02*
Y82874D01*
X437205Y96457D02*
X450787Y82874D01*
X464528Y68937D02*
X464567Y68898D01*
X447205Y96457D02*
X464528Y79134D01*
Y68937D02*
Y79134D01*
X457205Y96457D02*
X478346Y75315D01*
Y49213D02*
X478346Y49213D01*
X478346Y49213D02*
Y75315D01*
X437008Y68898D02*
Y86654D01*
X427205Y96457D02*
X437008Y86654D01*
X417205Y96457D02*
X423228Y90433D01*
Y49213D02*
Y90433D01*
X409449Y68898D02*
Y92885D01*
X407205Y95129D02*
X409449Y92885D01*
X407205Y95129D02*
Y96457D01*
X395669Y49213D02*
X396437Y49980D01*
Y95689D01*
X397205Y96457D01*
X381890Y68898D02*
X387205Y74213D01*
Y96457D01*
X318898Y72835D02*
X326772D01*
X346457Y92520D02*
Y185039D01*
X326772Y72835D02*
X346457Y92520D01*
X352362Y90551D02*
Y181417D01*
X336614Y57087D02*
Y74803D01*
X352362Y90551D01*
X346457Y185039D02*
X427165Y265748D01*
X328740Y49213D02*
X336614Y57087D01*
X314961Y68898D02*
X318898Y72835D01*
X287402Y68898D02*
X295276D01*
X313456Y89834D02*
X313976Y90354D01*
X295276Y68898D02*
X313456Y87078D01*
Y89834D01*
X273622Y49213D02*
X274016Y49606D01*
Y72441D01*
X259842Y68898D02*
X260236Y69291D01*
Y81299D01*
X234252Y49213D02*
X234646Y49606D01*
Y78813D01*
X220472Y87211D02*
X223616Y90354D01*
X220472Y68898D02*
Y87211D01*
X206693Y49213D02*
X207087Y49606D01*
Y85100D01*
X192913Y68898D02*
X193307Y69291D01*
Y76308D01*
X179134Y49213D02*
X179527Y49606D01*
Y67516D01*
X145669Y88583D02*
X165354Y68898D01*
X127953Y88583D02*
X145669D01*
X127953Y79134D02*
X128347Y78740D01*
X114173Y92913D02*
X127953Y79134D01*
X151575Y49213D02*
Y66929D01*
X139370Y79134D02*
X151575Y66929D01*
X127953Y79134D02*
X139370D01*
X125984Y68898D02*
X137795D01*
X341903Y68675D02*
X366296Y93068D01*
Y95548D01*
X377165Y106417D01*
X436850Y265905D02*
Y267559D01*
X318898Y177165D02*
X408257Y266524D01*
X291339Y177165D02*
X318898D01*
X291339Y183071D02*
X314961D01*
X291339Y188976D02*
X309921D01*
X291339Y194882D02*
X305827D01*
X377677Y266732D01*
X291339Y200787D02*
X301181D01*
X268504Y253543D02*
Y253937D01*
X266642Y251681D02*
X268504Y253543D01*
X270641Y230786D02*
X271350Y231496D01*
X249439Y170699D02*
X251969Y173228D01*
X456693Y267717D02*
X457677Y266732D01*
X456693Y267717D02*
Y292323D01*
X72441Y276181D02*
X72835Y276575D01*
X372047Y307087D02*
X456693D01*
X364461Y314673D02*
X372047Y307087D01*
X224409Y233374D02*
X224410Y233374D01*
X278740Y253937D02*
Y265748D01*
X259842Y168338D02*
Y171260D01*
X309921Y188976D02*
X387677Y266732D01*
X314961Y183071D02*
X397638Y265748D01*
X256465Y164961D02*
X259842Y168338D01*
X204724Y169291D02*
Y173228D01*
X208661Y177165D01*
X204724Y169291D02*
X208661Y165354D01*
X224439Y165000D02*
Y165146D01*
X224230Y165354D02*
X224439Y165146D01*
X208661Y165354D02*
X224230D01*
X364067Y314673D02*
X364461D01*
X244439Y161821D02*
X246811Y159449D01*
X244439Y161821D02*
Y165000D01*
X108268Y86614D02*
Y147052D01*
X130709Y158004D02*
Y158398D01*
X128846Y156142D02*
X130709Y158004D01*
X117358Y156142D02*
X128846D01*
X108268Y147052D02*
X117358Y156142D01*
X108268Y86614D02*
X125984Y68898D01*
X114173Y118898D02*
X130709Y135433D01*
X114173Y92913D02*
Y118898D01*
X120079Y102632D02*
X130709Y113262D01*
X120079Y96457D02*
Y102632D01*
Y96457D02*
X127953Y88583D01*
X126378Y124409D02*
X131856D01*
X126772Y101969D02*
X133161D01*
X132644Y123622D02*
X133555Y124533D01*
X130709Y135433D02*
Y135827D01*
Y113262D02*
Y113656D01*
X156690Y90354D02*
X179527Y67516D01*
X156296Y90354D02*
X156690D01*
X179261Y90354D02*
X193307Y76308D01*
X178867Y90354D02*
X179261D01*
X201832D02*
X207087Y85100D01*
X201438Y90354D02*
X201832D01*
X234646Y78813D02*
X246187Y90354D01*
X246580D01*
X260236Y81299D02*
X269291Y90354D01*
X274016Y72441D02*
X291929Y90354D01*
X269291D02*
X269685D01*
X291929D02*
X292323D01*
X352362Y181417D02*
X396361Y225416D01*
X424803Y98858D02*
X427205Y96457D01*
X457205Y113504D02*
X458661Y114961D01*
X457205Y96457D02*
Y113504D01*
X446850Y114961D02*
X447205Y114606D01*
Y96457D02*
Y114606D01*
X427953Y105709D02*
Y118405D01*
Y105709D02*
X437205Y96457D01*
X424803Y98858D02*
Y118405D01*
X421654Y100906D02*
Y118405D01*
X417205Y96457D02*
X421654Y100906D01*
X418504Y107756D02*
Y118405D01*
X407205Y96457D02*
X418504Y107756D01*
X386614Y107047D02*
Y118405D01*
Y107047D02*
X397205Y96457D01*
X383465Y100197D02*
Y118405D01*
Y100197D02*
X387205Y96457D01*
X380315Y99644D02*
Y118405D01*
X377205Y96533D02*
X380315Y99644D01*
X377205Y96457D02*
Y96533D01*
X377165Y106417D02*
Y118405D01*
X377205Y96457D02*
X377953Y95709D01*
Y78740D02*
Y95709D01*
X356693Y50000D02*
Y57480D01*
X377953Y78740D01*
X396361Y225416D02*
X396361D01*
X425591Y278819D02*
X436850Y267559D01*
X396361Y225416D02*
X436850Y265905D01*
X422441Y271969D02*
X427421Y266988D01*
X427677Y266732D01*
X427165Y265748D02*
Y266732D01*
X246811Y159449D02*
X311024D01*
X417677Y266102D01*
X212598Y171260D02*
X224734D01*
X216535Y159449D02*
X227741D01*
X214567Y157480D02*
X216535Y159449D01*
X223425Y156496D02*
X228085D01*
X220472Y153543D02*
X223425Y156496D01*
X251978Y164961D02*
X256465D01*
X301181Y200787D02*
X367402Y267008D01*
X251939Y165000D02*
X251978Y164961D01*
X417677Y266102D02*
Y268060D01*
X397638Y266772D02*
X397677Y266732D01*
X387008Y277402D02*
X397638Y266772D01*
X377677Y266732D02*
X378190Y267245D01*
Y267479D02*
X380709Y269998D01*
X378190Y267245D02*
Y267479D01*
X252345Y144488D02*
X257874D01*
X251939Y144055D02*
Y144082D01*
X252345Y144488D01*
X224439Y144055D02*
Y144542D01*
X142209Y144750D02*
X224230D01*
X140248Y146711D02*
X142209Y144750D01*
X224230D02*
X224439Y144542D01*
X228085Y156496D02*
X231939Y160350D01*
X227741Y159449D02*
X229376Y161084D01*
X224734Y171260D02*
X226939Y169055D01*
Y165000D02*
Y169055D01*
X140248Y146711D02*
Y147105D01*
X231939Y160350D02*
Y165000D01*
X232283Y182480D02*
Y188976D01*
X425591Y278819D02*
Y282087D01*
X422441Y271969D02*
Y282087D01*
X419291Y269674D02*
Y282087D01*
X417677Y268060D02*
X419291Y269674D01*
X416142Y275197D02*
Y282087D01*
X407677Y266732D02*
X416142Y275197D01*
X387008Y277402D02*
Y282087D01*
X383858Y270551D02*
Y282087D01*
Y270551D02*
X387677Y266732D01*
X380709Y269998D02*
Y282087D01*
X377559Y276614D02*
Y282087D01*
X367677Y266732D02*
X377559Y276614D01*
X246063Y230315D02*
X246939Y229439D01*
Y165000D02*
Y229439D01*
X249439Y165000D02*
Y170699D01*
X268504Y234343D02*
Y242126D01*
Y234343D02*
X271350Y231496D01*
X278740Y242126D02*
Y253937D01*
X246063Y230315D02*
Y236221D01*
X235039Y233374D02*
X242823D01*
X245669Y236221D01*
X246063D01*
X224409Y243610D02*
X235039D01*
X213779D02*
X224409D01*
X183071Y196850D02*
Y205315D01*
X184055Y206299D01*
X207283Y194882D02*
X207283Y194882D01*
X198819Y194882D02*
X207283D01*
X184055Y206299D02*
X186016Y204339D01*
X188335D01*
X189543Y203130D01*
X194095D01*
X234252Y207283D02*
X234646D01*
X236606Y205323D01*
Y204929D02*
Y205323D01*
Y204929D02*
X241939Y199596D01*
Y165000D02*
Y199596D01*
X224409Y207283D02*
X234252D01*
X215354Y208130D02*
X216035Y207449D01*
X219890D01*
X220055Y207283D01*
X224409D01*
X362205Y316929D02*
X362598Y317323D01*
X126378Y147244D02*
X133415D01*
X144980Y188091D02*
X145177Y187894D01*
X153642D01*
X229376Y164937D02*
X229439Y165000D01*
X229376Y161084D02*
Y164937D01*
X324337Y87868D02*
Y92644D01*
X324803Y93110D01*
X303150D02*
X303150Y93110D01*
Y87008D02*
Y93110D01*
X280315Y86614D02*
Y92520D01*
X280512Y92716D01*
X167717Y86221D02*
Y93074D01*
X167589Y93201D02*
X167717Y93074D01*
X235303Y99894D02*
Y127035D01*
X239439Y131171D02*
Y144055D01*
X235303Y127035D02*
X239439Y131171D01*
X215086Y110755D02*
X236939Y132608D01*
Y144055D01*
X215086Y101854D02*
Y110755D01*
X249648Y134211D02*
Y143846D01*
X259842Y124016D02*
X290158D01*
X249648Y134211D02*
X259842Y124016D01*
X290158D02*
X313583Y100591D01*
X258989Y120932D02*
X281627D01*
X300795Y101764D01*
X247148Y132774D02*
X258989Y120932D01*
X247148Y132774D02*
Y143846D01*
X276575Y99410D02*
X280512D01*
X244439Y131545D02*
Y144055D01*
X269685Y100591D02*
X275394D01*
X278937D01*
X275394D02*
X276575Y99410D01*
X275394Y100591D02*
Y100591D01*
X244439Y131545D02*
X275394Y100591D01*
X212415Y100210D02*
X212732Y99894D01*
X212035Y100591D02*
X212415Y100210D01*
X212732Y99894D02*
X213125D01*
X215086Y101854D01*
X226730Y138148D02*
Y143846D01*
X149099Y133778D02*
X222360D01*
X226730Y138148D01*
Y143846D02*
X226939Y144055D01*
X171528Y122761D02*
X215281D01*
X229230Y136711D02*
Y143846D01*
X215281Y122761D02*
X229230Y136711D01*
X167983Y99894D02*
X188168Y120079D01*
X216535D02*
X231730Y135274D01*
X188168Y120079D02*
X216535D01*
X151129Y102362D02*
X171528Y122761D01*
X231730Y135274D02*
Y143846D01*
X234439Y134045D02*
Y144055D01*
X206409Y116142D02*
X216535D01*
X234439Y134045D01*
X192515Y102248D02*
X206409Y116142D01*
X140945Y125624D02*
X149099Y133778D01*
X190161Y99894D02*
X190554D01*
X192515Y101854D01*
Y102248D01*
X140248Y124533D02*
Y124927D01*
X140945Y125624D01*
X257874Y93201D02*
X257874Y93201D01*
Y87008D02*
Y93201D01*
X235303Y93201D02*
X235433Y93071D01*
Y87008D02*
Y93071D01*
X212598Y93068D02*
X212732Y93201D01*
X212598Y86614D02*
Y93068D01*
X190157Y93198D02*
X190161Y93201D01*
X190157Y86614D02*
Y93198D01*
X133415Y147244D02*
X133555Y147105D01*
X133161Y101969D02*
X133555Y102362D01*
X140248D02*
X151129D01*
X140945Y125624D02*
Y135827D01*
Y103059D02*
Y113656D01*
X140248Y102362D02*
X140945Y103059D01*
Y147801D02*
Y158398D01*
X140248Y147105D02*
X140945Y147801D01*
X229230Y143846D02*
X229439Y144055D01*
X300795Y100780D02*
Y101764D01*
Y100780D02*
X300984Y100591D01*
X292323D02*
X300984D01*
X302362D01*
X246939Y144055D02*
X247148Y143846D01*
X241939Y129597D02*
Y144055D01*
Y129597D02*
X257874Y113663D01*
Y99894D02*
Y113663D01*
X249439Y144055D02*
X249648Y143846D01*
X302362Y100591D02*
X303150Y99803D01*
X279331Y100591D02*
X280512Y99410D01*
X278937Y100591D02*
X279331D01*
X246580Y100591D02*
X257177D01*
X257874Y99894D01*
X167589D02*
X167983D01*
X231730Y143846D02*
X231939Y144055D01*
X313583Y100591D02*
X324016D01*
X324803Y99803D01*
X224009Y100591D02*
X234606D01*
X235303Y99894D01*
X201438Y100591D02*
X212035D01*
X178867D02*
X189464D01*
X190161Y99894D01*
X156296Y100591D02*
X166893D01*
X167589Y99894D01*
D14*
X42913Y268701D02*
D03*
Y261221D02*
D03*
X50787Y264961D02*
D03*
X370276Y337756D02*
D03*
X362402Y334016D02*
D03*
Y341496D02*
D03*
D15*
X454528Y231496D02*
D03*
X447047D02*
D03*
X450787Y223622D02*
D03*
D41*
X141732Y313583D02*
D03*
Y351772D02*
D03*
D42*
X228346Y333661D02*
D03*
Y341535D02*
D03*
D43*
X225590Y213583D02*
D03*
Y206890D02*
D03*
X235433Y213583D02*
D03*
Y206890D02*
D03*
X21654Y261417D02*
D03*
Y268110D02*
D03*
X155512Y179724D02*
D03*
Y186417D02*
D03*
X167589Y93201D02*
D03*
Y99894D02*
D03*
X190161Y93201D02*
D03*
Y99894D02*
D03*
X212732Y93201D02*
D03*
Y99894D02*
D03*
X235303Y93201D02*
D03*
Y99894D02*
D03*
X257874Y93201D02*
D03*
Y99894D02*
D03*
X280512Y92716D02*
D03*
Y99410D02*
D03*
X303150Y93110D02*
D03*
Y99803D02*
D03*
X324803Y93110D02*
D03*
Y99803D02*
D03*
X232283Y175787D02*
D03*
Y182480D02*
D03*
X246063Y242913D02*
D03*
Y236221D02*
D03*
X184055Y206299D02*
D03*
Y212992D02*
D03*
X11811Y261417D02*
D03*
Y268110D02*
D03*
X31496Y261417D02*
D03*
Y268110D02*
D03*
X184646Y323819D02*
D03*
Y330512D02*
D03*
D44*
X121949Y188091D02*
D03*
X304626Y316535D02*
D03*
D45*
X144980Y197146D02*
D03*
Y188091D02*
D03*
Y179035D02*
D03*
X281594Y325591D02*
D03*
Y316535D02*
D03*
Y307480D02*
D03*
D46*
X72835Y286811D02*
D03*
Y276575D02*
D03*
Y251969D02*
D03*
Y262205D02*
D03*
X213779Y243610D02*
D03*
Y233374D02*
D03*
X224409Y243610D02*
D03*
Y233374D02*
D03*
X156296Y90354D02*
D03*
Y100591D02*
D03*
X178867Y90354D02*
D03*
Y100591D02*
D03*
X201438Y90354D02*
D03*
Y100591D02*
D03*
X224009Y90354D02*
D03*
Y100591D02*
D03*
X246580Y90354D02*
D03*
Y100591D02*
D03*
X269685Y90354D02*
D03*
Y100591D02*
D03*
X292323Y90354D02*
D03*
Y100591D02*
D03*
X313976Y90354D02*
D03*
Y100591D02*
D03*
X235039Y243610D02*
D03*
Y233374D02*
D03*
X458661Y114961D02*
D03*
Y125197D02*
D03*
X446850Y114961D02*
D03*
Y125197D02*
D03*
D47*
X97835Y215354D02*
D03*
X87598D02*
D03*
Y204528D02*
D03*
X97835D02*
D03*
X207480Y303150D02*
D03*
X217717D02*
D03*
X227559Y314961D02*
D03*
X217323D02*
D03*
X278740Y265748D02*
D03*
X268504D02*
D03*
Y253937D02*
D03*
X278740D02*
D03*
X130709Y158398D02*
D03*
X140945D02*
D03*
X130709Y135827D02*
D03*
X140945D02*
D03*
X130709Y113656D02*
D03*
X140945D02*
D03*
X278740Y242126D02*
D03*
X268504D02*
D03*
X362205Y316929D02*
D03*
X372441D02*
D03*
X453937Y244094D02*
D03*
X443701D02*
D03*
D48*
X143701Y281496D02*
D03*
X169291D02*
D03*
D49*
X387008Y289370D02*
D03*
Y282087D02*
D03*
X383858D02*
D03*
X380709D02*
D03*
X377559D02*
D03*
X383858Y289370D02*
D03*
X380709D02*
D03*
X377559D02*
D03*
X427953Y125689D02*
D03*
Y118405D02*
D03*
X424803D02*
D03*
X421654D02*
D03*
X418504D02*
D03*
X424803Y125689D02*
D03*
X421654D02*
D03*
X418504D02*
D03*
X386614D02*
D03*
Y118405D02*
D03*
X383465D02*
D03*
X380315D02*
D03*
X377165D02*
D03*
X383465Y125689D02*
D03*
X380315D02*
D03*
X377165D02*
D03*
X425591Y289370D02*
D03*
Y282087D02*
D03*
X422441D02*
D03*
X419291D02*
D03*
X416142D02*
D03*
X422441Y289370D02*
D03*
X419291D02*
D03*
X416142D02*
D03*
D50*
X88386Y193701D02*
D03*
X97047D02*
D03*
D51*
X138386Y207677D02*
D03*
X145079D02*
D03*
X288779Y297244D02*
D03*
X282087D02*
D03*
X295866Y334646D02*
D03*
X302559D02*
D03*
X133555Y147105D02*
D03*
X140248D02*
D03*
X133555Y124533D02*
D03*
X140248D02*
D03*
X133555Y102362D02*
D03*
X140248D02*
D03*
X278043Y231102D02*
D03*
X271350D02*
D03*
X207283Y194882D02*
D03*
X213976D02*
D03*
D52*
X195079Y343130D02*
D03*
Y338130D02*
D03*
Y333130D02*
D03*
Y328130D02*
D03*
X216339Y343130D02*
D03*
Y338130D02*
D03*
Y333130D02*
D03*
Y328130D02*
D03*
X215354Y203130D02*
D03*
Y208130D02*
D03*
Y213130D02*
D03*
Y218130D02*
D03*
X194095Y203130D02*
D03*
Y208130D02*
D03*
Y213130D02*
D03*
Y218130D02*
D03*
D53*
X91535Y263386D02*
D03*
Y250984D02*
D03*
X174213Y334646D02*
D03*
Y322244D02*
D03*
X425197Y358268D02*
D03*
Y345866D02*
D03*
D54*
X226939Y144055D02*
D03*
X229439D02*
D03*
X231939D02*
D03*
X234439D02*
D03*
X236939D02*
D03*
X239439D02*
D03*
X241939D02*
D03*
X244439D02*
D03*
X246939D02*
D03*
X249439D02*
D03*
X251939D02*
D03*
Y165000D02*
D03*
X249439D02*
D03*
X246939D02*
D03*
X244439D02*
D03*
X241939D02*
D03*
X239439D02*
D03*
X236939D02*
D03*
X234439D02*
D03*
X231939D02*
D03*
X229439D02*
D03*
X226939D02*
D03*
X224439D02*
D03*
Y144055D02*
D03*
D55*
X141732Y301279D02*
Y313583D01*
Y301181D02*
Y301279D01*
X143307Y291339D02*
Y299606D01*
Y283858D02*
Y291339D01*
X141732Y313583D02*
X141732Y313583D01*
X141732Y301181D02*
X143307Y299606D01*
D56*
Y291339D02*
X276181D01*
X144587Y208169D02*
Y208563D01*
X143701Y281496D02*
X144095Y281102D01*
Y209055D02*
Y281102D01*
Y209055D02*
X144587Y208563D01*
Y208169D02*
X145079Y207677D01*
X83661Y55315D02*
X86876Y52100D01*
X195875Y320866D02*
Y327343D01*
X245177Y243406D02*
Y248630D01*
X242126Y251681D02*
X245177Y248630D01*
X245669Y242913D02*
X246063D01*
X242126Y251681D02*
Y251969D01*
X245177Y243406D02*
X245669Y242913D01*
X41339Y251969D02*
X44291Y254921D01*
X47244Y251969D02*
Y252075D01*
X9529Y267717D02*
X42224D01*
X43307Y268799D02*
Y275590D01*
X66929Y269193D02*
Y270669D01*
X72441Y276181D01*
X42224Y267717D02*
X43307Y268799D01*
X184055Y229331D02*
X186077Y231352D01*
X91535Y263386D02*
Y268504D01*
Y263386D02*
X102362Y252559D01*
X422441Y291339D02*
X425591D01*
X427165D01*
X380709D02*
X383858D01*
X387008D01*
X387795D01*
X416142D02*
X419291D01*
X422441D01*
X377559D02*
X380709D01*
X303051Y316535D02*
X304626D01*
X381869Y338583D02*
X397638D01*
X362402Y334016D02*
X367677Y328740D01*
X225590Y213583D02*
Y220760D01*
X226378Y221547D01*
Y221654D01*
X225590Y213583D02*
X235433D01*
X177697Y338130D02*
X195079D01*
X174213Y334646D02*
X177697Y338130D01*
X206004Y301279D02*
X207480Y302756D01*
X141732Y301279D02*
X206004D01*
X72835Y251969D02*
X72835Y251969D01*
X62992Y251969D02*
X72835D01*
X62992Y251969D02*
X62992Y251969D01*
X301181Y49213D02*
Y64961D01*
X316929Y80709D02*
X326772D01*
X301181Y64961D02*
X316929Y80709D01*
X340551Y94488D02*
Y157480D01*
X326772Y80709D02*
X340551Y94488D01*
X276181Y291339D02*
X281201Y296358D01*
X102362Y232283D02*
Y252559D01*
X281594Y316535D02*
X303051D01*
X121949Y188091D02*
X144980D01*
X373031Y291339D02*
X377559D01*
X335630Y337598D02*
X336614Y338583D01*
X413386Y291339D02*
X416142D01*
X316676Y337598D02*
X335630D01*
X314370Y335292D02*
X316676Y337598D01*
X314370Y328445D02*
Y335292D01*
X417323Y127953D02*
X435039D01*
X377953D02*
X389764D01*
X389683Y353346D02*
X395819Y359483D01*
X247047Y353346D02*
X389683D01*
X304626Y316535D02*
Y318701D01*
X314370Y328445D01*
X321949Y299213D02*
X365158D01*
X304626Y314370D02*
Y316535D01*
Y314370D02*
X306890Y312106D01*
X309055D01*
X321949Y299213D01*
X405512D02*
X462598D01*
X478684Y283127D01*
X72835Y286811D02*
X73228D01*
X91535Y268504D01*
X70866Y66929D02*
Y78740D01*
X102362Y110236D02*
Y166339D01*
X70866Y78740D02*
X102362Y110236D01*
Y166339D02*
X120669Y184646D01*
X82480Y55315D02*
X83661D01*
X70866Y66929D02*
X82480Y55315D01*
X31496Y261417D02*
X41732D01*
X21654D02*
X31496D01*
X11811D02*
X21654D01*
X128937Y207677D02*
X138386D01*
X128937Y207677D02*
X128937Y207677D01*
X151575Y171260D02*
X157480D01*
X154626Y172511D02*
Y179232D01*
X144980Y179035D02*
X154429D01*
X154626Y179232D02*
X155118Y179724D01*
X154429Y179035D02*
X154626Y179232D01*
X155118Y179724D02*
X155512D01*
X271654Y322835D02*
Y327897D01*
Y328108D01*
Y327897D02*
X273960Y325591D01*
X281594D01*
X466723Y265778D02*
X467677Y266732D01*
X458732Y135897D02*
Y147638D01*
X446850Y125197D02*
X447244Y125591D01*
X448425D02*
X458732Y135897D01*
X447244Y125591D02*
X448425D01*
X394966Y133155D02*
Y143982D01*
X389764Y127953D02*
X394966Y133155D01*
X398622Y147638D02*
X442913D01*
X394966Y143982D02*
X398622Y147638D01*
X442913Y135827D02*
Y147638D01*
X435039Y127953D02*
X442913Y135827D01*
Y147638D02*
X458732D01*
X469488Y135827D02*
Y147638D01*
X459055Y125197D02*
X459449Y125591D01*
Y125787D02*
X469488Y135827D01*
X458661Y125197D02*
X459055D01*
X469488Y147638D02*
X478346D01*
X458732D02*
X469488D01*
X459449Y125591D02*
Y125787D01*
X478346Y106299D02*
Y147638D01*
Y204544D01*
X365158Y299213D02*
X405512D01*
X413386Y291339D01*
X365158Y299213D02*
X373031Y291339D01*
X224409Y233374D02*
X224803D01*
X225197Y232980D01*
X435039Y244094D02*
X443701D01*
X444095Y235433D02*
X447244Y232283D01*
X444095Y235433D02*
Y243701D01*
X443701Y244094D02*
X444095Y243701D01*
X453937Y233071D02*
Y244094D01*
Y233071D02*
X454724Y232283D01*
X453937Y244094D02*
Y260465D01*
X447677Y266724D02*
X453937Y260465D01*
X447677Y266724D02*
Y266732D01*
X194882Y320866D02*
X195875D01*
X200787D01*
X195866Y327343D02*
X195875D01*
X191752Y325098D02*
X193996Y327343D01*
X187106Y325098D02*
X191752D01*
X279528Y222441D02*
Y222729D01*
X278043Y224213D02*
X279528Y222729D01*
X278043Y224213D02*
Y231102D01*
X227559Y314961D02*
X227559Y314961D01*
X236221D01*
X287402Y334646D02*
X295866D01*
X288779Y288280D02*
Y297244D01*
Y288280D02*
X289370Y287689D01*
Y287402D02*
Y287689D01*
X367677Y328740D02*
X379921D01*
X372441Y316929D02*
X381890D01*
X302559Y334646D02*
X303051Y334154D01*
Y318110D02*
Y334154D01*
X269685Y171260D02*
Y206693D01*
X279528Y171260D02*
Y206693D01*
X259842Y171260D02*
Y206693D01*
X385197Y157480D02*
X450984Y223268D01*
X360236Y157480D02*
X385197D01*
X467506Y96758D02*
X468189Y97441D01*
X469488D01*
X478346Y106299D01*
Y204544D02*
X478684Y204882D01*
Y283127D01*
X186077Y231352D02*
X188098Y233374D01*
X181102Y232283D02*
X185146D01*
X186077Y231352D01*
X188098Y233374D02*
X213779D01*
X184055Y212992D02*
Y229331D01*
X395819Y359483D02*
X396572D01*
X397638Y340551D02*
X419882D01*
X425197Y345866D01*
X397638Y360236D02*
X423228D01*
X425197Y358268D01*
X370276Y337756D02*
X381042D01*
X381869Y338583D01*
X186614Y324606D02*
X187106Y325098D01*
X189806Y332567D02*
X195276D01*
X186614Y331299D02*
X187106Y331791D01*
X189031D01*
X189806Y332567D01*
X174213Y314961D02*
Y322244D01*
X174213Y314961D02*
X174213Y314961D01*
X281594Y297736D02*
X282087Y297244D01*
X281594Y297736D02*
Y299409D01*
X281594Y299410D02*
X281594Y299409D01*
X281594Y299410D02*
Y307480D01*
X282087Y296850D02*
Y297244D01*
X281594Y296358D02*
X282087Y296850D01*
X281201Y296358D02*
X281594D01*
X144980Y197146D02*
X145029Y197195D01*
Y207628D01*
X145079Y207677D01*
X120669Y184646D02*
X120669D01*
X121949Y185925D01*
Y188091D01*
X207480Y302756D02*
Y303150D01*
X215256Y203130D02*
X215354D01*
X213976Y194882D02*
X214469Y195374D01*
Y202343D02*
X215256Y203130D01*
X214469Y195374D02*
Y202343D01*
X184055Y212992D02*
X184124Y213061D01*
X194026D01*
X194095Y213130D01*
X217323Y303150D02*
Y314961D01*
X216339Y316339D02*
Y328130D01*
Y316339D02*
X217323Y315354D01*
Y314961D02*
Y315354D01*
X97047Y186417D02*
Y193701D01*
X97047Y186417D02*
X97047Y186417D01*
X72835Y262205D02*
Y276378D01*
D57*
X173228Y185039D02*
X216802D01*
X156890D02*
X173228D01*
X226054Y175787D02*
X232283D01*
X216802Y185039D02*
X226054Y175787D01*
X232283D02*
X233744Y174327D01*
X155512Y186417D02*
X156890Y185039D01*
X233744Y174327D02*
X236068D01*
X238396Y170343D02*
Y172000D01*
X236943Y165004D02*
Y168890D01*
X236068Y174327D02*
X238396Y172000D01*
X236943Y168890D02*
X238396Y170343D01*
X236939Y165000D02*
X236943Y165004D01*
D58*
X44291Y250000D02*
Y254921D01*
X90945Y367126D02*
X106693Y351378D01*
Y278543D02*
Y351378D01*
X91535Y263386D02*
X106693Y278543D01*
X44291Y254921D02*
Y255906D01*
X55118Y268044D02*
Y309841D01*
X63190Y317913D01*
X90983D01*
X55118Y167323D02*
Y187008D01*
X64961Y196850D01*
X83858Y233858D02*
X91535Y241535D01*
Y246457D01*
X64961Y233858D02*
X83858D01*
X64961Y215354D02*
X83661D01*
X64961D02*
Y233858D01*
D59*
X90945Y367126D02*
X242435D01*
X247047Y362513D01*
Y353346D02*
Y362513D01*
Y336502D02*
Y353346D01*
X216535Y340551D02*
Y346457D01*
X194882D02*
X216535D01*
X225098D01*
X228346Y343209D01*
X228445Y331890D02*
X242435D01*
X247047Y336502D01*
X83661Y215354D02*
X83661Y215354D01*
D60*
X159449Y338583D02*
X174213D01*
X141732Y351772D02*
X146260D01*
X159449Y338583D01*
D61*
X177697Y338130D02*
X178180Y338614D01*
D62*
X216339Y333130D02*
X226024D01*
X214862D02*
X216339D01*
D63*
X87598Y204528D02*
X87992Y204134D01*
Y194095D02*
Y204134D01*
Y194095D02*
X88386Y193701D01*
X97835Y204528D02*
Y215354D01*
D64*
X90945Y367126D02*
D03*
Y317913D02*
D03*
X397638Y340551D02*
D03*
Y360236D02*
D03*
D65*
X64961Y215354D02*
D03*
X14961Y205354D02*
D03*
X64961Y215354D02*
D03*
X14961Y205354D02*
D03*
X64961Y196850D02*
D03*
D03*
Y233858D02*
D03*
D03*
X14961Y225354D02*
D03*
D03*
X85630Y75984D02*
D03*
X76772Y167323D02*
D03*
X336614Y316929D02*
D03*
D66*
X377677Y96457D02*
D03*
X397677D02*
D03*
X407677D02*
D03*
X367677D02*
D03*
X387677D02*
D03*
X417677D02*
D03*
X427677D02*
D03*
X437677D02*
D03*
X447677D02*
D03*
X457677D02*
D03*
X102362Y232283D02*
D03*
X181102D02*
D03*
X188976Y240158D02*
D03*
X110236D02*
D03*
X457677Y266732D02*
D03*
X447677D02*
D03*
X437677D02*
D03*
X427677D02*
D03*
X417677D02*
D03*
X407677D02*
D03*
X397677D02*
D03*
X387677D02*
D03*
X377677D02*
D03*
X367677D02*
D03*
D67*
X467677Y96457D02*
D03*
Y266732D02*
D03*
D68*
X85630Y54331D02*
D03*
X336614Y338583D02*
D03*
D69*
X85630Y25591D02*
D03*
X26378Y167323D02*
D03*
X336614Y367323D02*
D03*
D70*
X464567Y68898D02*
D03*
X437008D02*
D03*
X423228Y49213D02*
D03*
X409449Y68898D02*
D03*
X395669Y49213D02*
D03*
X381890Y68898D02*
D03*
X450787Y49213D02*
D03*
X220472Y68898D02*
D03*
X192913D02*
D03*
X179134Y49213D02*
D03*
X165354Y68898D02*
D03*
X151575Y49213D02*
D03*
X137795Y68898D02*
D03*
X206693Y49213D02*
D03*
X342520Y68898D02*
D03*
X314961D02*
D03*
X301181Y49213D02*
D03*
X287402Y68898D02*
D03*
X273622Y49213D02*
D03*
X259842Y68898D02*
D03*
X328740Y49213D02*
D03*
D71*
X478346D02*
D03*
X234252D02*
D03*
X356299D02*
D03*
D72*
X464567Y366142D02*
D03*
X27559Y27559D02*
D03*
D73*
X55118Y167323D02*
D03*
D74*
X211024Y225590D02*
D03*
X198819Y194882D02*
D03*
X157480Y253937D02*
D03*
X151575D02*
D03*
X183071Y196850D02*
D03*
X151575Y259842D02*
D03*
X157480D02*
D03*
X242126Y251969D02*
D03*
X212598Y176937D02*
D03*
X41339Y246063D02*
D03*
X47244D02*
D03*
Y251969D02*
D03*
X41339D02*
D03*
X43307Y275590D02*
D03*
X66929Y269193D02*
D03*
X244035Y152273D02*
D03*
X259842Y224410D02*
D03*
X226378Y221654D02*
D03*
X62992Y251969D02*
D03*
X291339Y177165D02*
D03*
Y183071D02*
D03*
Y188976D02*
D03*
Y194882D02*
D03*
Y200787D02*
D03*
X456693Y292323D02*
D03*
X192913Y280118D02*
D03*
Y285039D02*
D03*
X198819D02*
D03*
Y280118D02*
D03*
X128937Y207677D02*
D03*
X151575Y171260D02*
D03*
X157480D02*
D03*
X271654Y322835D02*
D03*
Y328108D02*
D03*
X456693Y307087D02*
D03*
X435039Y244094D02*
D03*
X194882Y320866D02*
D03*
X200787D02*
D03*
X279528Y222441D02*
D03*
X236221Y314961D02*
D03*
X287402Y334646D02*
D03*
X289370Y287402D02*
D03*
X379921Y328740D02*
D03*
X381890Y316929D02*
D03*
X269685Y206693D02*
D03*
X279528D02*
D03*
Y171260D02*
D03*
X269685D02*
D03*
X259842Y206693D02*
D03*
Y171260D02*
D03*
X126378Y124409D02*
D03*
X126772Y101969D02*
D03*
X340551Y157480D02*
D03*
X360236D02*
D03*
X212598Y171260D02*
D03*
X214567Y157480D02*
D03*
X220472Y153543D02*
D03*
X226378Y151575D02*
D03*
X257874Y144488D02*
D03*
X232283Y188976D02*
D03*
X237939D02*
D03*
X126378Y147244D02*
D03*
X324337Y87868D02*
D03*
X303150Y87008D02*
D03*
X280315Y86614D02*
D03*
X167717Y86221D02*
D03*
X97047Y186417D02*
D03*
X174213Y314961D02*
D03*
X257874Y87008D02*
D03*
X235433D02*
D03*
X212598Y86614D02*
D03*
X190157D02*
D03*
M02*
