M48
;Layer_Color=9474304
;FILE_FORMAT=2:4
INCH,TZ
;TYPE=PLATED
T1F00S00C0.0197
T2F00S00C0.0295
T3F00S00C0.0354
T4F00S00C0.0354
T5F00S00C0.0413
T6F00S00C0.0433
T7F00S00C0.0709
T8F00S00C0.0728
;TYPE=NON_PLATED
T9F00S00C0.1181
T10F00S00C0.2441
%
T01
X23543Y8701
X25787
X28031Y8661
X30315Y8701
X32434Y8787
X34055Y15748
X36024
X29134Y17717
Y18307
Y18898
Y19488
Y20079
X27953Y20669
X26969
X25984
Y17126
X26969
X27953
X25787Y14449
X24403Y15227
X22638Y15157
X22047Y15354
X21457Y15748
X23228Y18898
X23794
X21260Y17694
Y17126
X19882Y19488
X18307Y19685
X15748Y17126
X15157
X12638Y14724
Y12441
X12677Y10197
X16772Y8622
X19016Y8661
X21260
X12894Y20768
X9705Y18642
X4724Y24606
X4134
Y25197
X4724
X4331Y27559
X6693Y26919
X6299Y25197
X15157Y25394
X15748
Y25984
X15157
X19291Y28012
Y28504
X19882
Y28012
X20079Y32087
X19488
X17421Y31496
X21102Y22559
X22638Y22165
X25984Y22441
X27953Y22244
X24213Y25197
X23622Y31496
X27165Y32283
Y32811
X28740Y33465
X28937Y28740
X38189Y31693
X37992Y32874
X45669Y30709
Y29232
X43504Y24409
T02
X39764Y34055
Y36024
T03
X10236Y23228
X11024Y24016
X18110Y23228
X18898Y24016
T04
X37768Y9646
X38768
X39768
X40768
X41768
X42768
X43768
X44768
X45768
X46768
X36768
Y26673
X37768
X38768
X39768
X40768
X41768
X42768
X43768
X44768
X45768
X46768
T05
X15157Y4921
X17913
X20669
X23425
X27362
X30118
X32874
X35630
X39567
X42323
X45079
X47835
X46457Y6890
X43701
X40945
X38189
X34252
X31496
X28740
X25984
X22047
X19291
X16535
X13780
T06
X9094Y31791
Y36713
T07
X8563Y5433
Y7598
X7677Y16732
X5512
X33661Y31693
Y33858
T08
X6496Y19685
X1496Y20535
Y22535
X6496Y23386
Y21535
T09
X8563Y2559
X2638Y16732
X33661Y36732
T10
X2756Y2756
X46457Y36614
M30
