M48
;Layer_Color=9474304
;FILE_FORMAT=2:4
INCH,TZ
;TYPE=PLATED
T1F00S00C0.0197
T2F00S00C0.0280
T3F00S00C0.0354
T4F00S00C0.0374
%
T01
X26378Y4921
X28740Y5906
X12205Y9646
X4134Y14567
X1181Y12598
T02
X3839Y3150
Y4134
X8268Y3740
X8465Y2559
X9252Y3150
Y5118
X8268Y5315
X11220Y2559
X10236Y1181
X23524Y3248
X24261Y4676
X21358Y14961
X18504Y14180
X18406Y16535
X16634Y16929
X16732Y15748
X13780Y16142
X12402Y15945
Y14370
X10827Y17126
T03
X17165Y886
X18165
X19165
X20165
X21165
X22165
X23165
X24165
X25165
X26165
X27165
Y17913
X26165
X25165
X24165
X23165
X22165
X21165
X20165
X19165
X18165
X17165
T04
X21228Y6102
X22228
X23228
X24228
X25228
X26228
X27228
Y12102
X26228
X25228
X24228
X23228
X22228
X21228
X20228
X19228
X18228
X17228
X16228
X15228
X14228
X13228
X12228
X11228
X10228
X9228
X8228
X7228
X6228
Y6102
X7228
X8228
X9228
X10228
X11228
X12228
X13228
X14228
X15228
X16228
X17228
X18228
X19228
X20228
X5228
X4228
Y12102
X5228
M30
